SplineFontDB: 3.0
FontName: TerminalVector
FullName: TerminalVector
FamilyName: TerminalVector
Weight: Normal
Copyright: 
Version: 001.000
ItalicAngle: 0
UnderlinePosition: 0
UnderlineWidth: 0
Ascent: 1280
Descent: 256
LayerCount: 2
Layer: 0 1 "Back"  1
Layer: 1 1 "Fore"  0
XUID: [1021 817 7988 29529]
FSType: 8
OS2Version: 0
OS2_WeightWidthSlopeOnly: 0
OS2_UseTypoMetrics: 1
CreationTime: 1291348223
ModificationTime: 1291615894
PfmFamily: 49
TTFWeight: 400
TTFWidth: 4
LineGap: 0
VLineGap: 0
Panose: 2 0 5 9 0 0 0 0 0 0
OS2TypoAscent: 0
OS2TypoAOffset: 1
OS2TypoDescent: 0
OS2TypoDOffset: 1
OS2TypoLinegap: 0
OS2WinAscent: 0
OS2WinAOffset: 1
OS2WinDescent: 0
OS2WinDOffset: 1
HheadAscent: 0
HheadAOffset: 1
HheadDescent: 0
HheadDOffset: 1
OS2FamilyClass: 2057
OS2Vendor: 'PfEd'
MarkAttachClasses: 1
DEI: 91125
ShortTable: maxp 16
  0
  0
  0
  0
  0
  0
  0
  2
  1
  2
  22
  0
  256
  0
  0
  0
EndShort
TtTable: prep

EndTTInstrs
TtTable: fpgm

EndTTInstrs
ShortTable: cvt  4
  -256
  0
  768
  1152
EndShort
LangName: 1033 
GaspTable: 1 65535 1
Encoding: Custom
Compacted: 1
UnicodeInterp: none
NameList: Adobe Glyph List
DisplaySize: -24
AntiAlias: 1
FitToEm: 1
WinInfo: 0 38 15
BeginPrivate: 3
BlueValues 23 [0 0 768 768 1152 1152]
OtherBlues 11 [-256 -128]
BlueFuzz 1 1
EndPrivate
GridOrder2: 1
Grid
-96 2688 m 0,0,-1
 -96 -1408 l 0
EndSplineSet
TeXData: 1 0 0 524288 262144 174762 380109 1048576 174762 783286 444596 497025 792723 393216 433062 380633 303038 157286 324010 404750 52429 2506097 1059062 262144
BeginChars: 65542 486

StartChar: exclam
Encoding: 33 33 1
Width: 1024
VWidth: 26
Flags: W
HStem: 0 256<256 512> 640 384<128 256 512 640> 1132 20G<256 512>
VStem: 128 512<640 1024> 256 256<0 256 384 640 1024 1152>
LayerCount: 2
Fore
SplineSet
256 1024 m 1,0,-1
 256 1152 l 1,1,-1
 512 1152 l 1,2,-1
 512 1024 l 1,3,-1
 640 1024 l 1,4,-1
 640 640 l 1,5,-1
 512 640 l 1,6,-1
 512 384 l 1,7,-1
 256 384 l 1,8,-1
 256 640 l 1,9,-1
 128 640 l 1,10,-1
 128 1024 l 1,11,-1
 256 1024 l 1,0,-1
256 0 m 1,12,-1
 256 256 l 1,13,-1
 512 256 l 1,14,-1
 512 0 l 1,15,-1
 256 0 l 1,12,-1
EndSplineSet
Validated: 3073
EndChar

StartChar: quotedbl
Encoding: 34 34 2
Width: 1024
VWidth: 26
Flags: W
HStem: 768 384<128 256 768 896>
VStem: 128 256<768 1152> 256 128<640 768> 640 256<768 1152> 640 128<640 768>
LayerCount: 2
Fore
SplineSet
128 768 m 1,0,-1
 128 1152 l 1,1,-1
 384 1152 l 1,2,-1
 384 640 l 1,3,-1
 256 640 l 1,4,-1
 256 768 l 1,5,-1
 128 768 l 1,0,-1
640 640 m 1,6,-1
 640 1152 l 1,7,-1
 896 1152 l 1,8,-1
 896 768 l 1,9,-1
 768 768 l 1,10,-1
 768 640 l 1,11,-1
 640 640 l 1,6,-1
EndSplineSet
Validated: 3073
EndChar

StartChar: numbersign
Encoding: 35 35 3
Width: 1024
VWidth: 26
Flags: W
HStem: 0 21G<128 384 512 768> 256 128<0 128 384 512 768 896> 768 128<0 128 384 512 768 896> 1132 20G<128 384 512 768>
VStem: 128 256<0 256 384 768 896 1152> 512 256<0 256 384 768 896 1152>
LayerCount: 2
Fore
SplineSet
512 384 m 1,0,-1
 512 768 l 1,1,-1
 384 768 l 1,2,-1
 384 384 l 1,3,-1
 512 384 l 1,0,-1
128 896 m 1,4,-1
 128 1152 l 1,5,-1
 384 1152 l 1,6,-1
 384 896 l 1,7,-1
 512 896 l 1,8,-1
 512 1152 l 1,9,-1
 768 1152 l 1,10,-1
 768 896 l 1,11,-1
 896 896 l 1,12,-1
 896 768 l 1,13,-1
 768 768 l 1,14,-1
 768 384 l 1,15,-1
 896 384 l 1,16,-1
 896 256 l 1,17,-1
 768 256 l 1,18,-1
 768 0 l 1,19,-1
 512 0 l 1,20,-1
 512 256 l 1,21,-1
 384 256 l 1,22,-1
 384 0 l 1,23,-1
 128 0 l 1,24,-1
 128 256 l 1,25,-1
 0 256 l 1,26,-1
 0 384 l 1,27,-1
 128 384 l 1,28,-1
 128 768 l 1,29,-1
 0 768 l 1,30,-1
 0 896 l 1,31,-1
 128 896 l 1,4,-1
EndSplineSet
Validated: 3073
EndChar

StartChar: dollar
Encoding: 36 36 4
Width: 1024
VWidth: 26
Flags: W
HStem: -128 384<256 512> 128 128<0 256> 256 256<640 768> 512 128<256 512> 640 256<0 128> 896 384<256 512> 896 128<512 768>
VStem: 0 256<640 896> 256 256<-128 128 1024 1280> 512 256<256 512>
LayerCount: 2
Fore
SplineSet
256 1024 m 1,0,-1
 256 1280 l 1,1,-1
 512 1280 l 1,2,-1
 512 1024 l 1,3,-1
 768 1024 l 1,4,-1
 768 896 l 1,5,-1
 256 896 l 1,6,-1
 256 640 l 1,7,-1
 640 640 l 1,8,-1
 640 512 l 1,9,-1
 768 512 l 1,10,-1
 768 256 l 1,11,-1
 640 256 l 1,12,-1
 640 128 l 1,13,-1
 512 128 l 1,14,-1
 512 -128 l 1,15,-1
 256 -128 l 1,16,-1
 256 128 l 1,17,-1
 0 128 l 1,18,-1
 0 256 l 1,19,-1
 512 256 l 1,20,-1
 512 512 l 1,21,-1
 128 512 l 1,22,-1
 128 640 l 1,23,-1
 0 640 l 1,24,-1
 0 896 l 1,25,-1
 128 896 l 1,26,-1
 128 1024 l 1,27,-1
 256 1024 l 1,0,-1
EndSplineSet
Validated: 3073
EndChar

StartChar: percent
Encoding: 37 37 5
Width: 1024
VWidth: 26
Flags: W
HStem: 0 256<0 128 512 768> 128 256<128 256> 256 256<256 384> 384 256<384 512> 512 256<512 640> 640 256<0 256 640 768>
VStem: 0 256<128 256 640 896> 0 128<0 128> 128 256<256 384> 256 256<384 512> 384 256<512 640> 512 256<0 256 640 768> 640 128<768 896>
LayerCount: 2
Fore
SplineSet
0 640 m 1,0,-1
 0 896 l 1,1,-1
 256 896 l 1,2,-1
 256 640 l 1,3,-1
 0 640 l 1,0,-1
640 768 m 1,4,-1
 640 896 l 1,5,-1
 768 896 l 1,6,-1
 768 640 l 1,7,-1
 640 640 l 1,8,-1
 640 512 l 1,9,-1
 512 512 l 1,10,-1
 512 384 l 1,11,-1
 384 384 l 1,12,-1
 384 256 l 1,13,-1
 256 256 l 1,14,-1
 256 128 l 1,15,-1
 128 128 l 1,16,-1
 128 0 l 1,17,-1
 0 0 l 1,18,-1
 0 256 l 1,19,-1
 128 256 l 1,20,-1
 128 384 l 1,21,-1
 256 384 l 1,22,-1
 256 512 l 1,23,-1
 384 512 l 1,24,-1
 384 640 l 1,25,-1
 512 640 l 1,26,-1
 512 768 l 1,27,-1
 640 768 l 1,4,-1
512 0 m 1,28,-1
 512 256 l 1,29,-1
 768 256 l 1,30,-1
 768 0 l 1,31,-1
 512 0 l 1,28,-1
EndSplineSet
Validated: 3073
EndChar

StartChar: ampersand
Encoding: 38 38 6
Width: 1024
VWidth: 26
Flags: W
HStem: 0 256<384 512> 0 128<256 384 768 896> 384 256<768 896> 768 256<0 128 512 640> 1024 128<256 384>
VStem: 0 256<128 512 768 1024> 128 384<0 128 640 768 1024 1152> 384 256<768 1024> 512 256<256 384> 640 256<0 128> 768 128<512 640>
LayerCount: 2
Fore
SplineSet
384 384 m 1,0,-1
 384 512 l 1,1,-1
 256 512 l 1,2,-1
 256 128 l 1,3,-1
 384 128 l 1,4,-1
 384 256 l 1,5,-1
 512 256 l 1,6,-1
 512 384 l 1,7,-1
 384 384 l 1,0,-1
384 768 m 1,8,-1
 384 1024 l 1,9,-1
 256 1024 l 1,10,-1
 256 768 l 1,11,-1
 384 768 l 1,8,-1
128 1024 m 1,12,-1
 128 1152 l 1,13,-1
 512 1152 l 1,14,-1
 512 1024 l 1,15,-1
 640 1024 l 1,16,-1
 640 768 l 1,17,-1
 512 768 l 1,18,-1
 512 640 l 1,19,-1
 640 640 l 1,20,-1
 640 512 l 1,21,-1
 768 512 l 1,22,-1
 768 640 l 1,23,-1
 896 640 l 1,24,-1
 896 384 l 1,25,-1
 768 384 l 1,26,-1
 768 128 l 1,27,-1
 896 128 l 1,28,-1
 896 0 l 1,29,-1
 640 0 l 1,30,-1
 640 128 l 1,31,-1
 512 128 l 1,32,-1
 512 0 l 1,33,-1
 128 0 l 1,34,-1
 128 128 l 1,35,-1
 0 128 l 1,36,-1
 0 640 l 1,37,-1
 128 640 l 1,38,-1
 128 768 l 1,39,-1
 0 768 l 1,40,-1
 0 1024 l 1,41,-1
 128 1024 l 1,12,-1
EndSplineSet
Validated: 3073
EndChar

StartChar: quotesingle
Encoding: 39 39 7
Width: 1024
VWidth: 26
Flags: W
HStem: 640 128<128 256> 1132 20G<256 512>
VStem: 128 256<640 768> 256 256<768 1152>
LayerCount: 2
Fore
SplineSet
256 768 m 1,0,-1
 256 1152 l 1,1,-1
 512 1152 l 1,2,-1
 512 768 l 1,3,-1
 384 768 l 1,4,-1
 384 640 l 1,5,-1
 128 640 l 1,6,-1
 128 768 l 1,7,-1
 256 768 l 1,0,-1
EndSplineSet
Validated: 3073
EndChar

StartChar: parenleft
Encoding: 40 40 8
Width: 1024
VWidth: 26
Flags: W
HStem: 0 256<512 640> 0 128<640 768> 128 256<384 512> 768 256<384 512> 896 256<512 640> 1024 128<640 768>
VStem: 128 256<384 768> 256 256<256 384 768 896> 384 256<128 256 896 1024> 512 256<0 128 1024 1152>
LayerCount: 2
Fore
SplineSet
512 1024 m 1,0,-1
 512 1152 l 1,1,-1
 768 1152 l 1,2,-1
 768 1024 l 1,3,-1
 640 1024 l 1,4,-1
 640 896 l 1,5,-1
 512 896 l 1,6,-1
 512 768 l 1,7,-1
 384 768 l 1,8,-1
 384 384 l 1,9,-1
 512 384 l 1,10,-1
 512 256 l 1,11,-1
 640 256 l 1,12,-1
 640 128 l 1,13,-1
 768 128 l 1,14,-1
 768 0 l 1,15,-1
 512 0 l 1,16,-1
 512 128 l 1,17,-1
 384 128 l 1,18,-1
 384 256 l 1,19,-1
 256 256 l 1,20,-1
 256 384 l 1,21,-1
 128 384 l 1,22,-1
 128 768 l 1,23,-1
 256 768 l 1,24,-1
 256 896 l 1,25,-1
 384 896 l 1,26,-1
 384 1024 l 1,27,-1
 512 1024 l 1,0,-1
EndSplineSet
Validated: 3073
EndChar

StartChar: parenright
Encoding: 41 41 9
Width: 1024
VWidth: 26
Flags: W
HStem: 0 256<256 384> 0 128<128 256> 128 256<384 512> 768 256<384 512> 896 256<256 384> 1024 128<128 256>
VStem: 128 256<0 128 1024 1152> 256 256<128 256 896 1024> 384 256<256 384 768 896> 512 256<384 768>
LayerCount: 2
Fore
SplineSet
128 1024 m 1,0,-1
 128 1152 l 1,1,-1
 384 1152 l 1,2,-1
 384 1024 l 1,3,-1
 512 1024 l 1,4,-1
 512 896 l 1,5,-1
 640 896 l 1,6,-1
 640 768 l 1,7,-1
 768 768 l 1,8,-1
 768 384 l 1,9,-1
 640 384 l 1,10,-1
 640 256 l 1,11,-1
 512 256 l 1,12,-1
 512 128 l 1,13,-1
 384 128 l 1,14,-1
 384 0 l 1,15,-1
 128 0 l 1,16,-1
 128 128 l 1,17,-1
 256 128 l 1,18,-1
 256 256 l 1,19,-1
 384 256 l 1,20,-1
 384 384 l 1,21,-1
 512 384 l 1,22,-1
 512 768 l 1,23,-1
 384 768 l 1,24,-1
 384 896 l 1,25,-1
 256 896 l 1,26,-1
 256 1024 l 1,27,-1
 128 1024 l 1,0,-1
EndSplineSet
Validated: 3073
EndChar

StartChar: asterisk
Encoding: 42 42 10
Width: 1024
VWidth: 26
Flags: W
HStem: 256 128<128 256 768 896> 512 128<0 256 768 1024> 768 128<128 256 768 896>
VStem: 128 256<256 384 768 896> 640 256<256 384 768 896>
CounterMasks: 1 e0
LayerCount: 2
Fore
SplineSet
128 768 m 1,0,-1
 128 896 l 1,1,-1
 384 896 l 1,2,-1
 384 768 l 1,3,-1
 640 768 l 1,4,-1
 640 896 l 1,5,-1
 896 896 l 1,6,-1
 896 768 l 1,7,-1
 768 768 l 1,8,-1
 768 640 l 1,9,-1
 1024 640 l 1,10,-1
 1024 512 l 1,11,-1
 768 512 l 1,12,-1
 768 384 l 1,13,-1
 896 384 l 1,14,-1
 896 256 l 1,15,-1
 640 256 l 1,16,-1
 640 384 l 1,17,-1
 384 384 l 1,18,-1
 384 256 l 1,19,-1
 128 256 l 1,20,-1
 128 384 l 1,21,-1
 256 384 l 1,22,-1
 256 512 l 1,23,-1
 0 512 l 1,24,-1
 0 640 l 1,25,-1
 256 640 l 1,26,-1
 256 768 l 1,27,-1
 128 768 l 1,0,-1
EndSplineSet
Validated: 3073
EndChar

StartChar: plus
Encoding: 43 43 11
Width: 1024
VWidth: 26
Flags: W
HStem: 512 128<128 384 640 896>
VStem: 384 256<256 512 640 896>
LayerCount: 2
Fore
SplineSet
384 640 m 1,0,-1
 384 896 l 1,1,-1
 640 896 l 1,2,-1
 640 640 l 1,3,-1
 896 640 l 1,4,-1
 896 512 l 1,5,-1
 640 512 l 1,6,-1
 640 256 l 1,7,-1
 384 256 l 1,8,-1
 384 512 l 1,9,-1
 128 512 l 1,10,-1
 128 640 l 1,11,-1
 384 640 l 1,0,-1
EndSplineSet
Validated: 3073
EndChar

StartChar: comma
Encoding: 44 44 12
Width: 1024
VWidth: 26
Flags: W
HStem: -128 128<128 256> 0 256<384 640>
VStem: 128 256<-128 0> 256 384<0 256>
LayerCount: 2
Fore
SplineSet
256 0 m 1,0,-1
 256 256 l 1,1,-1
 640 256 l 1,2,-1
 640 0 l 1,3,-1
 384 0 l 1,4,-1
 384 -128 l 1,5,-1
 128 -128 l 1,6,-1
 128 0 l 1,7,-1
 256 0 l 1,0,-1
EndSplineSet
Validated: 3073
EndChar

StartChar: hyphen
Encoding: 45 45 13
Width: 1024
VWidth: 26
Flags: W
HStem: 512 128<0 896>
LayerCount: 2
Fore
SplineSet
0 512 m 1,0,-1
 0 640 l 1,1,-1
 896 640 l 1,2,-1
 896 512 l 1,3,-1
 0 512 l 1,0,-1
EndSplineSet
Validated: 3073
EndChar

StartChar: period
Encoding: 46 46 14
Width: 1024
VWidth: 26
Flags: W
HStem: 0 256<256 640>
VStem: 256 384<0 256>
LayerCount: 2
Fore
SplineSet
256 0 m 5,0,-1
 256 256 l 5,1,-1
 640 256 l 5,2,-1
 640 0 l 5,3,-1
 256 0 l 5,0,-1
EndSplineSet
Validated: 3073
EndChar

StartChar: slash
Encoding: 47 47 15
Width: 1024
VWidth: 26
Flags: W
HStem: 0 256<0 128> 128 256<128 256> 256 256<256 384> 384 256<384 512> 512 256<512 640> 640 256<640 768> 768 256<768 896>
VStem: 0 256<128 256> 0 128<0 128> 128 256<256 384> 256 256<384 512> 384 256<512 640> 512 256<640 768> 640 256<768 896> 768 128<896 1024>
LayerCount: 2
Fore
SplineSet
768 896 m 1,0,-1
 768 1024 l 1,1,-1
 896 1024 l 1,2,-1
 896 768 l 1,3,-1
 768 768 l 1,4,-1
 768 640 l 1,5,-1
 640 640 l 1,6,-1
 640 512 l 1,7,-1
 512 512 l 1,8,-1
 512 384 l 1,9,-1
 384 384 l 1,10,-1
 384 256 l 1,11,-1
 256 256 l 1,12,-1
 256 128 l 1,13,-1
 128 128 l 1,14,-1
 128 0 l 1,15,-1
 0 0 l 1,16,-1
 0 256 l 1,17,-1
 128 256 l 1,18,-1
 128 384 l 1,19,-1
 256 384 l 1,20,-1
 256 512 l 1,21,-1
 384 512 l 1,22,-1
 384 640 l 1,23,-1
 512 640 l 1,24,-1
 512 768 l 1,25,-1
 640 768 l 1,26,-1
 640 896 l 1,27,-1
 768 896 l 1,0,-1
EndSplineSet
Validated: 3073
EndChar

StartChar: zero
Encoding: 48 48 16
Width: 1024
VWidth: 26
Flags: W
HStem: 0 128<256 640> 256 256<256 384> 640 256<512 640> 1024 128<256 640>
VStem: 0 256<128 256 512 1024> 384 128<512 640> 640 256<128 640 896 1024>
CounterMasks: 1 0e
LayerCount: 2
Fore
SplineSet
640 128 m 1,0,-1
 640 640 l 1,1,-1
 512 640 l 1,2,-1
 512 384 l 1,3,-1
 384 384 l 1,4,-1
 384 256 l 1,5,-1
 256 256 l 1,6,-1
 256 128 l 1,7,-1
 640 128 l 1,0,-1
640 896 m 1,8,-1
 640 1024 l 1,9,-1
 256 1024 l 1,10,-1
 256 512 l 1,11,-1
 384 512 l 1,12,-1
 384 768 l 1,13,-1
 512 768 l 1,14,-1
 512 896 l 1,15,-1
 640 896 l 1,8,-1
128 1024 m 1,16,-1
 128 1152 l 1,17,-1
 768 1152 l 1,18,-1
 768 1024 l 1,19,-1
 896 1024 l 1,20,-1
 896 128 l 1,21,-1
 768 128 l 1,22,-1
 768 0 l 1,23,-1
 128 0 l 1,24,-1
 128 128 l 1,25,-1
 0 128 l 1,26,-1
 0 1024 l 1,27,-1
 128 1024 l 1,16,-1
EndSplineSet
Validated: 3073
EndChar

StartChar: one
Encoding: 49 49 17
Width: 1024
VWidth: 26
Flags: W
HStem: 0 128<0 256 512 768> 768 128<0 256> 1132 20G<384 512>
VStem: 256 256<128 768 896 1024> 384 128<1024 1152>
LayerCount: 2
Fore
SplineSet
384 1024 m 1,0,-1
 384 1152 l 1,1,-1
 512 1152 l 1,2,-1
 512 128 l 1,3,-1
 768 128 l 1,4,-1
 768 0 l 1,5,-1
 0 0 l 1,6,-1
 0 128 l 1,7,-1
 256 128 l 1,8,-1
 256 768 l 1,9,-1
 0 768 l 1,10,-1
 0 896 l 1,11,-1
 256 896 l 1,12,-1
 256 1024 l 1,13,-1
 384 1024 l 1,0,-1
EndSplineSet
Validated: 3073
EndChar

StartChar: two
Encoding: 50 50 18
Width: 1024
VWidth: 26
Flags: W
HStem: 4 256<0 128 512 768> 4 128<256 512> 260 256<256 384> 388 256<384 512> 772 256<0 128> 1028 128<256 512>
VStem: 0 256<132 260 772 1028> 128 256<260 388> 256 256<388 516> 384 256<516 644> 512 256<132 260 644 1028>
LayerCount: 2
Fore
SplineSet
128 1028 m 1,0,-1
 128 1156 l 1,1,-1
 640 1156 l 1,2,-1
 640 1028 l 1,3,-1
 768 1028 l 1,4,-1
 768 644 l 1,5,-1
 640 644 l 1,6,-1
 640 516 l 1,7,-1
 512 516 l 1,8,-1
 512 388 l 1,9,-1
 384 388 l 1,10,-1
 384 260 l 1,11,-1
 256 260 l 1,12,-1
 256 132 l 1,13,-1
 512 132 l 1,14,-1
 512 260 l 1,15,-1
 768 260 l 1,16,-1
 768 4 l 1,17,-1
 0 4 l 1,18,-1
 0 260 l 1,19,-1
 128 260 l 1,20,-1
 128 388 l 1,21,-1
 256 388 l 1,22,-1
 256 516 l 1,23,-1
 384 516 l 1,24,-1
 384 644 l 1,25,-1
 512 644 l 1,26,-1
 512 1028 l 1,27,-1
 256 1028 l 1,28,-1
 256 772 l 1,29,-1
 0 772 l 1,30,-1
 0 1028 l 1,31,-1
 128 1028 l 1,0,-1
EndSplineSet
Validated: 3073
EndChar

StartChar: three
Encoding: 51 51 19
Width: 1024
VWidth: 26
Flags: W
HStem: 0 128<256 512> 128 128<0 128> 512 128<256 512> 896 128<0 128> 1024 128<256 512>
VStem: 0 256<128 256 896 1024> 512 256<128 512 640 1024>
LayerCount: 2
Fore
SplineSet
128 1024 m 1,0,-1
 128 1152 l 1,1,-1
 640 1152 l 1,2,-1
 640 1024 l 1,3,-1
 768 1024 l 1,4,-1
 768 640 l 1,5,-1
 640 640 l 1,6,-1
 640 512 l 1,7,-1
 768 512 l 1,8,-1
 768 128 l 1,9,-1
 640 128 l 1,10,-1
 640 0 l 1,11,-1
 128 0 l 1,12,-1
 128 128 l 1,13,-1
 0 128 l 1,14,-1
 0 256 l 1,15,-1
 256 256 l 1,16,-1
 256 128 l 1,17,-1
 512 128 l 1,18,-1
 512 512 l 1,19,-1
 256 512 l 1,20,-1
 256 640 l 1,21,-1
 512 640 l 1,22,-1
 512 1024 l 1,23,-1
 256 1024 l 1,24,-1
 256 896 l 1,25,-1
 0 896 l 1,26,-1
 0 1024 l 1,27,-1
 128 1024 l 1,0,-1
EndSplineSet
Validated: 3073
EndChar

StartChar: four
Encoding: 52 52 20
Width: 1024
VWidth: 26
Flags: W
HStem: 0 128<384 512 768 896> 384 256<0 128> 384 128<256 512 768 896> 640 256<256 384> 768 256<384 512> 1132 20G<512 768>
VStem: 0 256<512 640> 128 256<640 768> 512 256<128 384 512 768 1024 1152>
LayerCount: 2
Fore
SplineSet
512 512 m 1,0,-1
 512 768 l 1,1,-1
 384 768 l 1,2,-1
 384 640 l 1,3,-1
 256 640 l 1,4,-1
 256 512 l 1,5,-1
 512 512 l 1,0,-1
512 1024 m 1,6,-1
 512 1152 l 1,7,-1
 768 1152 l 1,8,-1
 768 512 l 1,9,-1
 896 512 l 1,10,-1
 896 384 l 1,11,-1
 768 384 l 1,12,-1
 768 128 l 1,13,-1
 896 128 l 1,14,-1
 896 0 l 1,15,-1
 384 0 l 1,16,-1
 384 128 l 1,17,-1
 512 128 l 1,18,-1
 512 384 l 1,19,-1
 0 384 l 1,20,-1
 0 640 l 1,21,-1
 128 640 l 1,22,-1
 128 768 l 1,23,-1
 256 768 l 1,24,-1
 256 896 l 1,25,-1
 384 896 l 1,26,-1
 384 1024 l 1,27,-1
 512 1024 l 1,6,-1
EndSplineSet
Validated: 3073
EndChar

StartChar: five
Encoding: 53 53 21
Width: 1024
VWidth: 26
Flags: W
HStem: 0 128<256 512> 128 128<0 128> 512 128<256 512> 1024 128<256 768>
VStem: 0 256<128 256 640 1024> 512 256<128 512>
LayerCount: 2
Fore
SplineSet
0 512 m 1,0,-1
 0 1152 l 1,1,-1
 768 1152 l 1,2,-1
 768 1024 l 1,3,-1
 256 1024 l 1,4,-1
 256 640 l 1,5,-1
 640 640 l 1,6,-1
 640 512 l 1,7,-1
 768 512 l 1,8,-1
 768 128 l 1,9,-1
 640 128 l 1,10,-1
 640 0 l 1,11,-1
 128 0 l 1,12,-1
 128 128 l 1,13,-1
 0 128 l 1,14,-1
 0 256 l 1,15,-1
 256 256 l 1,16,-1
 256 128 l 1,17,-1
 512 128 l 1,18,-1
 512 512 l 1,19,-1
 0 512 l 1,0,-1
EndSplineSet
Validated: 3073
EndChar

StartChar: six
Encoding: 54 54 22
Width: 1024
VWidth: 26
Flags: W
HStem: 0 128<256 512> 512 128<256 512> 896 256<256 384> 1024 128<384 640>
VStem: 0 256<128 512 640 896> 128 256<896 1024> 512 256<128 512>
LayerCount: 2
Fore
SplineSet
512 128 m 1,0,-1
 512 512 l 1,1,-1
 256 512 l 1,2,-1
 256 128 l 1,3,-1
 512 128 l 1,0,-1
256 1024 m 1,4,-1
 256 1152 l 1,5,-1
 640 1152 l 1,6,-1
 640 1024 l 1,7,-1
 384 1024 l 1,8,-1
 384 896 l 1,9,-1
 256 896 l 1,10,-1
 256 640 l 1,11,-1
 640 640 l 1,12,-1
 640 512 l 1,13,-1
 768 512 l 1,14,-1
 768 128 l 1,15,-1
 640 128 l 1,16,-1
 640 0 l 1,17,-1
 128 0 l 1,18,-1
 128 128 l 1,19,-1
 0 128 l 1,20,-1
 0 896 l 1,21,-1
 128 896 l 1,22,-1
 128 1024 l 1,23,-1
 256 1024 l 1,4,-1
EndSplineSet
Validated: 3073
EndChar

StartChar: seven
Encoding: 55 55 23
Width: 1024
VWidth: 26
Flags: W
HStem: 0 21G<256 512> 384 256<512 640> 768 384<0 256> 1024 128<256 640>
VStem: 0 256<768 1024> 256 256<0 384> 384 256<384 512> 512 256<512 640> 640 256<640 1024>
LayerCount: 2
Fore
SplineSet
0 768 m 1,0,-1
 0 1152 l 1,1,-1
 896 1152 l 1,2,-1
 896 640 l 1,3,-1
 768 640 l 1,4,-1
 768 512 l 1,5,-1
 640 512 l 1,6,-1
 640 384 l 1,7,-1
 512 384 l 1,8,-1
 512 0 l 1,9,-1
 256 0 l 1,10,-1
 256 384 l 1,11,-1
 384 384 l 1,12,-1
 384 512 l 1,13,-1
 512 512 l 1,14,-1
 512 640 l 1,15,-1
 640 640 l 1,16,-1
 640 1024 l 1,17,-1
 256 1024 l 1,18,-1
 256 768 l 1,19,-1
 0 768 l 1,0,-1
EndSplineSet
Validated: 3073
EndChar

StartChar: eight
Encoding: 56 56 24
Width: 1024
VWidth: 26
Flags: W
HStem: 0 128<256 512> 128 384<0 128 640 768> 384 256<384 512> 512 256<256 384> 640 384<0 128 640 768> 1024 128<256 512>
VStem: 0 256<128 512 768 1024> 128 512<0 128 512 640 1024 1152> 512 256<128 384 640 1024>
LayerCount: 2
Fore
SplineSet
384 384 m 1,0,-1
 384 512 l 1,1,-1
 256 512 l 1,2,-1
 256 128 l 1,3,-1
 512 128 l 1,4,-1
 512 384 l 1,5,-1
 384 384 l 1,0,-1
512 640 m 1,6,-1
 512 1024 l 1,7,-1
 256 1024 l 1,8,-1
 256 768 l 1,9,-1
 384 768 l 1,10,-1
 384 640 l 1,11,-1
 512 640 l 1,6,-1
128 1024 m 1,12,-1
 128 1152 l 1,13,-1
 640 1152 l 1,14,-1
 640 1024 l 1,15,-1
 768 1024 l 1,16,-1
 768 640 l 1,17,-1
 640 640 l 1,18,-1
 640 512 l 1,19,-1
 768 512 l 1,20,-1
 768 128 l 1,21,-1
 640 128 l 1,22,-1
 640 0 l 1,23,-1
 128 0 l 1,24,-1
 128 128 l 1,25,-1
 0 128 l 1,26,-1
 0 512 l 1,27,-1
 128 512 l 1,28,-1
 128 640 l 1,29,-1
 0 640 l 1,30,-1
 0 1024 l 1,31,-1
 128 1024 l 1,12,-1
EndSplineSet
Validated: 3073
EndChar

StartChar: nine
Encoding: 57 57 25
Width: 1024
VWidth: 26
Flags: W
HStem: 0 256<256 384> 0 128<128 256> 512 128<256 384> 1024 128<256 512>
VStem: 0 256<640 1024> 256 256<128 256> 384 256<256 512> 512 256<640 1024>
LayerCount: 2
Fore
SplineSet
512 640 m 1,0,-1
 512 1024 l 1,1,-1
 256 1024 l 1,2,-1
 256 640 l 1,3,-1
 512 640 l 1,0,-1
128 1024 m 1,4,-1
 128 1152 l 1,5,-1
 640 1152 l 1,6,-1
 640 1024 l 1,7,-1
 768 1024 l 1,8,-1
 768 512 l 1,9,-1
 640 512 l 1,10,-1
 640 256 l 1,11,-1
 512 256 l 1,12,-1
 512 0 l 1,13,-1
 128 0 l 1,14,-1
 128 128 l 1,15,-1
 256 128 l 1,16,-1
 256 256 l 1,17,-1
 384 256 l 1,18,-1
 384 512 l 1,19,-1
 128 512 l 1,20,-1
 128 640 l 1,21,-1
 0 640 l 1,22,-1
 0 1024 l 1,23,-1
 128 1024 l 1,4,-1
EndSplineSet
Validated: 3073
EndChar

StartChar: colon
Encoding: 58 58 26
Width: 1024
VWidth: 26
Flags: W
HStem: 128 256<256 640> 640 256<256 640>
VStem: 256 384<128 384 640 896>
LayerCount: 2
Fore
SplineSet
256 640 m 1,0,-1
 256 896 l 1,1,-1
 640 896 l 1,2,-1
 640 640 l 1,3,-1
 256 640 l 1,0,-1
256 128 m 1,4,-1
 256 384 l 1,5,-1
 640 384 l 1,6,-1
 640 128 l 1,7,-1
 256 128 l 1,4,-1
EndSplineSet
Validated: 3073
EndChar

StartChar: semicolon
Encoding: 59 59 27
Width: 1024
VWidth: 26
Flags: W
HStem: -128 128<256 384> 128 256<256 384> 640 256<256 640>
VStem: 256 256<-128 0> 384 256<0 128>
LayerCount: 2
Fore
SplineSet
256 640 m 1,0,-1
 256 896 l 1,1,-1
 640 896 l 1,2,-1
 640 640 l 1,3,-1
 256 640 l 1,0,-1
256 128 m 1,4,-1
 256 384 l 1,5,-1
 640 384 l 1,6,-1
 640 0 l 1,7,-1
 512 0 l 1,8,-1
 512 -128 l 1,9,-1
 256 -128 l 1,10,-1
 256 0 l 1,11,-1
 384 0 l 1,12,-1
 384 128 l 1,13,-1
 256 128 l 1,4,-1
EndSplineSet
Validated: 3073
EndChar

StartChar: less
Encoding: 60 60 28
Width: 1024
VWidth: 26
Flags: W
HStem: 0 256<512 640> 0 128<640 768> 128 256<384 512> 256 256<256 384> 512 128<0 128> 640 256<256 384> 768 256<384 512> 896 256<512 640> 1024 128<640 768>
VStem: 0 256<512 640> 128 256<384 512 640 768> 256 256<256 384 768 896> 384 256<128 256 896 1024> 512 256<0 128 1024 1152>
LayerCount: 2
Fore
SplineSet
512 1024 m 1,0,-1
 512 1152 l 1,1,-1
 768 1152 l 1,2,-1
 768 1024 l 1,3,-1
 640 1024 l 1,4,-1
 640 896 l 1,5,-1
 512 896 l 1,6,-1
 512 768 l 1,7,-1
 384 768 l 1,8,-1
 384 640 l 1,9,-1
 256 640 l 1,10,-1
 256 512 l 1,11,-1
 384 512 l 1,12,-1
 384 384 l 1,13,-1
 512 384 l 1,14,-1
 512 256 l 1,15,-1
 640 256 l 1,16,-1
 640 128 l 1,17,-1
 768 128 l 1,18,-1
 768 0 l 1,19,-1
 512 0 l 1,20,-1
 512 128 l 1,21,-1
 384 128 l 1,22,-1
 384 256 l 1,23,-1
 256 256 l 1,24,-1
 256 384 l 1,25,-1
 128 384 l 1,26,-1
 128 512 l 1,27,-1
 0 512 l 1,28,-1
 0 640 l 1,29,-1
 128 640 l 1,30,-1
 128 768 l 1,31,-1
 256 768 l 1,32,-1
 256 896 l 1,33,-1
 384 896 l 1,34,-1
 384 1024 l 1,35,-1
 512 1024 l 1,0,-1
EndSplineSet
Validated: 3073
EndChar

StartChar: equal
Encoding: 61 61 29
Width: 1024
VWidth: 26
Flags: W
HStem: 384 128<128 896> 640 128<128 896>
LayerCount: 2
Fore
SplineSet
128 640 m 1,0,-1
 128 768 l 1,1,-1
 896 768 l 1,2,-1
 896 640 l 1,3,-1
 128 640 l 1,0,-1
128 384 m 1,4,-1
 128 512 l 1,5,-1
 896 512 l 1,6,-1
 896 384 l 1,7,-1
 128 384 l 1,4,-1
EndSplineSet
Validated: 3073
EndChar

StartChar: greater
Encoding: 62 62 30
Width: 1024
VWidth: 26
Flags: W
HStem: 0 256<256 384> 0 128<128 256> 128 256<384 512> 256 256<512 640> 512 128<768 896> 640 256<512 640> 768 256<384 512> 896 256<256 384> 1024 128<128 256>
VStem: 128 256<0 128 1024 1152> 256 256<128 256 896 1024> 384 256<256 384 768 896> 512 256<384 512 640 768> 640 256<512 640>
LayerCount: 2
Fore
SplineSet
128 1024 m 1,0,-1
 128 1152 l 1,1,-1
 384 1152 l 1,2,-1
 384 1024 l 1,3,-1
 512 1024 l 1,4,-1
 512 896 l 1,5,-1
 640 896 l 1,6,-1
 640 768 l 1,7,-1
 768 768 l 1,8,-1
 768 640 l 1,9,-1
 896 640 l 1,10,-1
 896 512 l 1,11,-1
 768 512 l 1,12,-1
 768 384 l 1,13,-1
 640 384 l 1,14,-1
 640 256 l 1,15,-1
 512 256 l 1,16,-1
 512 128 l 1,17,-1
 384 128 l 1,18,-1
 384 0 l 1,19,-1
 128 0 l 1,20,-1
 128 128 l 1,21,-1
 256 128 l 1,22,-1
 256 256 l 1,23,-1
 384 256 l 1,24,-1
 384 384 l 1,25,-1
 512 384 l 1,26,-1
 512 512 l 1,27,-1
 640 512 l 1,28,-1
 640 640 l 1,29,-1
 512 640 l 1,30,-1
 512 768 l 1,31,-1
 384 768 l 1,32,-1
 384 896 l 1,33,-1
 256 896 l 1,34,-1
 256 1024 l 1,35,-1
 128 1024 l 1,0,-1
EndSplineSet
Validated: 3073
EndChar

StartChar: question
Encoding: 63 63 31
Width: 1024
VWidth: 26
Flags: W
HStem: 0 256<256 512> 384 256<256 384> 768 256<640 768> 896 128<0 128> 1024 128<256 512>
VStem: 0 256<896 1024> 256 256<0 256 384 640> 384 256<640 768> 512 256<768 1024>
LayerCount: 2
Fore
SplineSet
128 1024 m 1,0,-1
 128 1152 l 1,1,-1
 640 1152 l 1,2,-1
 640 1024 l 1,3,-1
 768 1024 l 1,4,-1
 768 768 l 1,5,-1
 640 768 l 1,6,-1
 640 640 l 1,7,-1
 512 640 l 1,8,-1
 512 384 l 1,9,-1
 256 384 l 1,10,-1
 256 640 l 1,11,-1
 384 640 l 1,12,-1
 384 768 l 1,13,-1
 512 768 l 1,14,-1
 512 1024 l 1,15,-1
 256 1024 l 1,16,-1
 256 896 l 1,17,-1
 0 896 l 1,18,-1
 0 1024 l 1,19,-1
 128 1024 l 1,0,-1
256 0 m 1,20,-1
 256 256 l 1,21,-1
 512 256 l 1,22,-1
 512 0 l 1,23,-1
 256 0 l 1,20,-1
EndSplineSet
Validated: 3073
EndChar

StartChar: at
Encoding: 64 64 32
Width: 1024
VWidth: 26
Flags: W
HStem: 0 128<256 768> 384 384<384 640> 1024 128<256 640>
VStem: 0 256<128 1024> 384 512<384 768> 640 256<768 1024>
CounterMasks: 1 e0
LayerCount: 2
Fore
SplineSet
128 1024 m 1,0,-1
 128 1152 l 1,1,-1
 768 1152 l 1,2,-1
 768 1024 l 1,3,-1
 896 1024 l 1,4,-1
 896 384 l 1,5,-1
 384 384 l 1,6,-1
 384 768 l 1,7,-1
 640 768 l 1,8,-1
 640 1024 l 1,9,-1
 256 1024 l 1,10,-1
 256 128 l 1,11,-1
 768 128 l 1,12,-1
 768 0 l 1,13,-1
 128 0 l 1,14,-1
 128 128 l 1,15,-1
 0 128 l 1,16,-1
 0 1024 l 1,17,-1
 128 1024 l 1,0,-1
EndSplineSet
Validated: 3073
EndChar

StartChar: A
Encoding: 65 65 33
Width: 1024
VWidth: 26
Flags: W
HStem: 0 21G<0 256 512 768> 384 128<256 512> 896 256<256 512>
VStem: 0 256<0 384 512 896> 256 256<1024 1152> 512 256<0 384 512 896>
LayerCount: 2
Fore
SplineSet
512 512 m 1,0,-1
 512 896 l 1,1,-1
 256 896 l 1,2,-1
 256 512 l 1,3,-1
 512 512 l 1,0,-1
256 1024 m 1,4,-1
 256 1152 l 1,5,-1
 512 1152 l 1,6,-1
 512 1024 l 1,7,-1
 640 1024 l 1,8,-1
 640 896 l 1,9,-1
 768 896 l 1,10,-1
 768 0 l 1,11,-1
 512 0 l 1,12,-1
 512 384 l 1,13,-1
 256 384 l 1,14,-1
 256 0 l 1,15,-1
 0 0 l 1,16,-1
 0 896 l 1,17,-1
 128 896 l 1,18,-1
 128 1024 l 1,19,-1
 256 1024 l 1,4,-1
EndSplineSet
Validated: 3073
EndChar

StartChar: B
Encoding: 66 66 34
Width: 1024
VWidth: 26
Flags: W
HStem: 0 128<0 128 384 640> 512 128<384 640> 1024 128<0 128 384 640>
VStem: 128 256<128 512 640 1024> 640 256<128 512 640 1024>
CounterMasks: 1 e0
LayerCount: 2
Fore
SplineSet
640 128 m 1,0,-1
 640 512 l 1,1,-1
 384 512 l 1,2,-1
 384 128 l 1,3,-1
 640 128 l 1,0,-1
640 640 m 1,4,-1
 640 1024 l 1,5,-1
 384 1024 l 1,6,-1
 384 640 l 1,7,-1
 640 640 l 1,4,-1
0 1024 m 1,8,-1
 0 1152 l 1,9,-1
 768 1152 l 1,10,-1
 768 1024 l 1,11,-1
 896 1024 l 1,12,-1
 896 640 l 1,13,-1
 768 640 l 1,14,-1
 768 512 l 1,15,-1
 896 512 l 1,16,-1
 896 128 l 1,17,-1
 768 128 l 1,18,-1
 768 0 l 1,19,-1
 0 0 l 1,20,-1
 0 128 l 1,21,-1
 128 128 l 1,22,-1
 128 1024 l 1,23,-1
 0 1024 l 1,8,-1
EndSplineSet
Validated: 3073
EndChar

StartChar: C
Encoding: 67 67 35
Width: 1024
VWidth: 26
Flags: W
HStem: 0 256<256 384> 0 128<384 640> 128 256<768 896> 768 256<768 896> 896 256<256 384> 1024 128<384 640>
VStem: 0 256<256 896> 128 256<128 256 896 1024> 640 256<128 384 768 1024>
LayerCount: 2
Fore
SplineSet
256 1024 m 5,0,-1
 256 1152 l 5,1,-1
 768 1152 l 5,2,-1
 768 1024 l 5,3,-1
 896 1024 l 5,4,-1
 896 768 l 5,5,-1
 640 768 l 5,6,-1
 640 1024 l 5,7,-1
 384 1024 l 5,8,-1
 384 896 l 5,9,-1
 256 896 l 5,10,-1
 256 256 l 5,11,-1
 384 256 l 5,12,-1
 384 128 l 5,13,-1
 640 128 l 5,14,-1
 640 384 l 5,15,-1
 896 384 l 5,16,-1
 896 128 l 5,17,-1
 768 128 l 5,18,-1
 768 0 l 5,19,-1
 256 0 l 5,20,-1
 256 128 l 5,21,-1
 128 128 l 5,22,-1
 128 256 l 5,23,-1
 0 256 l 5,24,-1
 0 896 l 5,25,-1
 128 896 l 5,26,-1
 128 1024 l 5,27,-1
 256 1024 l 5,0,-1
EndSplineSet
Validated: 3073
EndChar

StartChar: D
Encoding: 68 68 36
Width: 1024
VWidth: 26
Flags: W
HStem: 0 256<512 640> 0 128<0 128 384 512> 896 256<512 640> 1024 128<0 128 384 512>
VStem: 128 256<128 1024> 512 256<128 256 896 1024> 640 256<256 896>
LayerCount: 2
Fore
SplineSet
512 896 m 1,0,-1
 512 1024 l 1,1,-1
 384 1024 l 1,2,-1
 384 128 l 1,3,-1
 512 128 l 1,4,-1
 512 256 l 1,5,-1
 640 256 l 1,6,-1
 640 896 l 1,7,-1
 512 896 l 1,0,-1
0 1024 m 1,8,-1
 0 1152 l 1,9,-1
 640 1152 l 1,10,-1
 640 1024 l 1,11,-1
 768 1024 l 1,12,-1
 768 896 l 1,13,-1
 896 896 l 1,14,-1
 896 256 l 1,15,-1
 768 256 l 1,16,-1
 768 128 l 1,17,-1
 640 128 l 1,18,-1
 640 0 l 1,19,-1
 0 0 l 1,20,-1
 0 128 l 1,21,-1
 128 128 l 1,22,-1
 128 1024 l 1,23,-1
 0 1024 l 1,8,-1
EndSplineSet
Validated: 3073
EndChar

StartChar: E
Encoding: 69 69 37
Width: 1024
VWidth: 26
Flags: W
HStem: 0 256<768 896> 0 128<0 128 384 768> 512 128<384 640> 748 20G<640 768> 896 256<768 896> 1024 128<0 128 384 768>
VStem: 128 256<128 512 640 1024> 640 128<384 512 640 768> 768 128<128 256 896 1024>
LayerCount: 2
Fore
SplineSet
0 1024 m 1,0,-1
 0 1152 l 1,1,-1
 896 1152 l 1,2,-1
 896 896 l 1,3,-1
 768 896 l 1,4,-1
 768 1024 l 1,5,-1
 384 1024 l 1,6,-1
 384 640 l 1,7,-1
 640 640 l 1,8,-1
 640 768 l 1,9,-1
 768 768 l 1,10,-1
 768 384 l 1,11,-1
 640 384 l 1,12,-1
 640 512 l 1,13,-1
 384 512 l 1,14,-1
 384 128 l 1,15,-1
 768 128 l 1,16,-1
 768 256 l 1,17,-1
 896 256 l 1,18,-1
 896 0 l 1,19,-1
 0 0 l 1,20,-1
 0 128 l 1,21,-1
 128 128 l 1,22,-1
 128 1024 l 1,23,-1
 0 1024 l 1,0,-1
EndSplineSet
Validated: 3073
EndChar

StartChar: F
Encoding: 70 70 38
Width: 1024
VWidth: 26
Flags: W
HStem: 0 128<0 128 384 512> 512 128<384 640> 896 256<640 768> 1024 128<0 128 384 640>
VStem: 128 256<128 512 640 1024> 640 128<384 512 640 768> 768 128<768 896>
LayerCount: 2
Fore
SplineSet
640 896 m 1,0,-1
 640 1024 l 1,1,-1
 384 1024 l 1,2,-1
 384 640 l 1,3,-1
 640 640 l 1,4,-1
 640 768 l 1,5,-1
 768 768 l 1,6,-1
 768 896 l 1,7,-1
 640 896 l 1,0,-1
0 1024 m 1,8,-1
 0 1152 l 1,9,-1
 896 1152 l 1,10,-1
 896 768 l 1,11,-1
 768 768 l 1,12,-1
 768 384 l 1,13,-1
 640 384 l 1,14,-1
 640 512 l 1,15,-1
 384 512 l 1,16,-1
 384 128 l 1,17,-1
 512 128 l 1,18,-1
 512 0 l 1,19,-1
 0 0 l 1,20,-1
 0 128 l 1,21,-1
 128 128 l 1,22,-1
 128 1024 l 1,23,-1
 0 1024 l 1,8,-1
EndSplineSet
Validated: 3077
EndChar

StartChar: G
Encoding: 71 71 39
Width: 1024
VWidth: 26
Flags: W
HStem: 0 256<256 384> 0 128<384 640> 384 128<512 640> 768 256<768 896> 896 256<256 384> 1024 128<384 640>
VStem: 0 256<256 896> 128 256<128 256 896 1024> 640 256<128 384 768 1024>
LayerCount: 2
Fore
SplineSet
256 1024 m 1,0,-1
 256 1152 l 1,1,-1
 768 1152 l 1,2,-1
 768 1024 l 1,3,-1
 896 1024 l 1,4,-1
 896 768 l 1,5,-1
 640 768 l 1,6,-1
 640 1024 l 1,7,-1
 384 1024 l 1,8,-1
 384 896 l 1,9,-1
 256 896 l 1,10,-1
 256 256 l 1,11,-1
 384 256 l 1,12,-1
 384 128 l 1,13,-1
 640 128 l 1,14,-1
 640 384 l 1,15,-1
 512 384 l 1,16,-1
 512 512 l 1,17,-1
 896 512 l 1,18,-1
 896 0 l 1,19,-1
 256 0 l 1,20,-1
 256 128 l 1,21,-1
 128 128 l 1,22,-1
 128 256 l 1,23,-1
 0 256 l 1,24,-1
 0 896 l 1,25,-1
 128 896 l 1,26,-1
 128 1024 l 1,27,-1
 256 1024 l 1,0,-1
EndSplineSet
Validated: 3073
EndChar

StartChar: H
Encoding: 72 72 40
Width: 1024
VWidth: 26
Flags: W
HStem: 0 21G<0 256 512 768> 512 128<256 512> 1132 20G<0 256 512 768>
VStem: 0 256<0 512 640 1152> 512 256<0 512 640 1152>
LayerCount: 2
Fore
SplineSet
0 0 m 1,0,-1
 0 1152 l 1,1,-1
 256 1152 l 1,2,-1
 256 640 l 1,3,-1
 512 640 l 1,4,-1
 512 1152 l 1,5,-1
 768 1152 l 1,6,-1
 768 0 l 1,7,-1
 512 0 l 1,8,-1
 512 512 l 1,9,-1
 256 512 l 1,10,-1
 256 0 l 1,11,-1
 0 0 l 1,0,-1
EndSplineSet
Validated: 3073
EndChar

StartChar: I
Encoding: 73 73 41
Width: 1024
VWidth: 26
Flags: W
HStem: 0 128<128 256 512 640> 1024 128<128 256 512 640>
VStem: 256 256<128 1024>
LayerCount: 2
Fore
SplineSet
128 1024 m 1,0,-1
 128 1152 l 1,1,-1
 640 1152 l 1,2,-1
 640 1024 l 1,3,-1
 512 1024 l 1,4,-1
 512 128 l 1,5,-1
 640 128 l 1,6,-1
 640 0 l 1,7,-1
 128 0 l 1,8,-1
 128 128 l 1,9,-1
 256 128 l 1,10,-1
 256 1024 l 1,11,-1
 128 1024 l 1,0,-1
EndSplineSet
Validated: 3073
EndChar

StartChar: J
Encoding: 74 74 42
Width: 1024
VWidth: 26
Flags: W
HStem: 0 128<256 512> 1024 128<384 512 768 896>
VStem: 0 256<128 512> 512 256<128 1024>
LayerCount: 2
Fore
SplineSet
384 1024 m 1,0,-1
 384 1152 l 1,1,-1
 896 1152 l 1,2,-1
 896 1024 l 1,3,-1
 768 1024 l 1,4,-1
 768 128 l 1,5,-1
 640 128 l 1,6,-1
 640 0 l 1,7,-1
 128 0 l 1,8,-1
 128 128 l 1,9,-1
 0 128 l 1,10,-1
 0 512 l 1,11,-1
 256 512 l 1,12,-1
 256 128 l 1,13,-1
 512 128 l 1,14,-1
 512 1024 l 1,15,-1
 384 1024 l 1,0,-1
EndSplineSet
Validated: 3073
EndChar

StartChar: K
Encoding: 75 75 43
Width: 1024
VWidth: 26
Flags: W
HStem: 0 256<768 896> 0 128<0 128> 512 128<384 512> 896 256<768 896> 1024 128<0 128>
VStem: 0 384<0 128 1024 1152> 128 256<128 512 640 1024> 512 256<256 512 640 896> 640 256<0 256 896 1152>
LayerCount: 2
Fore
SplineSet
0 1024 m 1,0,-1
 0 1152 l 1,1,-1
 384 1152 l 1,2,-1
 384 640 l 1,3,-1
 512 640 l 1,4,-1
 512 896 l 1,5,-1
 640 896 l 1,6,-1
 640 1152 l 1,7,-1
 896 1152 l 1,8,-1
 896 896 l 1,9,-1
 768 896 l 1,10,-1
 768 640 l 1,11,-1
 640 640 l 1,12,-1
 640 512 l 1,13,-1
 768 512 l 1,14,-1
 768 256 l 1,15,-1
 896 256 l 1,16,-1
 896 0 l 1,17,-1
 640 0 l 1,18,-1
 640 256 l 1,19,-1
 512 256 l 1,20,-1
 512 512 l 1,21,-1
 384 512 l 1,22,-1
 384 0 l 1,23,-1
 0 0 l 1,24,-1
 0 128 l 1,25,-1
 128 128 l 1,26,-1
 128 1024 l 1,27,-1
 0 1024 l 1,0,-1
EndSplineSet
Validated: 3073
EndChar

StartChar: L
Encoding: 76 76 44
Width: 1024
VWidth: 26
Flags: W
HStem: 0 128<0 128 384 640> 1024 128<0 128 384 512>
VStem: 128 256<128 1024> 640 256<128 384> 768 128<384 512>
LayerCount: 2
Fore
SplineSet
0 1024 m 1,0,-1
 0 1152 l 1,1,-1
 512 1152 l 1,2,-1
 512 1024 l 1,3,-1
 384 1024 l 1,4,-1
 384 128 l 1,5,-1
 640 128 l 1,6,-1
 640 384 l 1,7,-1
 768 384 l 1,8,-1
 768 512 l 1,9,-1
 896 512 l 1,10,-1
 896 0 l 1,11,-1
 0 0 l 1,12,-1
 0 128 l 1,13,-1
 128 128 l 1,14,-1
 128 1024 l 1,15,-1
 0 1024 l 1,0,-1
EndSplineSet
Validated: 3073
EndChar

StartChar: M
Encoding: 77 77 45
Width: 1024
VWidth: 26
Flags: W
HStem: 0 21G<0 256 640 896> 640 384<256 384 512 640> 1132 20G<0 256 640 896>
VStem: 0 256<0 640 1024 1152> 384 128<512 640> 640 256<0 640 1024 1152>
CounterMasks: 1 1c
LayerCount: 2
Fore
SplineSet
0 0 m 1,0,-1
 0 1152 l 1,1,-1
 256 1152 l 1,2,-1
 256 1024 l 1,3,-1
 384 1024 l 1,4,-1
 384 896 l 1,5,-1
 512 896 l 1,6,-1
 512 1024 l 1,7,-1
 640 1024 l 1,8,-1
 640 1152 l 1,9,-1
 896 1152 l 1,10,-1
 896 0 l 1,11,-1
 640 0 l 1,12,-1
 640 640 l 1,13,-1
 512 640 l 1,14,-1
 512 512 l 1,15,-1
 384 512 l 1,16,-1
 384 640 l 1,17,-1
 256 640 l 1,18,-1
 256 0 l 1,19,-1
 0 0 l 1,0,-1
EndSplineSet
Validated: 3073
EndChar

StartChar: N
Encoding: 78 78 46
Width: 1024
VWidth: 26
Flags: W
HStem: 0 21G<0 256 640 896> 1132 20G<0 256 640 896>
VStem: 0 256<0 512 896 1152> 640 256<0 256 640 1152>
LayerCount: 2
Fore
SplineSet
0 0 m 1,0,-1
 0 1152 l 1,1,-1
 256 1152 l 1,2,-1
 256 896 l 1,3,-1
 384 896 l 1,4,-1
 384 768 l 1,5,-1
 512 768 l 1,6,-1
 512 640 l 1,7,-1
 640 640 l 1,8,-1
 640 1152 l 1,9,-1
 896 1152 l 1,10,-1
 896 0 l 1,11,-1
 640 0 l 1,12,-1
 640 256 l 1,13,-1
 512 256 l 1,14,-1
 512 384 l 1,15,-1
 384 384 l 1,16,-1
 384 512 l 1,17,-1
 256 512 l 1,18,-1
 256 0 l 1,19,-1
 0 0 l 1,0,-1
EndSplineSet
Validated: 3073
EndChar

StartChar: O
Encoding: 79 79 47
Width: 1024
VWidth: 26
Flags: W
HStem: 0 256<256 384 512 640> 0 128<384 512> 896 256<256 384 512 640> 1024 128<384 512>
VStem: 0 256<256 896> 128 256<128 256 896 1024> 256 384<0 128 1024 1152> 512 256<128 256 896 1024> 640 256<256 896>
LayerCount: 2
Fore
SplineSet
512 896 m 1,0,-1
 512 1024 l 1,1,-1
 384 1024 l 1,2,-1
 384 896 l 1,3,-1
 256 896 l 1,4,-1
 256 256 l 1,5,-1
 384 256 l 1,6,-1
 384 128 l 1,7,-1
 512 128 l 1,8,-1
 512 256 l 1,9,-1
 640 256 l 1,10,-1
 640 896 l 1,11,-1
 512 896 l 1,0,-1
256 1024 m 1,12,-1
 256 1152 l 1,13,-1
 640 1152 l 1,14,-1
 640 1024 l 1,15,-1
 768 1024 l 1,16,-1
 768 896 l 1,17,-1
 896 896 l 1,18,-1
 896 256 l 1,19,-1
 768 256 l 1,20,-1
 768 128 l 1,21,-1
 640 128 l 1,22,-1
 640 0 l 1,23,-1
 256 0 l 1,24,-1
 256 128 l 1,25,-1
 128 128 l 1,26,-1
 128 256 l 1,27,-1
 0 256 l 1,28,-1
 0 896 l 1,29,-1
 128 896 l 1,30,-1
 128 1024 l 1,31,-1
 256 1024 l 1,12,-1
EndSplineSet
Validated: 3073
EndChar

StartChar: P
Encoding: 80 80 48
Width: 1024
VWidth: 26
Flags: W
HStem: 0 128<0 128 384 512> 512 128<384 640> 1024 128<0 128 384 640>
VStem: 128 256<128 512 640 1024> 640 256<640 1024>
CounterMasks: 1 e0
LayerCount: 2
Fore
SplineSet
640 640 m 1,0,-1
 640 1024 l 1,1,-1
 384 1024 l 1,2,-1
 384 640 l 1,3,-1
 640 640 l 1,0,-1
0 1024 m 1,4,-1
 0 1152 l 1,5,-1
 768 1152 l 1,6,-1
 768 1024 l 1,7,-1
 896 1024 l 1,8,-1
 896 640 l 1,9,-1
 768 640 l 1,10,-1
 768 512 l 1,11,-1
 384 512 l 1,12,-1
 384 128 l 1,13,-1
 512 128 l 1,14,-1
 512 0 l 1,15,-1
 0 0 l 1,16,-1
 0 128 l 1,17,-1
 128 128 l 1,18,-1
 128 1024 l 1,19,-1
 0 1024 l 1,4,-1
EndSplineSet
Validated: 3073
EndChar

StartChar: Q
Encoding: 81 81 49
Width: 1024
VWidth: 26
Flags: W
HStem: -128 128<384 512 768 896> 128 256<384 512> 128 128<256 384> 896 256<256 384 512 640> 1024 128<384 512>
VStem: 0 256<256 896> 128 256<896 1024> 512 256<0 128 896 1024> 640 256<512 896>
LayerCount: 2
Fore
SplineSet
512 896 m 1,0,-1
 512 1024 l 1,1,-1
 384 1024 l 1,2,-1
 384 896 l 1,3,-1
 256 896 l 1,4,-1
 256 256 l 1,5,-1
 384 256 l 1,6,-1
 384 384 l 1,7,-1
 512 384 l 1,8,-1
 512 512 l 1,9,-1
 640 512 l 1,10,-1
 640 896 l 1,11,-1
 512 896 l 1,0,-1
256 1024 m 1,12,-1
 256 1152 l 1,13,-1
 640 1152 l 1,14,-1
 640 1024 l 1,15,-1
 768 1024 l 1,16,-1
 768 896 l 1,17,-1
 896 896 l 1,18,-1
 896 256 l 1,19,-1
 768 256 l 1,20,-1
 768 0 l 1,21,-1
 896 0 l 1,22,-1
 896 -128 l 1,23,-1
 384 -128 l 1,24,-1
 384 0 l 1,25,-1
 512 0 l 1,26,-1
 512 128 l 1,27,-1
 128 128 l 1,28,-1
 128 256 l 1,29,-1
 0 256 l 1,30,-1
 0 896 l 1,31,-1
 128 896 l 1,32,-1
 128 1024 l 1,33,-1
 256 1024 l 1,12,-1
EndSplineSet
Validated: 3073
EndChar

StartChar: R
Encoding: 82 82 50
Width: 1024
VWidth: 26
Flags: W
HStem: 0 128<0 128> 384 256<512 640> 512 128<384 512> 1024 128<0 128 384 640>
VStem: 128 256<128 512 640 1024> 512 256<384 512> 640 256<0 384 640 1024>
LayerCount: 2
Fore
SplineSet
640 640 m 1,0,-1
 640 1024 l 1,1,-1
 384 1024 l 1,2,-1
 384 640 l 1,3,-1
 640 640 l 1,0,-1
0 1024 m 1,4,-1
 0 1152 l 1,5,-1
 768 1152 l 1,6,-1
 768 1024 l 1,7,-1
 896 1024 l 1,8,-1
 896 640 l 1,9,-1
 768 640 l 1,10,-1
 768 384 l 1,11,-1
 896 384 l 1,12,-1
 896 0 l 1,13,-1
 640 0 l 1,14,-1
 640 384 l 1,15,-1
 512 384 l 1,16,-1
 512 512 l 1,17,-1
 384 512 l 1,18,-1
 384 0 l 1,19,-1
 0 0 l 1,20,-1
 0 128 l 1,21,-1
 128 128 l 1,22,-1
 128 1024 l 1,23,-1
 0 1024 l 1,4,-1
EndSplineSet
Validated: 3073
EndChar

StartChar: S
Encoding: 83 83 51
Width: 1024
VWidth: 26
Flags: W
HStem: 0 128<256 512> 128 256<0 128 640 768> 384 256<384 512> 512 128<256 384> 768 256<640 768> 1024 128<256 512>
VStem: 0 256<128 384 640 1024> 384 256<384 512> 512 256<128 384 768 1024>
LayerCount: 2
Fore
SplineSet
128 1024 m 1,0,-1
 128 1152 l 1,1,-1
 640 1152 l 1,2,-1
 640 1024 l 1,3,-1
 768 1024 l 1,4,-1
 768 768 l 1,5,-1
 512 768 l 1,6,-1
 512 1024 l 1,7,-1
 256 1024 l 1,8,-1
 256 640 l 1,9,-1
 512 640 l 1,10,-1
 512 512 l 1,11,-1
 640 512 l 1,12,-1
 640 384 l 1,13,-1
 768 384 l 1,14,-1
 768 128 l 1,15,-1
 640 128 l 1,16,-1
 640 0 l 1,17,-1
 128 0 l 1,18,-1
 128 128 l 1,19,-1
 0 128 l 1,20,-1
 0 384 l 1,21,-1
 256 384 l 1,22,-1
 256 128 l 1,23,-1
 512 128 l 1,24,-1
 512 384 l 1,25,-1
 384 384 l 1,26,-1
 384 512 l 1,27,-1
 128 512 l 1,28,-1
 128 640 l 1,29,-1
 0 640 l 1,30,-1
 0 1024 l 1,31,-1
 128 1024 l 1,0,-1
EndSplineSet
Validated: 3073
EndChar

StartChar: T
Encoding: 84 84 52
Width: 1024
VWidth: 26
Flags: W
HStem: 0 128<128 256 512 640> 896 256<0 128 640 768> 1024 128<128 256 512 640>
VStem: 0 128<896 1024> 256 256<128 1024> 640 128<896 1024>
CounterMasks: 1 1c
LayerCount: 2
Fore
SplineSet
0 896 m 1,0,-1
 0 1152 l 1,1,-1
 768 1152 l 1,2,-1
 768 896 l 1,3,-1
 640 896 l 1,4,-1
 640 1024 l 1,5,-1
 512 1024 l 1,6,-1
 512 128 l 1,7,-1
 640 128 l 1,8,-1
 640 0 l 1,9,-1
 128 0 l 1,10,-1
 128 128 l 1,11,-1
 256 128 l 1,12,-1
 256 1024 l 1,13,-1
 128 1024 l 1,14,-1
 128 896 l 1,15,-1
 0 896 l 1,0,-1
EndSplineSet
Validated: 3073
EndChar

StartChar: U
Encoding: 85 85 53
Width: 1024
VWidth: 26
Flags: W
HStem: 0 128<256 512> 1132 20G<0 256 512 768>
VStem: 0 256<128 1152> 512 256<128 1152>
LayerCount: 2
Fore
SplineSet
0 128 m 1,0,-1
 0 1152 l 1,1,-1
 256 1152 l 1,2,-1
 256 128 l 1,3,-1
 512 128 l 1,4,-1
 512 1152 l 1,5,-1
 768 1152 l 1,6,-1
 768 128 l 1,7,-1
 640 128 l 1,8,-1
 640 0 l 1,9,-1
 128 0 l 1,10,-1
 128 128 l 1,11,-1
 0 128 l 1,0,-1
EndSplineSet
Validated: 3073
EndChar

StartChar: V
Encoding: 86 86 54
Width: 1024
VWidth: 26
Flags: W
HStem: 0 256<256 512> 1132 20G<0 256 512 768>
VStem: 0 256<256 1152> 256 256<0 128> 512 256<256 1152>
LayerCount: 2
Fore
SplineSet
0 256 m 1,0,-1
 0 1152 l 1,1,-1
 256 1152 l 1,2,-1
 256 256 l 1,3,-1
 512 256 l 1,4,-1
 512 1152 l 1,5,-1
 768 1152 l 1,6,-1
 768 256 l 1,7,-1
 640 256 l 1,8,-1
 640 128 l 1,9,-1
 512 128 l 1,10,-1
 512 0 l 1,11,-1
 256 0 l 1,12,-1
 256 128 l 1,13,-1
 128 128 l 1,14,-1
 128 256 l 1,15,-1
 0 256 l 1,0,-1
EndSplineSet
Validated: 3073
EndChar

StartChar: W
Encoding: 87 87 55
Width: 1024
VWidth: 26
Flags: W
HStem: 0 384<256 384 512 640> 384 256<384 512> 1132 20G<0 256 640 896>
VStem: 0 256<384 1152> 128 256<0 384> 384 128<384 640> 512 256<0 384> 640 256<384 1152>
LayerCount: 2
Fore
SplineSet
0 384 m 1,0,-1
 0 1152 l 1,1,-1
 256 1152 l 1,2,-1
 256 384 l 1,3,-1
 384 384 l 1,4,-1
 384 0 l 1,5,-1
 128 0 l 1,6,-1
 128 384 l 1,7,-1
 0 384 l 1,0,-1
512 384 m 1,8,-1
 384 384 l 1,9,-1
 384 640 l 1,10,-1
 512 640 l 1,11,-1
 512 384 l 1,8,-1
512 384 m 1,12,-1
 640 384 l 1,13,-1
 640 1152 l 1,14,-1
 896 1152 l 1,15,-1
 896 384 l 1,16,-1
 768 384 l 1,17,-1
 768 0 l 1,18,-1
 512 0 l 1,19,-1
 512 384 l 1,12,-1
EndSplineSet
Validated: 3077
EndChar

StartChar: X
Encoding: 88 88 56
Width: 1024
VWidth: 26
Flags: W
HStem: 0 384<0 128 640 768> 768 384<0 128 640 768>
VStem: 0 256<0 384 768 1152> 512 256<0 384 768 1152>
LayerCount: 2
Fore
SplineSet
0 768 m 1,0,-1
 0 1152 l 1,1,-1
 256 1152 l 1,2,-1
 256 768 l 1,3,-1
 512 768 l 1,4,-1
 512 1152 l 1,5,-1
 768 1152 l 1,6,-1
 768 768 l 1,7,-1
 640 768 l 1,8,-1
 640 640 l 1,9,-1
 512 640 l 1,10,-1
 512 512 l 1,11,-1
 640 512 l 1,12,-1
 640 384 l 1,13,-1
 768 384 l 1,14,-1
 768 0 l 1,15,-1
 512 0 l 1,16,-1
 512 384 l 1,17,-1
 256 384 l 1,18,-1
 256 0 l 1,19,-1
 0 0 l 1,20,-1
 0 384 l 1,21,-1
 128 384 l 1,22,-1
 128 512 l 1,23,-1
 256 512 l 1,24,-1
 256 640 l 1,25,-1
 128 640 l 1,26,-1
 128 768 l 1,27,-1
 0 768 l 1,0,-1
EndSplineSet
Validated: 3073
EndChar

StartChar: Y
Encoding: 89 89 57
Width: 1024
VWidth: 26
Flags: W
HStem: 0 128<128 256 512 640> 1132 20G<0 256 512 768>
VStem: 0 256<640 1152> 256 256<128 512> 512 256<640 1152>
LayerCount: 2
Fore
SplineSet
0 640 m 1,0,-1
 0 1152 l 1,1,-1
 256 1152 l 1,2,-1
 256 640 l 1,3,-1
 512 640 l 1,4,-1
 512 1152 l 1,5,-1
 768 1152 l 1,6,-1
 768 640 l 1,7,-1
 640 640 l 1,8,-1
 640 512 l 1,9,-1
 512 512 l 1,10,-1
 512 128 l 1,11,-1
 640 128 l 1,12,-1
 640 0 l 1,13,-1
 128 0 l 1,14,-1
 128 128 l 1,15,-1
 256 128 l 1,16,-1
 256 512 l 1,17,-1
 128 512 l 1,18,-1
 128 640 l 1,19,-1
 0 640 l 1,0,-1
EndSplineSet
Validated: 3073
EndChar

StartChar: Z
Encoding: 90 90 58
Width: 1024
VWidth: 26
Flags: W
HStem: 0 256<0 128 640 768> 0 128<256 640> 768 21G<0 128> 896 256<128 256 640 896> 1024 128<256 512>
VStem: 0 256<128 256 896 1024> 0 128<768 896> 128 256<256 512> 256 256<512 640> 384 256<640 896> 640 256<128 256> 768 128<256 384>
LayerCount: 2
Fore
SplineSet
0 768 m 1,0,-1
 0 1152 l 1,1,-1
 896 1152 l 1,2,-1
 896 896 l 1,3,-1
 640 896 l 1,4,-1
 640 640 l 1,5,-1
 512 640 l 1,6,-1
 512 512 l 1,7,-1
 384 512 l 1,8,-1
 384 256 l 1,9,-1
 256 256 l 1,10,-1
 256 128 l 1,11,-1
 640 128 l 1,12,-1
 640 256 l 1,13,-1
 768 256 l 1,14,-1
 768 384 l 1,15,-1
 896 384 l 1,16,-1
 896 0 l 1,17,-1
 0 0 l 1,18,-1
 0 256 l 1,19,-1
 128 256 l 1,20,-1
 128 512 l 1,21,-1
 256 512 l 1,22,-1
 256 640 l 1,23,-1
 384 640 l 1,24,-1
 384 896 l 1,25,-1
 512 896 l 1,26,-1
 512 1024 l 1,27,-1
 256 1024 l 1,28,-1
 256 896 l 1,29,-1
 128 896 l 1,30,-1
 128 768 l 1,31,-1
 0 768 l 1,0,-1
EndSplineSet
Validated: 3073
EndChar

StartChar: bracketleft
Encoding: 91 91 59
Width: 1024
VWidth: 26
Flags: W
HStem: 0 128<512 768> 1024 128<512 768>
VStem: 256 256<128 1024>
LayerCount: 2
Fore
SplineSet
256 0 m 1,0,-1
 256 1152 l 1,1,-1
 768 1152 l 1,2,-1
 768 1024 l 1,3,-1
 512 1024 l 1,4,-1
 512 128 l 1,5,-1
 768 128 l 1,6,-1
 768 0 l 1,7,-1
 256 0 l 1,0,-1
EndSplineSet
Validated: 3073
EndChar

StartChar: backslash
Encoding: 92 92 60
Width: 1024
VWidth: 26
Flags: W
HStem: 0 256<768 896> 128 256<640 768> 256 256<512 640> 384 256<384 512> 512 256<256 384> 640 256<128 256> 768 256<0 128>
VStem: 0 256<768 896> 0 128<896 1024> 128 256<640 768> 256 256<512 640> 384 256<384 512> 512 256<256 384> 640 256<128 256> 768 128<0 128>
LayerCount: 2
Fore
SplineSet
0 768 m 1,0,-1
 0 1024 l 1,1,-1
 128 1024 l 1,2,-1
 128 896 l 1,3,-1
 256 896 l 1,4,-1
 256 768 l 1,5,-1
 384 768 l 1,6,-1
 384 640 l 1,7,-1
 512 640 l 1,8,-1
 512 512 l 1,9,-1
 640 512 l 1,10,-1
 640 384 l 1,11,-1
 768 384 l 1,12,-1
 768 256 l 1,13,-1
 896 256 l 1,14,-1
 896 0 l 1,15,-1
 768 0 l 1,16,-1
 768 128 l 1,17,-1
 640 128 l 1,18,-1
 640 256 l 1,19,-1
 512 256 l 1,20,-1
 512 384 l 1,21,-1
 384 384 l 1,22,-1
 384 512 l 1,23,-1
 256 512 l 1,24,-1
 256 640 l 1,25,-1
 128 640 l 1,26,-1
 128 768 l 1,27,-1
 0 768 l 1,0,-1
EndSplineSet
Validated: 3073
EndChar

StartChar: bracketright
Encoding: 93 93 61
Width: 1024
VWidth: 26
Flags: W
HStem: 0 128<256 512> 1024 128<256 512>
VStem: 512 256<128 1024>
LayerCount: 2
Fore
SplineSet
256 1024 m 1,0,-1
 256 1152 l 1,1,-1
 768 1152 l 1,2,-1
 768 0 l 1,3,-1
 256 0 l 1,4,-1
 256 128 l 1,5,-1
 512 128 l 1,6,-1
 512 1024 l 1,7,-1
 256 1024 l 1,0,-1
EndSplineSet
Validated: 3073
EndChar

StartChar: asciicircum
Encoding: 94 94 62
Width: 1024
VWidth: 26
Flags: W
HStem: 768 256<128 256 640 768> 768 128<0 128 768 896> 896 256<256 384 512 640> 1024 256<384 512>
VStem: 0 256<768 896> 128 256<896 1024> 384 128<1152 1280> 512 256<896 1024> 640 256<768 896>
LayerCount: 2
Fore
SplineSet
384 1152 m 1,0,-1
 384 1280 l 1,1,-1
 512 1280 l 1,2,-1
 512 1152 l 1,3,-1
 640 1152 l 1,4,-1
 640 1024 l 1,5,-1
 768 1024 l 1,6,-1
 768 896 l 1,7,-1
 896 896 l 1,8,-1
 896 768 l 1,9,-1
 640 768 l 1,10,-1
 640 896 l 1,11,-1
 512 896 l 1,12,-1
 512 1024 l 1,13,-1
 384 1024 l 1,14,-1
 384 896 l 1,15,-1
 256 896 l 1,16,-1
 256 768 l 1,17,-1
 0 768 l 1,18,-1
 0 896 l 1,19,-1
 128 896 l 1,20,-1
 128 1024 l 1,21,-1
 256 1024 l 1,22,-1
 256 1152 l 1,23,-1
 384 1152 l 1,0,-1
EndSplineSet
Validated: 3073
EndChar

StartChar: underscore
Encoding: 95 95 63
Width: 1024
VWidth: 26
Flags: W
HStem: -128 128<0 1024>
LayerCount: 2
Fore
SplineSet
0 -128 m 1,0,-1
 0 0 l 1,1,-1
 1024 0 l 1,2,-1
 1024 -128 l 1,3,-1
 0 -128 l 1,0,-1
EndSplineSet
Validated: 3073
EndChar

StartChar: grave
Encoding: 96 96 64
Width: 1024
VWidth: 26
Flags: W
HStem: 896 128<512 640> 1024 256<256 384>
VStem: 256 256<1024 1280> 384 256<896 1024>
LayerCount: 2
Fore
SplineSet
256 1024 m 1,0,-1
 256 1280 l 1,1,-1
 512 1280 l 1,2,-1
 512 1024 l 1,3,-1
 640 1024 l 1,4,-1
 640 896 l 1,5,-1
 384 896 l 1,6,-1
 384 1024 l 1,7,-1
 256 1024 l 1,0,-1
EndSplineSet
Validated: 3073
EndChar

StartChar: a
Encoding: 97 97 65
Width: 1024
VWidth: 26
Flags: W
HStem: 0 128<256 512 768 896> 128 256<0 128> 384 128<256 512> 640 128<128 512>
VStem: 0 256<128 384> 512 256<128 384 512 640> 640 256<0 128>
LayerCount: 2
Fore
SplineSet
128 640 m 1,0,-1
 128 768 l 1,1,-1
 640 768 l 1,2,-1
 640 640 l 1,3,-1
 768 640 l 1,4,-1
 768 128 l 1,5,-1
 896 128 l 1,6,-1
 896 0 l 1,7,-1
 640 0 l 1,8,-1
 640 128 l 1,9,-1
 512 128 l 1,10,-1
 512 384 l 1,11,-1
 256 384 l 1,12,-1
 256 128 l 1,13,-1
 512 128 l 1,14,-1
 512 0 l 1,15,-1
 128 0 l 1,16,-1
 128 128 l 1,17,-1
 0 128 l 1,18,-1
 0 384 l 1,19,-1
 128 384 l 1,20,-1
 128 512 l 1,21,-1
 512 512 l 1,22,-1
 512 640 l 1,23,-1
 128 640 l 1,0,-1
EndSplineSet
Validated: 3077
EndChar

StartChar: b
Encoding: 98 98 66
Width: 1024
VWidth: 26
Flags: W
HStem: 0 128<0 128 384 640> 640 128<384 640> 1024 128<0 128>
VStem: 0 256<0 128> 128 256<128 640 768 1024> 640 256<128 640>
LayerCount: 2
Fore
SplineSet
640 128 m 1,0,-1
 640 640 l 1,1,-1
 384 640 l 1,2,-1
 384 128 l 1,3,-1
 640 128 l 1,0,-1
0 1024 m 1,4,-1
 0 1152 l 1,5,-1
 384 1152 l 1,6,-1
 384 768 l 1,7,-1
 768 768 l 1,8,-1
 768 640 l 1,9,-1
 896 640 l 1,10,-1
 896 128 l 1,11,-1
 768 128 l 1,12,-1
 768 0 l 1,13,-1
 384 0 l 1,14,-1
 384 128 l 1,15,-1
 256 128 l 1,16,-1
 256 0 l 1,17,-1
 0 0 l 1,18,-1
 0 128 l 1,19,-1
 128 128 l 1,20,-1
 128 1024 l 1,21,-1
 0 1024 l 1,4,-1
EndSplineSet
Validated: 3077
EndChar

StartChar: c
Encoding: 99 99 67
Width: 1024
VWidth: 26
Flags: W
HStem: 0 128<256 512> 128 128<640 768> 512 128<640 768> 640 128<256 512>
VStem: 0 256<128 640> 512 256<128 256 512 640>
LayerCount: 2
Fore
SplineSet
128 640 m 1,0,-1
 128 768 l 1,1,-1
 640 768 l 1,2,-1
 640 640 l 1,3,-1
 768 640 l 1,4,-1
 768 512 l 1,5,-1
 512 512 l 1,6,-1
 512 640 l 1,7,-1
 256 640 l 1,8,-1
 256 128 l 1,9,-1
 512 128 l 1,10,-1
 512 256 l 1,11,-1
 768 256 l 1,12,-1
 768 128 l 1,13,-1
 640 128 l 1,14,-1
 640 0 l 1,15,-1
 128 0 l 1,16,-1
 128 128 l 1,17,-1
 0 128 l 1,18,-1
 0 640 l 1,19,-1
 128 640 l 1,0,-1
EndSplineSet
Validated: 3073
EndChar

StartChar: d
Encoding: 100 100 68
Width: 1024
VWidth: 26
Flags: W
HStem: 0 128<256 512 768 896> 640 128<256 512> 1024 128<384 512>
VStem: 0 256<128 640> 512 256<128 640 768 1024> 640 256<0 128>
LayerCount: 2
Fore
SplineSet
384 1024 m 1,0,-1
 384 1152 l 1,1,-1
 768 1152 l 1,2,-1
 768 128 l 1,3,-1
 896 128 l 1,4,-1
 896 0 l 1,5,-1
 640 0 l 1,6,-1
 640 128 l 1,7,-1
 512 128 l 1,8,-1
 512 640 l 1,9,-1
 256 640 l 1,10,-1
 256 128 l 1,11,-1
 512 128 l 1,12,-1
 512 0 l 1,13,-1
 128 0 l 1,14,-1
 128 128 l 1,15,-1
 0 128 l 1,16,-1
 0 640 l 1,17,-1
 128 640 l 1,18,-1
 128 768 l 1,19,-1
 512 768 l 1,20,-1
 512 1024 l 1,21,-1
 384 1024 l 1,0,-1
EndSplineSet
Validated: 3077
EndChar

StartChar: e
Encoding: 101 101 69
Width: 1024
VWidth: 26
Flags: W
HStem: 0 128<256 512> 128 128<640 768> 384 256<640 768> 384 128<256 512> 640 128<256 512>
VStem: 0 256<128 384 512 640> 512 256<128 256 512 640>
LayerCount: 2
Fore
SplineSet
512 512 m 1,0,-1
 512 640 l 1,1,-1
 256 640 l 1,2,-1
 256 512 l 1,3,-1
 512 512 l 1,0,-1
128 640 m 1,4,-1
 128 768 l 1,5,-1
 640 768 l 1,6,-1
 640 640 l 1,7,-1
 768 640 l 1,8,-1
 768 384 l 1,9,-1
 256 384 l 1,10,-1
 256 128 l 1,11,-1
 512 128 l 1,12,-1
 512 256 l 1,13,-1
 768 256 l 1,14,-1
 768 128 l 1,15,-1
 640 128 l 1,16,-1
 640 0 l 1,17,-1
 128 0 l 1,18,-1
 128 128 l 1,19,-1
 0 128 l 1,20,-1
 0 640 l 5,21,-1
 128 640 l 1,4,-1
EndSplineSet
Validated: 3073
EndChar

StartChar: f
Encoding: 102 102 70
Width: 1024
VWidth: 26
Flags: W
HStem: 0 128<0 128 384 512> 512 128<0 128 384 640> 896 128<640 768> 1024 128<384 512>
VStem: 128 256<128 512 640 1024> 512 256<896 1024>
LayerCount: 2
Fore
SplineSet
256 1024 m 1,0,-1
 256 1152 l 1,1,-1
 640 1152 l 1,2,-1
 640 1024 l 1,3,-1
 768 1024 l 1,4,-1
 768 896 l 1,5,-1
 512 896 l 1,6,-1
 512 1024 l 1,7,-1
 384 1024 l 1,8,-1
 384 640 l 1,9,-1
 640 640 l 1,10,-1
 640 512 l 1,11,-1
 384 512 l 1,12,-1
 384 128 l 1,13,-1
 512 128 l 1,14,-1
 512 0 l 1,15,-1
 0 0 l 1,16,-1
 0 128 l 1,17,-1
 128 128 l 1,18,-1
 128 512 l 1,19,-1
 0 512 l 1,20,-1
 0 640 l 1,21,-1
 128 640 l 1,22,-1
 128 1024 l 1,23,-1
 256 1024 l 1,0,-1
EndSplineSet
Validated: 3073
EndChar

StartChar: g
Encoding: 103 103 71
Width: 1024
VWidth: 26
Flags: W
HStem: -256 128<256 512> -128 128<0 128> 128 128<256 512> 640 128<256 512 768 896>
VStem: 0 256<-128 0 256 640> 512 256<-128 128 256 640> 640 256<640 768>
LayerCount: 2
Fore
SplineSet
128 640 m 1,0,-1
 128 768 l 1,1,-1
 512 768 l 1,2,-1
 512 640 l 1,3,-1
 256 640 l 1,4,-1
 256 256 l 1,5,-1
 512 256 l 1,6,-1
 512 640 l 1,7,-1
 640 640 l 1,8,-1
 640 768 l 1,9,-1
 896 768 l 1,10,-1
 896 640 l 1,11,-1
 768 640 l 1,12,-1
 768 -128 l 1,13,-1
 640 -128 l 1,14,-1
 640 -256 l 1,15,-1
 128 -256 l 1,16,-1
 128 -128 l 1,17,-1
 0 -128 l 1,18,-1
 0 0 l 1,19,-1
 256 0 l 1,20,-1
 256 -128 l 1,21,-1
 512 -128 l 1,22,-1
 512 128 l 1,23,-1
 128 128 l 1,24,-1
 128 256 l 1,25,-1
 0 256 l 1,26,-1
 0 640 l 1,27,-1
 128 640 l 1,0,-1
EndSplineSet
Validated: 3077
EndChar

StartChar: h
Encoding: 104 104 72
Width: 1024
VWidth: 26
Flags: W
HStem: 0 128<0 128> 512 128<384 512> 640 128<512 640> 1024 128<0 128>
VStem: 0 384<0 128 1024 1152> 128 256<128 512 640 1024> 512 256<640 768> 640 256<0 640>
LayerCount: 2
Fore
SplineSet
0 1024 m 1,0,-1
 0 1152 l 1,1,-1
 384 1152 l 1,2,-1
 384 640 l 1,3,-1
 512 640 l 1,4,-1
 512 512 l 1,5,-1
 384 512 l 1,6,-1
 384 0 l 1,7,-1
 0 0 l 1,8,-1
 0 128 l 1,9,-1
 128 128 l 1,10,-1
 128 1024 l 1,11,-1
 0 1024 l 1,0,-1
512 640 m 1,12,-1
 512 768 l 1,13,-1
 768 768 l 1,14,-1
 768 640 l 1,15,-1
 896 640 l 1,16,-1
 896 0 l 1,17,-1
 640 0 l 1,18,-1
 640 640 l 1,19,-1
 512 640 l 1,12,-1
EndSplineSet
Validated: 3077
EndChar

StartChar: i
Encoding: 105 105 73
Width: 1024
VWidth: 26
Flags: W
HStem: 0 128<128 384 640 896> 640 128<128 384> 896 256<384 640>
VStem: 384 256<128 640 896 1152>
LayerCount: 2
Fore
SplineSet
384 896 m 1,0,-1
 384 1152 l 1,1,-1
 640 1152 l 1,2,-1
 640 896 l 1,3,-1
 384 896 l 1,0,-1
128 640 m 1,4,-1
 128 768 l 1,5,-1
 640 768 l 1,6,-1
 640 128 l 1,7,-1
 896 128 l 1,8,-1
 896 0 l 1,9,-1
 128 0 l 1,10,-1
 128 128 l 1,11,-1
 384 128 l 1,12,-1
 384 640 l 1,13,-1
 128 640 l 1,4,-1
EndSplineSet
Validated: 3073
EndChar

StartChar: j
Encoding: 106 106 74
Width: 1024
VWidth: 26
Flags: W
HStem: -256 128<256 512> -128 256<0 128> 640 128<256 512> 896 256<512 768>
VStem: 0 256<-128 128> 512 256<-128 640 896 1152>
LayerCount: 2
Fore
SplineSet
512 896 m 1,0,-1
 512 1152 l 1,1,-1
 768 1152 l 1,2,-1
 768 896 l 1,3,-1
 512 896 l 1,0,-1
256 640 m 1,4,-1
 256 768 l 1,5,-1
 768 768 l 1,6,-1
 768 -128 l 1,7,-1
 640 -128 l 1,8,-1
 640 -256 l 1,9,-1
 128 -256 l 1,10,-1
 128 -128 l 1,11,-1
 0 -128 l 1,12,-1
 0 128 l 1,13,-1
 256 128 l 1,14,-1
 256 -128 l 1,15,-1
 512 -128 l 1,16,-1
 512 640 l 1,17,-1
 256 640 l 1,4,-1
EndSplineSet
Validated: 3073
EndChar

StartChar: k
Encoding: 107 107 75
Width: 1024
VWidth: 26
Flags: W
HStem: 0 256<768 896> 0 128<0 128> 384 128<384 512> 512 256<640 768> 640 128<768 896> 1024 128<0 128>
VStem: 0 384<0 128 1024 1152> 128 256<128 384 512 1024> 512 256<256 384 512 640> 640 256<0 256 640 768>
LayerCount: 2
Fore
SplineSet
0 1024 m 1,0,-1
 0 1152 l 1,1,-1
 384 1152 l 1,2,-1
 384 512 l 1,3,-1
 512 512 l 1,4,-1
 512 640 l 1,5,-1
 640 640 l 1,6,-1
 640 768 l 1,7,-1
 896 768 l 1,8,-1
 896 640 l 1,9,-1
 768 640 l 1,10,-1
 768 512 l 1,11,-1
 640 512 l 1,12,-1
 640 384 l 1,13,-1
 768 384 l 1,14,-1
 768 256 l 1,15,-1
 896 256 l 1,16,-1
 896 0 l 1,17,-1
 640 0 l 1,18,-1
 640 256 l 1,19,-1
 512 256 l 1,20,-1
 512 384 l 1,21,-1
 384 384 l 1,22,-1
 384 0 l 1,23,-1
 0 0 l 1,24,-1
 0 128 l 1,25,-1
 128 128 l 1,26,-1
 128 1024 l 1,27,-1
 0 1024 l 1,0,-1
EndSplineSet
Validated: 3073
EndChar

StartChar: l
Encoding: 108 108 76
Width: 1024
VWidth: 26
Flags: W
HStem: 0 128<128 384 640 896> 1024 128<128 384>
VStem: 384 256<128 1024>
LayerCount: 2
Fore
SplineSet
128 1024 m 1,0,-1
 128 1152 l 1,1,-1
 640 1152 l 1,2,-1
 640 128 l 1,3,-1
 896 128 l 1,4,-1
 896 0 l 1,5,-1
 128 0 l 1,6,-1
 128 128 l 1,7,-1
 384 128 l 1,8,-1
 384 1024 l 1,9,-1
 128 1024 l 1,0,-1
EndSplineSet
Validated: 3073
EndChar

StartChar: m
Encoding: 109 109 77
Width: 1024
VWidth: 26
Flags: W
HStem: 0 21G<0 256 640 896> 640 128<256 384 512 640>
VStem: 0 256<0 640> 384 128<128 640> 640 256<0 640>
CounterMasks: 1 38
LayerCount: 2
Fore
SplineSet
0 0 m 1,0,-1
 0 768 l 1,1,-1
 768 768 l 1,2,-1
 768 640 l 1,3,-1
 896 640 l 1,4,-1
 896 0 l 1,5,-1
 640 0 l 1,6,-1
 640 640 l 1,7,-1
 512 640 l 1,8,-1
 512 128 l 1,9,-1
 384 128 l 1,10,-1
 384 640 l 1,11,-1
 256 640 l 1,12,-1
 256 0 l 1,13,-1
 0 0 l 1,0,-1
EndSplineSet
Validated: 3073
EndChar

StartChar: n
Encoding: 110 110 78
Width: 1024
VWidth: 26
Flags: W
HStem: 0 21G<0 256 512 768> 640 128<256 512>
VStem: 0 256<0 640> 512 256<0 640>
LayerCount: 2
Fore
SplineSet
0 0 m 1,0,-1
 0 768 l 1,1,-1
 640 768 l 1,2,-1
 640 640 l 1,3,-1
 768 640 l 1,4,-1
 768 0 l 1,5,-1
 512 0 l 1,6,-1
 512 640 l 1,7,-1
 256 640 l 1,8,-1
 256 0 l 1,9,-1
 0 0 l 1,0,-1
EndSplineSet
Validated: 3073
EndChar

StartChar: o
Encoding: 111 111 79
Width: 1024
VWidth: 26
Flags: W
HStem: 0 128<256 512> 640 128<256 512>
VStem: 0 256<128 640> 512 256<128 640>
LayerCount: 2
Fore
SplineSet
512 128 m 1,0,-1
 512 640 l 1,1,-1
 256 640 l 1,2,-1
 256 128 l 1,3,-1
 512 128 l 1,0,-1
128 640 m 1,4,-1
 128 768 l 1,5,-1
 640 768 l 1,6,-1
 640 640 l 1,7,-1
 768 640 l 1,8,-1
 768 128 l 1,9,-1
 640 128 l 1,10,-1
 640 0 l 1,11,-1
 128 0 l 1,12,-1
 128 128 l 1,13,-1
 0 128 l 1,14,-1
 0 640 l 1,15,-1
 128 640 l 1,4,-1
EndSplineSet
Validated: 3073
EndChar

StartChar: p
Encoding: 112 112 80
Width: 1024
VWidth: 26
Flags: W
HStem: -256 128<0 128 384 512> 0 128<384 640> 640 128<0 128 384 640>
VStem: 0 256<640 768> 128 256<-128 0 128 640> 640 256<128 640>
LayerCount: 2
Fore
SplineSet
640 128 m 1,0,-1
 640 640 l 1,1,-1
 384 640 l 1,2,-1
 384 128 l 1,3,-1
 640 128 l 1,0,-1
0 640 m 1,4,-1
 0 768 l 1,5,-1
 256 768 l 1,6,-1
 256 640 l 1,7,-1
 384 640 l 1,8,-1
 384 768 l 1,9,-1
 768 768 l 1,10,-1
 768 640 l 1,11,-1
 896 640 l 1,12,-1
 896 128 l 1,13,-1
 768 128 l 1,14,-1
 768 0 l 1,15,-1
 384 0 l 1,16,-1
 384 -128 l 1,17,-1
 512 -128 l 1,18,-1
 512 -256 l 1,19,-1
 0 -256 l 1,20,-1
 0 -128 l 1,21,-1
 128 -128 l 1,22,-1
 128 640 l 1,23,-1
 0 640 l 1,4,-1
EndSplineSet
Validated: 3077
EndChar

StartChar: q
Encoding: 113 113 81
Width: 1024
VWidth: 26
Flags: W
HStem: -256 128<384 512 768 896> 0 128<256 512> 640 128<256 512 768 896>
VStem: 0 256<128 640> 512 256<-128 0 128 640> 640 256<640 768>
LayerCount: 2
Fore
SplineSet
128 640 m 1,0,-1
 128 768 l 1,1,-1
 512 768 l 1,2,-1
 512 640 l 1,3,-1
 256 640 l 1,4,-1
 256 128 l 1,5,-1
 512 128 l 1,6,-1
 512 640 l 1,7,-1
 640 640 l 1,8,-1
 640 768 l 1,9,-1
 896 768 l 1,10,-1
 896 640 l 1,11,-1
 768 640 l 1,12,-1
 768 -128 l 1,13,-1
 896 -128 l 1,14,-1
 896 -256 l 1,15,-1
 384 -256 l 1,16,-1
 384 -128 l 1,17,-1
 512 -128 l 1,18,-1
 512 0 l 1,19,-1
 128 0 l 1,20,-1
 128 128 l 1,21,-1
 0 128 l 1,22,-1
 0 640 l 1,23,-1
 128 640 l 1,0,-1
EndSplineSet
Validated: 3077
EndChar

StartChar: r
Encoding: 114 114 82
Width: 1024
VWidth: 26
Flags: W
HStem: 0 128<0 128 384 512> 384 256<768 896> 384 128<384 512> 512 256<512 640> 640 128<0 128>
VStem: 128 256<128 384 512 640> 512 256<640 768> 640 256<384 512>
LayerCount: 2
Fore
SplineSet
0 640 m 1,0,-1
 0 768 l 1,1,-1
 384 768 l 1,2,-1
 384 512 l 1,3,-1
 512 512 l 1,4,-1
 512 384 l 1,5,-1
 384 384 l 1,6,-1
 384 128 l 1,7,-1
 512 128 l 1,8,-1
 512 0 l 1,9,-1
 0 0 l 1,10,-1
 0 128 l 1,11,-1
 128 128 l 1,12,-1
 128 640 l 1,13,-1
 0 640 l 1,0,-1
512 512 m 1,14,-1
 512 768 l 1,15,-1
 768 768 l 1,16,-1
 768 640 l 1,17,-1
 896 640 l 1,18,-1
 896 384 l 1,19,-1
 640 384 l 1,20,-1
 640 512 l 1,21,-1
 512 512 l 1,14,-1
EndSplineSet
Validated: 3077
EndChar

StartChar: s
Encoding: 115 115 83
Width: 1024
VWidth: 26
Flags: W
HStem: 0 128<256 512> 128 128<0 128 640 768> 256 128<384 512> 384 128<256 384> 512 128<0 128 640 768> 640 128<256 512>
VStem: 0 256<128 256 512 640> 128 256<384 512> 384 256<256 384> 512 256<128 256 512 640>
LayerCount: 2
Fore
SplineSet
128 640 m 1,0,-1
 128 768 l 1,1,-1
 640 768 l 1,2,-1
 640 640 l 1,3,-1
 768 640 l 1,4,-1
 768 512 l 1,5,-1
 512 512 l 1,6,-1
 512 640 l 1,7,-1
 256 640 l 1,8,-1
 256 512 l 1,9,-1
 384 512 l 1,10,-1
 384 384 l 1,11,-1
 128 384 l 1,12,-1
 128 512 l 1,13,-1
 0 512 l 1,14,-1
 0 640 l 1,15,-1
 128 640 l 1,0,-1
384 384 m 1,16,-1
 640 384 l 1,17,-1
 640 256 l 1,18,-1
 768 256 l 1,19,-1
 768 128 l 1,20,-1
 640 128 l 1,21,-1
 640 0 l 1,22,-1
 128 0 l 1,23,-1
 128 128 l 1,24,-1
 0 128 l 1,25,-1
 0 256 l 1,26,-1
 256 256 l 1,27,-1
 256 128 l 1,28,-1
 512 128 l 1,29,-1
 512 256 l 1,30,-1
 384 256 l 1,31,-1
 384 384 l 1,16,-1
EndSplineSet
Validated: 3077
EndChar

StartChar: t
Encoding: 116 116 84
Width: 1024
VWidth: 26
Flags: W
HStem: 0 128<384 512> 128 128<640 768> 640 128<0 128 384 768>
VStem: 128 256<128 640 768 896> 256 128<896 1024> 512 256<128 256>
LayerCount: 2
Fore
SplineSet
256 896 m 1,0,-1
 256 1024 l 1,1,-1
 384 1024 l 1,2,-1
 384 768 l 1,3,-1
 768 768 l 1,4,-1
 768 640 l 1,5,-1
 384 640 l 1,6,-1
 384 128 l 1,7,-1
 512 128 l 1,8,-1
 512 256 l 1,9,-1
 768 256 l 1,10,-1
 768 128 l 1,11,-1
 640 128 l 1,12,-1
 640 0 l 1,13,-1
 256 0 l 1,14,-1
 256 128 l 1,15,-1
 128 128 l 1,16,-1
 128 640 l 1,17,-1
 0 640 l 1,18,-1
 0 768 l 1,19,-1
 128 768 l 1,20,-1
 128 896 l 1,21,-1
 256 896 l 1,0,-1
EndSplineSet
Validated: 3073
EndChar

StartChar: u
Encoding: 117 117 85
Width: 1024
VWidth: 26
Flags: W
HStem: 0 128<256 512 768 896> 748 20G<0 256 512 768>
VStem: 0 256<128 768> 512 256<128 768> 640 256<0 128>
LayerCount: 2
Fore
SplineSet
0 128 m 1,0,-1
 0 768 l 1,1,-1
 256 768 l 1,2,-1
 256 128 l 1,3,-1
 512 128 l 1,4,-1
 512 0 l 1,5,-1
 128 0 l 1,6,-1
 128 128 l 1,7,-1
 0 128 l 1,0,-1
512 128 m 1,8,-1
 512 768 l 1,9,-1
 768 768 l 1,10,-1
 768 128 l 1,11,-1
 896 128 l 1,12,-1
 896 0 l 1,13,-1
 640 0 l 1,14,-1
 640 128 l 1,15,-1
 512 128 l 1,8,-1
EndSplineSet
Validated: 3077
EndChar

StartChar: v
Encoding: 118 118 86
Width: 1024
VWidth: 26
Flags: W
HStem: 0 256<256 512> 748 20G<0 256 512 768>
VStem: 0 256<256 768> 256 256<0 128> 512 256<256 768>
LayerCount: 2
Fore
SplineSet
0 256 m 1,0,-1
 0 768 l 1,1,-1
 256 768 l 1,2,-1
 256 256 l 1,3,-1
 512 256 l 1,4,-1
 512 768 l 1,5,-1
 768 768 l 1,6,-1
 768 256 l 1,7,-1
 640 256 l 1,8,-1
 640 128 l 1,9,-1
 512 128 l 1,10,-1
 512 0 l 1,11,-1
 256 0 l 1,12,-1
 256 128 l 1,13,-1
 128 128 l 1,14,-1
 128 256 l 1,15,-1
 0 256 l 1,0,-1
EndSplineSet
Validated: 3073
EndChar

StartChar: w
Encoding: 119 119 87
Width: 1024
VWidth: 26
Flags: W
HStem: 0 256<256 384 512 640> 256 256<384 512> 748 20G<0 256 640 896>
VStem: 0 256<256 768> 128 256<0 256> 384 128<256 512> 512 256<0 256> 640 256<256 768>
LayerCount: 2
Fore
SplineSet
0 256 m 1,0,-1
 0 768 l 1,1,-1
 256 768 l 1,2,-1
 256 256 l 1,3,-1
 384 256 l 1,4,-1
 384 0 l 1,5,-1
 128 0 l 1,6,-1
 128 256 l 1,7,-1
 0 256 l 1,0,-1
512 256 m 1,8,-1
 384 256 l 1,9,-1
 384 512 l 1,10,-1
 512 512 l 1,11,-1
 512 256 l 1,8,-1
512 256 m 1,12,-1
 640 256 l 1,13,-1
 640 768 l 1,14,-1
 896 768 l 1,15,-1
 896 256 l 1,16,-1
 768 256 l 1,17,-1
 768 0 l 1,18,-1
 512 0 l 1,19,-1
 512 256 l 1,12,-1
EndSplineSet
Validated: 3077
EndChar

StartChar: x
Encoding: 120 120 88
Width: 1024
VWidth: 26
Flags: W
HStem: 0 256<128 256 640 768> 0 128<0 128 768 896> 512 256<128 256 640 768> 640 128<0 128 768 896>
VStem: 0 256<0 128 640 768> 128 256<128 256 512 640> 512 256<128 256 512 640> 640 256<0 128 640 768>
LayerCount: 2
Fore
SplineSet
0 640 m 1,0,-1
 0 768 l 1,1,-1
 256 768 l 1,2,-1
 256 640 l 1,3,-1
 384 640 l 1,4,-1
 384 512 l 1,5,-1
 512 512 l 1,6,-1
 512 640 l 1,7,-1
 640 640 l 1,8,-1
 640 768 l 1,9,-1
 896 768 l 1,10,-1
 896 640 l 1,11,-1
 768 640 l 1,12,-1
 768 512 l 1,13,-1
 640 512 l 1,14,-1
 640 256 l 1,15,-1
 768 256 l 1,16,-1
 768 128 l 1,17,-1
 896 128 l 1,18,-1
 896 0 l 1,19,-1
 640 0 l 1,20,-1
 640 128 l 1,21,-1
 512 128 l 1,22,-1
 512 256 l 1,23,-1
 384 256 l 1,24,-1
 384 128 l 1,25,-1
 256 128 l 1,26,-1
 256 0 l 1,27,-1
 0 0 l 1,28,-1
 0 128 l 1,29,-1
 128 128 l 1,30,-1
 128 256 l 1,31,-1
 256 256 l 1,32,-1
 256 512 l 1,33,-1
 128 512 l 1,34,-1
 128 640 l 1,35,-1
 0 640 l 1,0,-1
EndSplineSet
Validated: 3073
EndChar

StartChar: y
Encoding: 121 121 89
Width: 1024
VWidth: 26
Flags: W
HStem: -256 256<384 512> -256 128<0 384> 128 128<384 512> 748 20G<128 384 640 896>
VStem: 128 256<256 768> 384 256<-128 0> 512 256<0 128> 640 256<256 768>
LayerCount: 2
Fore
SplineSet
128 256 m 1,0,-1
 128 768 l 1,1,-1
 384 768 l 1,2,-1
 384 256 l 1,3,-1
 640 256 l 1,4,-1
 640 768 l 1,5,-1
 896 768 l 1,6,-1
 896 256 l 1,7,-1
 768 256 l 1,8,-1
 768 0 l 1,9,-1
 640 0 l 1,10,-1
 640 -128 l 1,11,-1
 512 -128 l 1,12,-1
 512 -256 l 1,13,-1
 0 -256 l 1,14,-1
 0 -128 l 1,15,-1
 384 -128 l 1,16,-1
 384 0 l 1,17,-1
 512 0 l 1,18,-1
 512 128 l 1,19,-1
 256 128 l 1,20,-1
 256 256 l 1,21,-1
 128 256 l 1,0,-1
EndSplineSet
Validated: 3073
EndChar

StartChar: z
Encoding: 122 122 90
Width: 1024
VWidth: 26
Flags: W
HStem: 0 256<0 128 640 768> 0 128<256 640> 256 128<256 384> 384 128<384 512> 512 256<0 128 640 768> 640 128<128 512>
VStem: 0 256<128 256> 0 128<512 640> 128 256<256 384> 384 256<384 512> 512 256<512 640> 640 128<128 256>
LayerCount: 2
Fore
SplineSet
0 512 m 1,0,-1
 0 768 l 1,1,-1
 768 768 l 1,2,-1
 768 512 l 1,3,-1
 640 512 l 1,4,-1
 640 384 l 1,5,-1
 384 384 l 1,6,-1
 384 512 l 1,7,-1
 512 512 l 1,8,-1
 512 640 l 1,9,-1
 128 640 l 1,10,-1
 128 512 l 1,11,-1
 0 512 l 1,0,-1
384 384 m 1,12,-1
 384 256 l 1,13,-1
 256 256 l 1,14,-1
 256 128 l 1,15,-1
 640 128 l 1,16,-1
 640 256 l 1,17,-1
 768 256 l 1,18,-1
 768 0 l 1,19,-1
 0 0 l 1,20,-1
 0 256 l 1,21,-1
 128 256 l 1,22,-1
 128 384 l 1,23,-1
 384 384 l 1,12,-1
EndSplineSet
Validated: 3077
EndChar

StartChar: braceleft
Encoding: 123 123 91
Width: 1024
VWidth: 26
Flags: W
HStem: 0 128<512 768> 512 128<0 128> 1024 128<512 768>
VStem: 0 256<512 640> 128 256<384 512 640 768> 256 256<128 384 768 1024> 384 384<0 128 1024 1152>
CounterMasks: 1 e0
LayerCount: 2
Fore
SplineSet
384 1024 m 1,0,-1
 384 1152 l 1,1,-1
 768 1152 l 1,2,-1
 768 1024 l 1,3,-1
 512 1024 l 1,4,-1
 512 768 l 1,5,-1
 384 768 l 1,6,-1
 384 640 l 1,7,-1
 256 640 l 1,8,-1
 256 512 l 1,9,-1
 384 512 l 1,10,-1
 384 384 l 1,11,-1
 512 384 l 1,12,-1
 512 128 l 1,13,-1
 768 128 l 1,14,-1
 768 0 l 1,15,-1
 384 0 l 1,16,-1
 384 128 l 1,17,-1
 256 128 l 1,18,-1
 256 384 l 1,19,-1
 128 384 l 1,20,-1
 128 512 l 1,21,-1
 0 512 l 1,22,-1
 0 640 l 1,23,-1
 128 640 l 1,24,-1
 128 768 l 1,25,-1
 256 768 l 1,26,-1
 256 1024 l 1,27,-1
 384 1024 l 1,0,-1
EndSplineSet
Validated: 3073
EndChar

StartChar: bar
Encoding: 124 124 92
Width: 1024
VWidth: 26
Flags: W
HStem: 0 21G<384 640> 1132 20G<384 640>
VStem: 384 256<0 512 640 1152>
LayerCount: 2
Fore
SplineSet
384 640 m 1,0,-1
 384 1152 l 1,1,-1
 640 1152 l 1,2,-1
 640 640 l 1,3,-1
 384 640 l 1,0,-1
384 0 m 1,4,-1
 384 512 l 1,5,-1
 640 512 l 1,6,-1
 640 0 l 1,7,-1
 384 0 l 1,4,-1
EndSplineSet
Validated: 3073
EndChar

StartChar: braceright
Encoding: 125 125 93
Width: 1024
VWidth: 26
Flags: W
HStem: 0 128<0 256> 512 128<640 768> 1024 128<0 256>
VStem: 0 384<0 128 1024 1152> 256 256<128 384 768 1024> 384 256<384 512 640 768> 512 256<512 640>
CounterMasks: 1 e0
LayerCount: 2
Fore
SplineSet
0 1024 m 1,0,-1
 0 1152 l 1,1,-1
 384 1152 l 1,2,-1
 384 1024 l 1,3,-1
 512 1024 l 1,4,-1
 512 768 l 1,5,-1
 640 768 l 1,6,-1
 640 640 l 1,7,-1
 768 640 l 1,8,-1
 768 512 l 1,9,-1
 640 512 l 1,10,-1
 640 384 l 1,11,-1
 512 384 l 1,12,-1
 512 128 l 1,13,-1
 384 128 l 1,14,-1
 384 0 l 1,15,-1
 0 0 l 1,16,-1
 0 128 l 1,17,-1
 256 128 l 1,18,-1
 256 384 l 1,19,-1
 384 384 l 1,20,-1
 384 512 l 1,21,-1
 512 512 l 1,22,-1
 512 640 l 1,23,-1
 384 640 l 1,24,-1
 384 768 l 1,25,-1
 256 768 l 1,26,-1
 256 1024 l 1,27,-1
 0 1024 l 1,0,-1
EndSplineSet
Validated: 3073
EndChar

StartChar: asciitilde
Encoding: 126 126 94
Width: 1024
VWidth: 26
Flags: W
HStem: 768 256<0 128 512 640> 768 128<640 768> 896 256<384 512> 1024 128<256 384 896 1024>
VStem: 0 256<768 1024> 384 256<896 1024> 768 256<1024 1152> 768 128<896 1024>
LayerCount: 2
Fore
SplineSet
128 1024 m 1,0,-1
 128 1152 l 1,1,-1
 512 1152 l 1,2,-1
 512 1024 l 1,3,-1
 640 1024 l 1,4,-1
 640 896 l 1,5,-1
 768 896 l 1,6,-1
 768 1152 l 1,7,-1
 1024 1152 l 1,8,-1
 1024 1024 l 1,9,-1
 896 1024 l 1,10,-1
 896 768 l 1,11,-1
 512 768 l 1,12,-1
 512 896 l 1,13,-1
 384 896 l 1,14,-1
 384 1024 l 1,15,-1
 256 1024 l 1,16,-1
 256 768 l 1,17,-1
 0 768 l 1,18,-1
 0 1024 l 1,19,-1
 128 1024 l 1,0,-1
EndSplineSet
Validated: 3073
EndChar

StartChar: uni007F
Encoding: 127 127 95
Width: 1024
VWidth: 26
Flags: W
HStem: 128 384<0 128 768 896> 128 128<256 640> 512 256<256 384 512 640> 640 256<384 512>
VStem: 0 256<256 512> 128 256<512 640> 384 128<768 896> 512 256<512 640> 640 256<256 512>
LayerCount: 2
Fore
SplineSet
512 512 m 1,0,-1
 512 640 l 1,1,-1
 384 640 l 1,2,-1
 384 512 l 1,3,-1
 256 512 l 1,4,-1
 256 256 l 1,5,-1
 640 256 l 1,6,-1
 640 512 l 1,7,-1
 512 512 l 1,0,-1
384 768 m 1,8,-1
 384 896 l 1,9,-1
 512 896 l 1,10,-1
 512 768 l 1,11,-1
 640 768 l 1,12,-1
 640 640 l 1,13,-1
 768 640 l 1,14,-1
 768 512 l 1,15,-1
 896 512 l 1,16,-1
 896 128 l 1,17,-1
 0 128 l 1,18,-1
 0 512 l 1,19,-1
 128 512 l 1,20,-1
 128 640 l 1,21,-1
 256 640 l 1,22,-1
 256 768 l 1,23,-1
 384 768 l 1,8,-1
EndSplineSet
Validated: 3073
EndChar

StartChar: Ccedilla
Encoding: 199 199 96
Width: 1024
VWidth: 0
Flags: W
HStem: -256 128<128 256> -128 256<384 512> 128 256<640 768> 768 256<640 768> 1024 128<256 512>
VStem: 0 256<128 1024> 128 256<-256 -128> 256 256<-128 0> 512 256<128 384 768 1024>
LayerCount: 2
Fore
SplineSet
128 1024 m 1,0,-1
 128 1152 l 1,1,-1
 640 1152 l 1,2,-1
 640 1024 l 1,3,-1
 768 1024 l 1,4,-1
 768 768 l 1,5,-1
 512 768 l 1,6,-1
 512 1024 l 1,7,-1
 256 1024 l 1,8,-1
 256 128 l 1,9,-1
 512 128 l 1,10,-1
 512 384 l 1,11,-1
 768 384 l 1,12,-1
 768 128 l 1,13,-1
 640 128 l 1,14,-1
 640 0 l 1,15,-1
 512 0 l 1,16,-1
 512 -128 l 1,17,-1
 384 -128 l 1,18,-1
 384 -256 l 1,19,-1
 128 -256 l 1,20,-1
 128 -128 l 1,21,-1
 256 -128 l 1,22,-1
 256 0 l 1,23,-1
 128 0 l 1,24,-1
 128 128 l 1,25,-1
 0 128 l 1,26,-1
 0 1024 l 1,27,-1
 128 1024 l 1,0,-1
EndSplineSet
Validated: 3073
EndChar

StartChar: udieresis
Encoding: 252 252 97
Width: 1024
VWidth: 0
Flags: W
HStem: 0 128<256 512 768 896> 748 20G<0 256 512 768> 896 256<0 256 512 768>
VStem: 0 256<128 768 896 1152> 512 256<128 768 896 1152> 640 256<0 128>
LayerCount: 2
Fore
SplineSet
0 128 m 1,0,-1
 0 768 l 1,1,-1
 256 768 l 1,2,-1
 256 128 l 1,3,-1
 512 128 l 1,4,-1
 512 768 l 1,5,-1
 768 768 l 1,6,-1
 768 128 l 1,7,-1
 896 128 l 1,8,-1
 896 0 l 1,9,-1
 640 0 l 1,10,-1
 640 128 l 1,11,-1
 512 128 l 1,12,-1
 512 0 l 1,13,-1
 128 0 l 1,14,-1
 128 128 l 1,15,-1
 0 128 l 1,0,-1
512 896 m 1,16,-1
 512 1152 l 1,17,-1
 768 1152 l 1,18,-1
 768 896 l 1,19,-1
 512 896 l 1,16,-1
0 896 m 1,20,-1
 0 1152 l 1,21,-1
 256 1152 l 1,22,-1
 256 896 l 1,23,-1
 0 896 l 1,20,-1
EndSplineSet
Validated: 3077
EndChar

StartChar: eacute
Encoding: 233 233 98
Width: 1024
VWidth: 0
Flags: W
HStem: 0 128<256 512> 128 128<640 768> 384 256<640 768> 384 128<256 512> 640 128<256 512> 896 256<384 512> 896 128<256 384> 1024 256<512 640> 1152 128<640 768>
VStem: 0 256<128 384 512 640> 256 256<896 1024> 384 256<1024 1152> 512 256<128 256 512 640 1152 1280>
LayerCount: 2
Fore
SplineSet
128 640 m 1,0,-1
 128 768 l 1,1,-1
 640 768 l 1,2,-1
 640 640 l 1,3,-1
 768 640 l 1,4,-1
 768 384 l 1,5,-1
 256 384 l 1,6,-1
 256 128 l 1,7,-1
 512 128 l 1,8,-1
 512 256 l 1,9,-1
 768 256 l 1,10,-1
 768 128 l 1,11,-1
 640 128 l 1,12,-1
 640 0 l 1,13,-1
 128 0 l 1,14,-1
 128 128 l 1,15,-1
 0 128 l 1,16,-1
 0 640 l 1,17,-1
 128 640 l 1,0,-1
512 512 m 1,18,-1
 512 640 l 1,19,-1
 256 640 l 1,20,-1
 256 512 l 1,21,-1
 512 512 l 1,18,-1
512 1152 m 1,22,-1
 512 1280 l 1,23,-1
 768 1280 l 1,24,-1
 768 1152 l 1,25,-1
 640 1152 l 1,26,-1
 640 1024 l 1,27,-1
 512 1024 l 1,28,-1
 512 896 l 1,29,-1
 256 896 l 1,30,-1
 256 1024 l 1,31,-1
 384 1024 l 1,32,-1
 384 1152 l 1,33,-1
 512 1152 l 1,22,-1
EndSplineSet
Validated: 3073
EndChar

StartChar: acircumflex
Encoding: 226 226 99
Width: 1024
VWidth: 0
Flags: W
HStem: 0 128<256 512 768 896> 128 256<0 128> 384 128<256 512> 640 128<128 512> 896 256<128 256 512 640> 896 128<0 128 640 768> 1024 256<256 512>
VStem: 0 256<128 384 896 1024> 256 256<1152 1280> 512 256<128 384 512 640 896 1024> 640 256<0 128>
LayerCount: 2
Fore
SplineSet
128 640 m 1,0,-1
 128 768 l 1,1,-1
 640 768 l 1,2,-1
 640 640 l 1,3,-1
 768 640 l 1,4,-1
 768 128 l 1,5,-1
 896 128 l 1,6,-1
 896 0 l 1,7,-1
 640 0 l 1,8,-1
 640 128 l 1,9,-1
 512 128 l 1,10,-1
 512 0 l 1,11,-1
 128 0 l 1,12,-1
 128 128 l 1,13,-1
 0 128 l 1,14,-1
 0 384 l 1,15,-1
 128 384 l 1,16,-1
 128 512 l 1,17,-1
 512 512 l 1,18,-1
 512 640 l 1,19,-1
 128 640 l 1,0,-1
512 128 m 1,20,-1
 512 384 l 1,21,-1
 256 384 l 1,22,-1
 256 128 l 1,23,-1
 512 128 l 1,20,-1
256 1152 m 1,24,-1
 256 1280 l 1,25,-1
 512 1280 l 1,26,-1
 512 1152 l 1,27,-1
 640 1152 l 1,28,-1
 640 1024 l 1,29,-1
 768 1024 l 1,30,-1
 768 896 l 1,31,-1
 512 896 l 1,32,-1
 512 1024 l 1,33,-1
 256 1024 l 1,34,-1
 256 896 l 1,35,-1
 0 896 l 1,36,-1
 0 1024 l 1,37,-1
 128 1024 l 1,38,-1
 128 1152 l 1,39,-1
 256 1152 l 1,24,-1
EndSplineSet
Validated: 3077
EndChar

StartChar: adieresis
Encoding: 228 228 100
Width: 1024
VWidth: 0
Flags: W
HStem: 0 128<256 512 768 896> 128 256<0 128> 384 128<256 512> 640 128<128 512> 896 256<0 256 512 768>
VStem: 0 256<128 384 896 1152> 512 256<128 384 512 640 896 1152> 640 256<0 128>
LayerCount: 2
Fore
SplineSet
128 640 m 1,0,-1
 128 768 l 1,1,-1
 640 768 l 1,2,-1
 640 640 l 1,3,-1
 768 640 l 1,4,-1
 768 128 l 1,5,-1
 896 128 l 1,6,-1
 896 0 l 1,7,-1
 640 0 l 1,8,-1
 640 128 l 1,9,-1
 512 128 l 1,10,-1
 512 0 l 1,11,-1
 128 0 l 1,12,-1
 128 128 l 1,13,-1
 0 128 l 1,14,-1
 0 384 l 1,15,-1
 128 384 l 1,16,-1
 128 512 l 1,17,-1
 512 512 l 1,18,-1
 512 640 l 1,19,-1
 128 640 l 1,0,-1
512 128 m 1,20,-1
 512 384 l 1,21,-1
 256 384 l 1,22,-1
 256 128 l 1,23,-1
 512 128 l 1,20,-1
512 896 m 1,24,-1
 512 1152 l 1,25,-1
 768 1152 l 1,26,-1
 768 896 l 1,27,-1
 512 896 l 1,24,-1
0 896 m 1,28,-1
 0 1152 l 1,29,-1
 256 1152 l 1,30,-1
 256 896 l 1,31,-1
 0 896 l 1,28,-1
EndSplineSet
Validated: 3077
EndChar

StartChar: agrave
Encoding: 224 224 101
Width: 1024
VWidth: 26
Flags: W
HStem: 0 128<256 512 768 896> 128 256<0 128> 384 128<256 512> 640 128<128 512> 896 256<256 384> 896 128<384 512> 1024 256<128 256> 1152 128<0 128>
VStem: 0 256<128 384 1152 1280> 128 256<1024 1152> 256 256<896 1024> 512 256<128 384 512 640> 640 256<0 128>
LayerCount: 2
Fore
SplineSet
0 1152 m 1,0,-1
 0 1280 l 1,1,-1
 256 1280 l 1,2,-1
 256 1152 l 1,3,-1
 384 1152 l 1,4,-1
 384 1024 l 1,5,-1
 512 1024 l 1,6,-1
 512 896 l 1,7,-1
 256 896 l 1,8,-1
 256 1024 l 1,9,-1
 128 1024 l 1,10,-1
 128 1152 l 1,11,-1
 0 1152 l 1,0,-1
128 640 m 1,12,-1
 128 768 l 1,13,-1
 640 768 l 1,14,-1
 640 640 l 1,15,-1
 768 640 l 1,16,-1
 768 128 l 1,17,-1
 896 128 l 1,18,-1
 896 0 l 1,19,-1
 640 0 l 1,20,-1
 640 128 l 1,21,-1
 512 128 l 1,22,-1
 512 384 l 1,23,-1
 256 384 l 1,24,-1
 256 128 l 1,25,-1
 512 128 l 1,26,-1
 512 0 l 1,27,-1
 128 0 l 1,28,-1
 128 128 l 1,29,-1
 0 128 l 1,30,-1
 0 384 l 1,31,-1
 128 384 l 1,32,-1
 128 512 l 1,33,-1
 512 512 l 1,34,-1
 512 640 l 1,35,-1
 128 640 l 1,12,-1
EndSplineSet
Validated: 3077
EndChar

StartChar: aring
Encoding: 229 229 102
Width: 1024
VWidth: 26
Flags: W
HStem: 0 128<256 512 768 896> 128 256<0 128> 384 128<256 512> 640 256<384 512> 640 128<0 256> 896 256<128 256 640 768> 1152 128<384 512>
VStem: 0 256<128 384> 128 256<896 1152> 256 384<768 896 1152 1280> 512 256<128 384 512 640 896 1152> 640 256<0 128>
LayerCount: 2
Fore
SplineSet
512 896 m 1,0,-1
 512 1152 l 1,1,-1
 384 1152 l 1,2,-1
 384 896 l 1,3,-1
 512 896 l 1,0,-1
256 1152 m 1,4,-1
 256 1280 l 1,5,-1
 640 1280 l 1,6,-1
 640 1152 l 1,7,-1
 768 1152 l 1,8,-1
 768 896 l 1,9,-1
 640 896 l 1,10,-1
 640 640 l 1,11,-1
 768 640 l 1,12,-1
 768 128 l 1,13,-1
 896 128 l 1,14,-1
 896 0 l 1,15,-1
 640 0 l 1,16,-1
 640 128 l 1,17,-1
 512 128 l 1,18,-1
 512 384 l 1,19,-1
 256 384 l 1,20,-1
 256 128 l 1,21,-1
 512 128 l 1,22,-1
 512 0 l 1,23,-1
 128 0 l 1,24,-1
 128 128 l 1,25,-1
 0 128 l 1,26,-1
 0 384 l 1,27,-1
 128 384 l 1,28,-1
 128 512 l 1,29,-1
 512 512 l 1,30,-1
 512 640 l 1,31,-1
 0 640 l 1,32,-1
 0 768 l 1,33,-1
 256 768 l 1,34,-1
 256 896 l 1,35,-1
 128 896 l 1,36,-1
 128 1152 l 1,37,-1
 256 1152 l 1,4,-1
EndSplineSet
Validated: 3077
EndChar

StartChar: ccedilla
Encoding: 231 231 103
Width: 1024
VWidth: 0
Flags: W
HStem: -256 128<128 256> -128 256<384 512> 0 256<512 640> 128 128<640 768> 512 128<640 768> 640 128<256 512>
VStem: 0 256<128 640> 128 256<-256 -128> 256 256<-128 0> 512 256<128 256 512 640>
LayerCount: 2
Fore
SplineSet
128 640 m 1,0,-1
 128 768 l 1,1,-1
 640 768 l 1,2,-1
 640 640 l 1,3,-1
 768 640 l 1,4,-1
 768 512 l 1,5,-1
 512 512 l 1,6,-1
 512 640 l 1,7,-1
 256 640 l 1,8,-1
 256 128 l 1,9,-1
 512 128 l 1,10,-1
 512 256 l 1,11,-1
 768 256 l 1,12,-1
 768 128 l 1,13,-1
 640 128 l 1,14,-1
 640 0 l 1,15,-1
 512 0 l 1,16,-1
 512 -128 l 1,17,-1
 384 -128 l 1,18,-1
 384 -256 l 1,19,-1
 128 -256 l 1,20,-1
 128 -128 l 1,21,-1
 256 -128 l 1,22,-1
 256 0 l 1,23,-1
 128 0 l 1,24,-1
 128 128 l 1,25,-1
 0 128 l 1,26,-1
 0 640 l 1,27,-1
 128 640 l 1,0,-1
EndSplineSet
Validated: 3073
EndChar

StartChar: ecircumflex
Encoding: 234 234 104
Width: 1024
VWidth: 26
Flags: W
HStem: 0 128<256 768> 384 256<640 768> 384 128<256 512> 640 128<256 512> 896 256<128 256 512 640> 896 128<0 128 640 768> 1024 256<256 512>
VStem: 0 256<128 384 512 640 896 1024> 256 256<1152 1280> 512 256<512 640 896 1024>
LayerCount: 2
Fore
SplineSet
256 1152 m 1,0,-1
 256 1280 l 1,1,-1
 512 1280 l 1,2,-1
 512 1152 l 1,3,-1
 640 1152 l 1,4,-1
 640 1024 l 1,5,-1
 768 1024 l 1,6,-1
 768 896 l 1,7,-1
 512 896 l 1,8,-1
 512 1024 l 1,9,-1
 256 1024 l 1,10,-1
 256 896 l 1,11,-1
 0 896 l 1,12,-1
 0 1024 l 1,13,-1
 128 1024 l 1,14,-1
 128 1152 l 1,15,-1
 256 1152 l 1,0,-1
512 512 m 1,16,-1
 512 640 l 1,17,-1
 256 640 l 1,18,-1
 256 512 l 1,19,-1
 512 512 l 1,16,-1
128 640 m 1,20,-1
 128 768 l 1,21,-1
 640 768 l 1,22,-1
 640 640 l 1,23,-1
 768 640 l 1,24,-1
 768 384 l 1,25,-1
 256 384 l 1,26,-1
 256 128 l 1,27,-1
 768 128 l 1,28,-1
 768 0 l 1,29,-1
 128 0 l 1,30,-1
 128 128 l 1,31,-1
 0 128 l 1,32,-1
 0 640 l 1,33,-1
 128 640 l 1,20,-1
EndSplineSet
Validated: 3073
EndChar

StartChar: edieresis
Encoding: 235 235 105
Width: 1024
VWidth: 0
Flags: W
HStem: 0 128<256 512> 128 128<640 768> 384 256<640 768> 384 128<256 512> 640 128<256 512> 896 256<0 256 512 768>
VStem: 0 256<128 384 512 640 896 1152> 512 256<128 256 512 640 896 1152>
LayerCount: 2
Fore
SplineSet
128 640 m 1,0,-1
 128 768 l 1,1,-1
 640 768 l 1,2,-1
 640 640 l 1,3,-1
 768 640 l 1,4,-1
 768 384 l 1,5,-1
 256 384 l 1,6,-1
 256 128 l 1,7,-1
 512 128 l 1,8,-1
 512 256 l 1,9,-1
 768 256 l 1,10,-1
 768 128 l 1,11,-1
 640 128 l 1,12,-1
 640 0 l 1,13,-1
 128 0 l 1,14,-1
 128 128 l 1,15,-1
 0 128 l 1,16,-1
 0 640 l 1,17,-1
 128 640 l 1,0,-1
512 512 m 1,18,-1
 512 640 l 1,19,-1
 256 640 l 1,20,-1
 256 512 l 1,21,-1
 512 512 l 1,18,-1
512 896 m 1,22,-1
 512 1152 l 1,23,-1
 768 1152 l 1,24,-1
 768 896 l 1,25,-1
 512 896 l 1,22,-1
0 896 m 1,26,-1
 0 1152 l 1,27,-1
 256 1152 l 1,28,-1
 256 896 l 1,29,-1
 0 896 l 1,26,-1
EndSplineSet
Validated: 3073
EndChar

StartChar: egrave
Encoding: 232 232 106
Width: 1024
VWidth: 26
Flags: W
HStem: 0 128<256 768> 384 256<640 768> 384 128<256 512> 640 128<256 512> 896 256<256 384> 896 128<384 512> 1024 256<128 256> 1152 128<0 128>
VStem: 0 256<128 384 512 640 1152 1280> 128 256<1024 1152> 256 256<896 1024> 512 256<512 640>
LayerCount: 2
Fore
SplineSet
0 1152 m 1,0,-1
 0 1280 l 1,1,-1
 256 1280 l 1,2,-1
 256 1152 l 1,3,-1
 384 1152 l 1,4,-1
 384 1024 l 1,5,-1
 512 1024 l 1,6,-1
 512 896 l 1,7,-1
 256 896 l 1,8,-1
 256 1024 l 1,9,-1
 128 1024 l 1,10,-1
 128 1152 l 1,11,-1
 0 1152 l 1,0,-1
512 512 m 1,12,-1
 512 640 l 1,13,-1
 256 640 l 1,14,-1
 256 512 l 1,15,-1
 512 512 l 1,12,-1
128 640 m 1,16,-1
 128 768 l 1,17,-1
 640 768 l 1,18,-1
 640 640 l 1,19,-1
 768 640 l 1,20,-1
 768 384 l 1,21,-1
 256 384 l 1,22,-1
 256 128 l 1,23,-1
 768 128 l 1,24,-1
 768 0 l 1,25,-1
 128 0 l 1,26,-1
 128 128 l 1,27,-1
 0 128 l 1,28,-1
 0 640 l 1,29,-1
 128 640 l 1,16,-1
EndSplineSet
Validated: 3073
EndChar

StartChar: idieresis
Encoding: 239 239 107
Width: 1024
VWidth: 26
Flags: W
HStem: 0 128<128 384 640 896> 640 128<128 384> 896 256<128 384 512 768>
VStem: 128 256<896 1152> 384 256<128 640> 512 256<896 1152>
LayerCount: 2
Fore
SplineSet
128 896 m 1,0,-1
 128 1152 l 1,1,-1
 384 1152 l 1,2,-1
 384 896 l 1,3,-1
 128 896 l 1,0,-1
512 896 m 1,4,-1
 512 1152 l 1,5,-1
 768 1152 l 1,6,-1
 768 896 l 1,7,-1
 512 896 l 1,4,-1
128 640 m 1,8,-1
 128 768 l 1,9,-1
 640 768 l 1,10,-1
 640 128 l 1,11,-1
 896 128 l 1,12,-1
 896 0 l 1,13,-1
 128 0 l 1,14,-1
 128 128 l 1,15,-1
 384 128 l 1,16,-1
 384 640 l 1,17,-1
 128 640 l 1,8,-1
EndSplineSet
Validated: 3073
EndChar

StartChar: icircumflex
Encoding: 238 238 108
Width: 1024
VWidth: 0
Flags: W
HStem: 0 128<128 384 640 896> 640 128<128 384> 896 256<256 384 512 640> 896 128<128 256 640 768> 1024 256<384 512>
VStem: 128 256<896 1024> 384 256<128 640> 384 128<1152 1280> 512 256<896 1024>
LayerCount: 2
Fore
SplineSet
128 640 m 1,0,-1
 128 768 l 1,1,-1
 640 768 l 1,2,-1
 640 128 l 1,3,-1
 896 128 l 1,4,-1
 896 0 l 1,5,-1
 128 0 l 1,6,-1
 128 128 l 1,7,-1
 384 128 l 1,8,-1
 384 640 l 1,9,-1
 128 640 l 1,0,-1
384 1152 m 1,10,-1
 384 1280 l 1,11,-1
 512 1280 l 1,12,-1
 512 1152 l 1,13,-1
 640 1152 l 1,14,-1
 640 1024 l 1,15,-1
 768 1024 l 1,16,-1
 768 896 l 1,17,-1
 512 896 l 1,18,-1
 512 1024 l 1,19,-1
 384 1024 l 1,20,-1
 384 896 l 1,21,-1
 128 896 l 1,22,-1
 128 1024 l 1,23,-1
 256 1024 l 1,24,-1
 256 1152 l 1,25,-1
 384 1152 l 1,10,-1
EndSplineSet
Validated: 3073
EndChar

StartChar: igrave
Encoding: 236 236 109
Width: 1024
VWidth: 26
Flags: W
HStem: 0 128<128 384 640 896> 640 128<128 384> 896 256<384 512> 896 128<512 640> 1024 256<256 384> 1152 128<128 256>
VStem: 128 256<1152 1280> 256 256<1024 1152> 384 256<128 640 896 1024>
LayerCount: 2
Fore
SplineSet
128 1152 m 1,0,-1
 128 1280 l 1,1,-1
 384 1280 l 1,2,-1
 384 1152 l 1,3,-1
 512 1152 l 1,4,-1
 512 1024 l 1,5,-1
 640 1024 l 1,6,-1
 640 896 l 1,7,-1
 384 896 l 1,8,-1
 384 1024 l 1,9,-1
 256 1024 l 1,10,-1
 256 1152 l 1,11,-1
 128 1152 l 1,0,-1
128 640 m 1,12,-1
 128 768 l 1,13,-1
 640 768 l 1,14,-1
 640 128 l 1,15,-1
 896 128 l 1,16,-1
 896 0 l 1,17,-1
 128 0 l 1,18,-1
 128 128 l 1,19,-1
 384 128 l 1,20,-1
 384 640 l 1,21,-1
 128 640 l 1,12,-1
EndSplineSet
Validated: 3073
EndChar

StartChar: Adieresis
Encoding: 196 196 110
Width: 1024
VWidth: 0
Flags: W
HStem: 0 21G<0 256 512 768> 256 128<256 512> 768 256<256 512> 1152 128<0 256 512 768>
VStem: 0 256<0 256 384 768 1152 1280> 512 256<0 256 384 768 1152 1280>
LayerCount: 2
Fore
SplineSet
256 896 m 1,0,-1
 256 1024 l 1,1,-1
 512 1024 l 1,2,-1
 512 896 l 1,3,-1
 640 896 l 1,4,-1
 640 768 l 1,5,-1
 768 768 l 1,6,-1
 768 0 l 1,7,-1
 512 0 l 1,8,-1
 512 256 l 1,9,-1
 256 256 l 1,10,-1
 256 0 l 1,11,-1
 0 0 l 1,12,-1
 0 768 l 1,13,-1
 128 768 l 1,14,-1
 128 896 l 1,15,-1
 256 896 l 1,0,-1
512 384 m 1,16,-1
 512 768 l 1,17,-1
 256 768 l 1,18,-1
 256 384 l 1,19,-1
 512 384 l 1,16,-1
512 1152 m 1,20,-1
 512 1280 l 1,21,-1
 768 1280 l 1,22,-1
 768 1152 l 1,23,-1
 512 1152 l 1,20,-1
0 1152 m 1,24,-1
 0 1280 l 1,25,-1
 256 1280 l 1,26,-1
 256 1152 l 1,27,-1
 0 1152 l 1,24,-1
EndSplineSet
Validated: 3073
EndChar

StartChar: Aring
Encoding: 197 197 111
Width: 1024
VWidth: 26
Flags: W
HStem: 0 21G<0 256 512 768> 256 128<256 512> 896 256<0 128 640 768> 1152 128<256 512>
VStem: 0 256<0 256 384 640 896 1152> 128 512<640 896 1152 1280> 512 256<0 256 384 640 896 1152>
LayerCount: 2
Fore
SplineSet
512 384 m 1,0,-1
 512 640 l 1,1,-1
 256 640 l 1,2,-1
 256 384 l 1,3,-1
 512 384 l 1,0,-1
512 896 m 1,4,-1
 512 1152 l 1,5,-1
 256 1152 l 1,6,-1
 256 896 l 1,7,-1
 512 896 l 1,4,-1
128 1152 m 1,8,-1
 128 1280 l 1,9,-1
 640 1280 l 1,10,-1
 640 1152 l 1,11,-1
 768 1152 l 1,12,-1
 768 896 l 1,13,-1
 640 896 l 1,14,-1
 640 640 l 1,15,-1
 768 640 l 1,16,-1
 768 0 l 1,17,-1
 512 0 l 1,18,-1
 512 256 l 1,19,-1
 256 256 l 1,20,-1
 256 0 l 1,21,-1
 0 0 l 1,22,-1
 0 640 l 1,23,-1
 128 640 l 1,24,-1
 128 896 l 1,25,-1
 0 896 l 1,26,-1
 0 1152 l 1,27,-1
 128 1152 l 1,8,-1
EndSplineSet
Validated: 3073
EndChar

StartChar: Eacute
Encoding: 201 201 112
Width: 1024
VWidth: 0
Flags: W
HStem: 0 256<768 896> 0 128<0 128 384 768> 512 128<384 512> 748 20G<512 640> 768 256<768 896> 896 128<0 128 512 768> 1152 128<512 640>
VStem: 128 256<128 512 640 896> 256 256<1024 1152> 384 256<1152 1280> 512 128<384 512 640 768> 768 128<128 256 768 896>
LayerCount: 2
Fore
SplineSet
384 1152 m 1,0,-1
 384 1280 l 1,1,-1
 640 1280 l 1,2,-1
 640 1152 l 1,3,-1
 512 1152 l 1,4,-1
 512 1024 l 1,5,-1
 896 1024 l 1,6,-1
 896 768 l 1,7,-1
 768 768 l 1,8,-1
 768 896 l 1,9,-1
 384 896 l 1,10,-1
 384 640 l 1,11,-1
 512 640 l 1,12,-1
 512 768 l 1,13,-1
 640 768 l 1,14,-1
 640 384 l 1,15,-1
 512 384 l 1,16,-1
 512 512 l 1,17,-1
 384 512 l 1,18,-1
 384 128 l 1,19,-1
 768 128 l 1,20,-1
 768 256 l 1,21,-1
 896 256 l 1,22,-1
 896 0 l 1,23,-1
 0 0 l 1,24,-1
 0 128 l 1,25,-1
 128 128 l 1,26,-1
 128 896 l 1,27,-1
 0 896 l 1,28,-1
 0 1024 l 1,29,-1
 256 1024 l 1,30,-1
 256 1152 l 1,31,-1
 384 1152 l 1,0,-1
EndSplineSet
Validated: 3073
EndChar

StartChar: ae
Encoding: 230 230 113
Width: 1024
VWidth: 26
Flags: W
HStem: 0 128<256 384 640 1024> 384 256<896 1024> 384 128<256 384 640 768> 640 128<0 384 640 768>
VStem: 0 256<128 384> 384 256<128 384 512 640> 768 256<512 640>
CounterMasks: 1 0e
LayerCount: 2
Fore
SplineSet
768 512 m 1,0,-1
 768 640 l 1,1,-1
 640 640 l 1,2,-1
 640 512 l 1,3,-1
 768 512 l 1,0,-1
0 640 m 1,4,-1
 0 768 l 1,5,-1
 896 768 l 1,6,-1
 896 640 l 1,7,-1
 1024 640 l 1,8,-1
 1024 384 l 1,9,-1
 640 384 l 1,10,-1
 640 128 l 1,11,-1
 1024 128 l 1,12,-1
 1024 0 l 1,13,-1
 512 0 l 1,14,-1
 512 128 l 1,15,-1
 384 128 l 1,16,-1
 384 384 l 1,17,-1
 256 384 l 1,18,-1
 256 128 l 1,19,-1
 384 128 l 1,20,-1
 384 0 l 1,21,-1
 0 0 l 1,22,-1
 0 384 l 1,23,-1
 128 384 l 1,24,-1
 128 512 l 1,25,-1
 384 512 l 1,26,-1
 384 640 l 1,27,-1
 0 640 l 1,4,-1
EndSplineSet
Validated: 3077
EndChar

StartChar: AE
Encoding: 198 198 114
Width: 1024
VWidth: 26
Flags: W
HStem: 0 128<640 896> 512 128<256 384 640 896> 896 256<256 384> 1024 128<640 896>
VStem: 0 256<0 512 640 896> 384 256<128 512 640 896>
LayerCount: 2
Fore
SplineSet
384 640 m 1,0,-1
 384 896 l 1,1,-1
 256 896 l 1,2,-1
 256 640 l 1,3,-1
 384 640 l 1,0,-1
256 1024 m 1,4,-1
 256 1152 l 1,5,-1
 896 1152 l 1,6,-1
 896 1024 l 1,7,-1
 640 1024 l 1,8,-1
 640 640 l 1,9,-1
 896 640 l 1,10,-1
 896 512 l 1,11,-1
 640 512 l 1,12,-1
 640 128 l 1,13,-1
 896 128 l 1,14,-1
 896 0 l 1,15,-1
 384 0 l 1,16,-1
 384 512 l 1,17,-1
 256 512 l 1,18,-1
 256 0 l 1,19,-1
 0 0 l 1,20,-1
 0 896 l 1,21,-1
 128 896 l 1,22,-1
 128 1024 l 1,23,-1
 256 1024 l 1,4,-1
EndSplineSet
Validated: 3073
EndChar

StartChar: ocircumflex
Encoding: 244 244 115
Width: 1024
VWidth: 0
Flags: W
HStem: 0 128<256 512> 640 128<256 512> 896 256<128 256 512 640> 896 128<0 128 640 768> 1024 256<256 512>
VStem: 0 256<128 640 896 1024> 128 512<0 128 640 768 1024 1152> 512 256<128 640 896 1024>
LayerCount: 2
Fore
SplineSet
128 640 m 1,0,-1
 128 768 l 1,1,-1
 640 768 l 1,2,-1
 640 640 l 1,3,-1
 768 640 l 1,4,-1
 768 128 l 1,5,-1
 640 128 l 1,6,-1
 640 0 l 1,7,-1
 128 0 l 1,8,-1
 128 128 l 1,9,-1
 0 128 l 1,10,-1
 0 640 l 1,11,-1
 128 640 l 1,0,-1
512 128 m 1,12,-1
 512 640 l 1,13,-1
 256 640 l 1,14,-1
 256 128 l 1,15,-1
 512 128 l 1,12,-1
256 1152 m 1,16,-1
 256 1280 l 1,17,-1
 512 1280 l 1,18,-1
 512 1152 l 1,19,-1
 640 1152 l 1,20,-1
 640 1024 l 1,21,-1
 768 1024 l 1,22,-1
 768 896 l 1,23,-1
 512 896 l 1,24,-1
 512 1024 l 1,25,-1
 256 1024 l 1,26,-1
 256 896 l 1,27,-1
 0 896 l 1,28,-1
 0 1024 l 1,29,-1
 128 1024 l 1,30,-1
 128 1152 l 1,31,-1
 256 1152 l 1,16,-1
EndSplineSet
Validated: 3073
EndChar

StartChar: odieresis
Encoding: 246 246 116
Width: 1024
VWidth: 0
Flags: W
HStem: 0 128<256 512> 640 128<256 512> 896 256<0 256 512 768>
VStem: 0 256<128 640 896 1152> 512 256<128 640 896 1152>
LayerCount: 2
Fore
SplineSet
128 640 m 1,0,-1
 128 768 l 1,1,-1
 640 768 l 1,2,-1
 640 640 l 1,3,-1
 768 640 l 1,4,-1
 768 128 l 1,5,-1
 640 128 l 1,6,-1
 640 0 l 1,7,-1
 128 0 l 1,8,-1
 128 128 l 1,9,-1
 0 128 l 1,10,-1
 0 640 l 1,11,-1
 128 640 l 1,0,-1
512 128 m 1,12,-1
 512 640 l 1,13,-1
 256 640 l 1,14,-1
 256 128 l 1,15,-1
 512 128 l 1,12,-1
512 896 m 1,16,-1
 512 1152 l 1,17,-1
 768 1152 l 1,18,-1
 768 896 l 1,19,-1
 512 896 l 1,16,-1
0 896 m 1,20,-1
 0 1152 l 1,21,-1
 256 1152 l 1,22,-1
 256 896 l 1,23,-1
 0 896 l 1,20,-1
EndSplineSet
Validated: 3073
EndChar

StartChar: ograve
Encoding: 242 242 117
Width: 1024
VWidth: 26
Flags: W
HStem: 0 128<256 512> 640 128<256 512> 896 256<256 384> 896 128<384 512> 1024 256<128 256> 1152 128<0 128>
VStem: 0 256<128 640 1152 1280> 128 256<1024 1152> 256 256<896 1024> 512 256<128 640>
LayerCount: 2
Fore
SplineSet
0 1152 m 1,0,-1
 0 1280 l 1,1,-1
 256 1280 l 1,2,-1
 256 1152 l 1,3,-1
 384 1152 l 1,4,-1
 384 1024 l 1,5,-1
 512 1024 l 1,6,-1
 512 896 l 1,7,-1
 256 896 l 1,8,-1
 256 1024 l 1,9,-1
 128 1024 l 1,10,-1
 128 1152 l 1,11,-1
 0 1152 l 1,0,-1
512 128 m 1,12,-1
 512 640 l 1,13,-1
 256 640 l 1,14,-1
 256 128 l 1,15,-1
 512 128 l 1,12,-1
128 640 m 1,16,-1
 128 768 l 1,17,-1
 640 768 l 1,18,-1
 640 640 l 1,19,-1
 768 640 l 1,20,-1
 768 128 l 1,21,-1
 640 128 l 1,22,-1
 640 0 l 1,23,-1
 128 0 l 1,24,-1
 128 128 l 1,25,-1
 0 128 l 1,26,-1
 0 640 l 1,27,-1
 128 640 l 1,16,-1
EndSplineSet
Validated: 3073
EndChar

StartChar: ucircumflex
Encoding: 251 251 118
Width: 1024
VWidth: 26
Flags: W
HStem: 0 128<256 512 768 896> 748 20G<0 256 512 768> 896 256<128 256 512 640> 896 128<0 128 640 768> 1024 256<256 512>
VStem: 0 256<128 768 896 1024> 256 256<1152 1280> 512 256<128 768 896 1024> 640 256<0 128>
LayerCount: 2
Fore
SplineSet
256 1152 m 1,0,-1
 256 1280 l 1,1,-1
 512 1280 l 1,2,-1
 512 1152 l 1,3,-1
 640 1152 l 1,4,-1
 640 1024 l 1,5,-1
 768 1024 l 1,6,-1
 768 896 l 1,7,-1
 512 896 l 1,8,-1
 512 1024 l 1,9,-1
 256 1024 l 1,10,-1
 256 896 l 1,11,-1
 0 896 l 1,12,-1
 0 1024 l 1,13,-1
 128 1024 l 1,14,-1
 128 1152 l 1,15,-1
 256 1152 l 1,0,-1
0 128 m 1,16,-1
 0 768 l 1,17,-1
 256 768 l 1,18,-1
 256 128 l 1,19,-1
 512 128 l 1,20,-1
 512 0 l 1,21,-1
 128 0 l 1,22,-1
 128 128 l 1,23,-1
 0 128 l 1,16,-1
512 128 m 1,24,-1
 512 768 l 1,25,-1
 768 768 l 1,26,-1
 768 128 l 1,27,-1
 896 128 l 1,28,-1
 896 0 l 1,29,-1
 640 0 l 1,30,-1
 640 128 l 1,31,-1
 512 128 l 1,24,-1
EndSplineSet
Validated: 3077
EndChar

StartChar: ugrave
Encoding: 249 249 119
Width: 1024
VWidth: 26
Flags: W
HStem: 0 128<256 512 768 896> 748 20G<0 256 512 768> 896 256<256 384> 896 128<384 512> 1024 256<128 256> 1152 128<0 128>
VStem: 0 256<128 768 1152 1280> 128 256<1024 1152> 256 256<896 1024> 512 256<128 768> 640 256<0 128>
LayerCount: 2
Fore
SplineSet
0 1152 m 1,0,-1
 0 1280 l 1,1,-1
 256 1280 l 1,2,-1
 256 1152 l 1,3,-1
 384 1152 l 1,4,-1
 384 1024 l 1,5,-1
 512 1024 l 1,6,-1
 512 896 l 1,7,-1
 256 896 l 1,8,-1
 256 1024 l 1,9,-1
 128 1024 l 1,10,-1
 128 1152 l 1,11,-1
 0 1152 l 1,0,-1
0 128 m 1,12,-1
 0 768 l 1,13,-1
 256 768 l 1,14,-1
 256 128 l 1,15,-1
 512 128 l 1,16,-1
 512 0 l 1,17,-1
 128 0 l 1,18,-1
 128 128 l 1,19,-1
 0 128 l 1,12,-1
512 128 m 1,20,-1
 512 768 l 1,21,-1
 768 768 l 1,22,-1
 768 128 l 1,23,-1
 896 128 l 1,24,-1
 896 0 l 1,25,-1
 640 0 l 1,26,-1
 640 128 l 1,27,-1
 512 128 l 1,20,-1
EndSplineSet
Validated: 3077
EndChar

StartChar: ydieresis
Encoding: 255 255 120
Width: 1024
VWidth: 26
Flags: W
HStem: -256 256<384 512> -256 128<0 384> 128 128<384 512> 748 20G<128 384 640 896> 896 256<128 384 640 896>
VStem: 128 256<256 768 896 1152> 384 256<-128 0> 512 256<0 128> 640 256<256 768 896 1152>
LayerCount: 2
Fore
SplineSet
128 896 m 1,0,-1
 128 1152 l 1,1,-1
 384 1152 l 1,2,-1
 384 896 l 1,3,-1
 128 896 l 1,0,-1
640 896 m 1,4,-1
 640 1152 l 1,5,-1
 896 1152 l 1,6,-1
 896 896 l 1,7,-1
 640 896 l 1,4,-1
128 256 m 1,8,-1
 128 768 l 1,9,-1
 384 768 l 1,10,-1
 384 256 l 1,11,-1
 640 256 l 1,12,-1
 640 768 l 1,13,-1
 896 768 l 1,14,-1
 896 256 l 1,15,-1
 768 256 l 1,16,-1
 768 0 l 1,17,-1
 640 0 l 1,18,-1
 640 -128 l 1,19,-1
 512 -128 l 1,20,-1
 512 -256 l 1,21,-1
 0 -256 l 1,22,-1
 0 -128 l 1,23,-1
 384 -128 l 1,24,-1
 384 0 l 1,25,-1
 512 0 l 1,26,-1
 512 128 l 1,27,-1
 256 128 l 1,28,-1
 256 256 l 1,29,-1
 128 256 l 1,8,-1
EndSplineSet
Validated: 3073
EndChar

StartChar: Odieresis
Encoding: 214 214 121
Width: 1024
VWidth: 0
Flags: W
HStem: 0 128<256 512> 896 128<256 512> 1152 128<0 256 512 768>
VStem: 0 256<128 896 1152 1280> 512 256<128 896 1152 1280>
LayerCount: 2
Fore
SplineSet
128 896 m 1,0,-1
 128 1024 l 1,1,-1
 640 1024 l 1,2,-1
 640 896 l 1,3,-1
 768 896 l 1,4,-1
 768 128 l 1,5,-1
 640 128 l 1,6,-1
 640 0 l 1,7,-1
 128 0 l 1,8,-1
 128 128 l 1,9,-1
 0 128 l 1,10,-1
 0 896 l 1,11,-1
 128 896 l 1,0,-1
512 128 m 1,12,-1
 512 896 l 1,13,-1
 256 896 l 1,14,-1
 256 128 l 1,15,-1
 512 128 l 1,12,-1
512 1152 m 1,16,-1
 512 1280 l 1,17,-1
 768 1280 l 1,18,-1
 768 1152 l 1,19,-1
 512 1152 l 1,16,-1
0 1152 m 1,20,-1
 0 1280 l 1,21,-1
 256 1280 l 1,22,-1
 256 1152 l 1,23,-1
 0 1152 l 1,20,-1
EndSplineSet
Validated: 3073
EndChar

StartChar: Udieresis
Encoding: 220 220 122
Width: 1024
VWidth: 0
Flags: W
HStem: 0 128<256 512> 1152 128<0 256 512 768>
VStem: 0 256<128 1024 1152 1280> 512 256<128 1024 1152 1280>
LayerCount: 2
Fore
SplineSet
0 128 m 1,0,-1
 0 1024 l 1,1,-1
 256 1024 l 1,2,-1
 256 128 l 1,3,-1
 512 128 l 1,4,-1
 512 1024 l 1,5,-1
 768 1024 l 1,6,-1
 768 128 l 1,7,-1
 640 128 l 1,8,-1
 640 0 l 1,9,-1
 128 0 l 1,10,-1
 128 128 l 1,11,-1
 0 128 l 1,0,-1
512 1152 m 1,12,-1
 512 1280 l 1,13,-1
 768 1280 l 1,14,-1
 768 1152 l 1,15,-1
 512 1152 l 1,12,-1
0 1152 m 1,16,-1
 0 1280 l 1,17,-1
 256 1280 l 1,18,-1
 256 1152 l 1,19,-1
 0 1152 l 1,16,-1
EndSplineSet
Validated: 3073
EndChar

StartChar: cent
Encoding: 162 162 123
Width: 1024
VWidth: 26
Flags: W
HStem: -128 384<256 512> 128 256<512 640> 256 128<640 768> 640 256<512 640> 640 128<640 768> 768 384<256 512>
VStem: 0 256<256 768> 256 256<-128 128 896 1152> 512 256<256 384 640 768>
LayerCount: 2
Fore
SplineSet
256 896 m 1,0,-1
 256 1152 l 1,1,-1
 512 1152 l 1,2,-1
 512 896 l 1,3,-1
 640 896 l 1,4,-1
 640 768 l 1,5,-1
 768 768 l 1,6,-1
 768 640 l 1,7,-1
 512 640 l 1,8,-1
 512 768 l 1,9,-1
 256 768 l 1,10,-1
 256 256 l 1,11,-1
 512 256 l 1,12,-1
 512 384 l 1,13,-1
 768 384 l 1,14,-1
 768 256 l 1,15,-1
 640 256 l 1,16,-1
 640 128 l 1,17,-1
 512 128 l 1,18,-1
 512 -128 l 1,19,-1
 256 -128 l 1,20,-1
 256 128 l 1,21,-1
 128 128 l 1,22,-1
 128 256 l 1,23,-1
 0 256 l 1,24,-1
 0 768 l 1,25,-1
 128 768 l 1,26,-1
 128 896 l 1,27,-1
 256 896 l 1,0,-1
EndSplineSet
Validated: 3073
EndChar

StartChar: sterling
Encoding: 163 163 124
Width: 1024
VWidth: 26
Flags: W
HStem: 0 256<0 128> 0 128<256 896> 512 128<0 128 384 768> 1024 128<768 896> 1152 128<384 640>
VStem: 0 256<128 256> 128 256<256 512 640 1152> 640 256<1024 1152>
LayerCount: 2
Fore
SplineSet
256 1152 m 1,0,-1
 256 1280 l 1,1,-1
 768 1280 l 1,2,-1
 768 1152 l 1,3,-1
 896 1152 l 1,4,-1
 896 1024 l 1,5,-1
 640 1024 l 1,6,-1
 640 1152 l 1,7,-1
 384 1152 l 1,8,-1
 384 640 l 1,9,-1
 768 640 l 1,10,-1
 768 512 l 1,11,-1
 384 512 l 1,12,-1
 384 256 l 1,13,-1
 256 256 l 1,14,-1
 256 128 l 1,15,-1
 896 128 l 1,16,-1
 896 0 l 1,17,-1
 0 0 l 1,18,-1
 0 256 l 1,19,-1
 128 256 l 1,20,-1
 128 512 l 1,21,-1
 0 512 l 1,22,-1
 0 640 l 1,23,-1
 128 640 l 1,24,-1
 128 1152 l 1,25,-1
 256 1152 l 1,0,-1
EndSplineSet
Validated: 3073
EndChar

StartChar: yen
Encoding: 165 165 125
Width: 1024
VWidth: 26
Flags: W
HStem: 0 21G<256 512> 256 128<0 256 512 768> 512 128<0 128 640 768>
VStem: 0 256<768 1280> 256 256<0 256 384 512> 512 256<768 1280>
LayerCount: 2
Fore
SplineSet
0 768 m 1,0,-1
 0 1280 l 1,1,-1
 256 1280 l 1,2,-1
 256 768 l 1,3,-1
 512 768 l 1,4,-1
 512 1280 l 1,5,-1
 768 1280 l 1,6,-1
 768 768 l 1,7,-1
 640 768 l 1,8,-1
 640 640 l 1,9,-1
 768 640 l 1,10,-1
 768 512 l 1,11,-1
 512 512 l 1,12,-1
 512 384 l 1,13,-1
 768 384 l 1,14,-1
 768 256 l 1,15,-1
 512 256 l 1,16,-1
 512 0 l 1,17,-1
 256 0 l 1,18,-1
 256 256 l 1,19,-1
 0 256 l 1,20,-1
 0 384 l 1,21,-1
 256 384 l 1,22,-1
 256 512 l 1,23,-1
 0 512 l 1,24,-1
 0 640 l 1,25,-1
 128 640 l 1,26,-1
 128 768 l 1,27,-1
 0 768 l 1,0,-1
EndSplineSet
Validated: 3073
EndChar

StartChar: peseta
Encoding: 8359 8359 126
Width: 1024
VWidth: 26
Flags: W
HStem: 0 128<768 896> 128 128<896 1024> 384 128<384 512 768 896> 640 128<128 512> 1132 20G<512 640> 1152 128<128 512>
VStem: 0 128<0 640 768 1152> 512 256<128 384> 512 128<512 640 768 1152> 640 256<0 128> 896 128<128 256>
LayerCount: 2
Fore
SplineSet
0 0 m 1,0,-1
 0 1280 l 1,1,-1
 512 1280 l 1,2,-1
 512 1152 l 1,3,-1
 128 1152 l 1,4,-1
 128 768 l 1,5,-1
 512 768 l 1,6,-1
 512 1152 l 1,7,-1
 640 1152 l 1,8,-1
 640 768 l 1,9,-1
 512 768 l 1,10,-1
 512 640 l 1,11,-1
 128 640 l 1,12,-1
 128 0 l 1,13,-1
 0 0 l 1,0,-1
896 128 m 1,14,-1
 896 0 l 1,15,-1
 640 0 l 1,16,-1
 640 128 l 1,17,-1
 512 128 l 1,18,-1
 512 384 l 1,19,-1
 384 384 l 1,20,-1
 384 512 l 1,21,-1
 512 512 l 1,22,-1
 512 640 l 1,23,-1
 640 640 l 1,24,-1
 640 512 l 1,25,-1
 896 512 l 1,26,-1
 896 384 l 1,27,-1
 768 384 l 1,28,-1
 768 128 l 1,29,-1
 896 128 l 1,14,-1
896 128 m 1,30,-1
 896 256 l 1,31,-1
 1024 256 l 1,32,-1
 1024 128 l 1,33,-1
 896 128 l 1,30,-1
EndSplineSet
Validated: 3077
EndChar

StartChar: florin
Encoding: 402 402 127
Width: 1024
VWidth: 26
Flags: W
HStem: 0 128<256 384> 128 128<0 128> 640 128<128 384 640 896> 1024 128<896 1024> 1152 128<640 768>
VStem: 0 256<128 256> 384 256<128 640 768 1152> 768 256<1024 1152>
CounterMasks: 1 07
LayerCount: 2
Fore
SplineSet
512 1152 m 1,0,-1
 512 1280 l 1,1,-1
 896 1280 l 1,2,-1
 896 1152 l 1,3,-1
 1024 1152 l 1,4,-1
 1024 1024 l 1,5,-1
 768 1024 l 1,6,-1
 768 1152 l 1,7,-1
 640 1152 l 1,8,-1
 640 768 l 1,9,-1
 896 768 l 1,10,-1
 896 640 l 1,11,-1
 640 640 l 1,12,-1
 640 128 l 1,13,-1
 512 128 l 1,14,-1
 512 0 l 1,15,-1
 128 0 l 1,16,-1
 128 128 l 1,17,-1
 0 128 l 1,18,-1
 0 256 l 1,19,-1
 256 256 l 1,20,-1
 256 128 l 1,21,-1
 384 128 l 1,22,-1
 384 640 l 1,23,-1
 128 640 l 1,24,-1
 128 768 l 1,25,-1
 384 768 l 1,26,-1
 384 1152 l 1,27,-1
 512 1152 l 1,0,-1
EndSplineSet
Validated: 3073
EndChar

StartChar: aacute
Encoding: 225 225 128
Width: 1024
Flags: W
HStem: 0 128<256 512 768 896> 128 256<0 128> 384 128<256 512> 640 128<128 512> 896 256<384 512> 896 128<256 384> 1024 256<512 640> 1152 128<640 768>
VStem: 0 256<128 384> 256 256<896 1024> 384 256<1024 1152> 512 256<128 384 512 640 1152 1280> 640 256<0 128>
LayerCount: 2
Fore
SplineSet
128 640 m 1,0,-1
 128 768 l 1,1,-1
 640 768 l 1,2,-1
 640 640 l 1,3,-1
 768 640 l 1,4,-1
 768 128 l 1,5,-1
 896 128 l 1,6,-1
 896 0 l 1,7,-1
 640 0 l 1,8,-1
 640 128 l 1,9,-1
 512 128 l 1,10,-1
 512 0 l 1,11,-1
 128 0 l 1,12,-1
 128 128 l 1,13,-1
 0 128 l 1,14,-1
 0 384 l 1,15,-1
 128 384 l 1,16,-1
 128 512 l 1,17,-1
 512 512 l 1,18,-1
 512 640 l 1,19,-1
 128 640 l 1,0,-1
512 128 m 1,20,-1
 512 384 l 1,21,-1
 256 384 l 1,22,-1
 256 128 l 1,23,-1
 512 128 l 1,20,-1
512 1152 m 1,24,-1
 512 1280 l 1,25,-1
 768 1280 l 1,26,-1
 768 1152 l 1,27,-1
 640 1152 l 1,28,-1
 640 1024 l 1,29,-1
 512 1024 l 1,30,-1
 512 896 l 1,31,-1
 256 896 l 1,32,-1
 256 1024 l 1,33,-1
 384 1024 l 1,34,-1
 384 1152 l 1,35,-1
 512 1152 l 1,24,-1
EndSplineSet
Validated: 3077
EndChar

StartChar: iacute
Encoding: 237 237 129
Width: 1024
Flags: W
HStem: 0 128<128 384 640 896> 640 128<128 384> 896 256<384 512> 896 128<256 384> 1024 256<512 640> 1152 128<640 768>
VStem: 256 256<896 1024> 384 256<128 640 1024 1152> 512 256<1152 1280>
LayerCount: 2
Fore
SplineSet
128 640 m 1,0,-1
 128 768 l 1,1,-1
 640 768 l 1,2,-1
 640 128 l 1,3,-1
 896 128 l 1,4,-1
 896 0 l 1,5,-1
 128 0 l 1,6,-1
 128 128 l 1,7,-1
 384 128 l 1,8,-1
 384 640 l 1,9,-1
 128 640 l 1,0,-1
512 1152 m 1,10,-1
 512 1280 l 1,11,-1
 768 1280 l 1,12,-1
 768 1152 l 1,13,-1
 640 1152 l 1,14,-1
 640 1024 l 1,15,-1
 512 1024 l 1,16,-1
 512 896 l 1,17,-1
 256 896 l 1,18,-1
 256 1024 l 1,19,-1
 384 1024 l 1,20,-1
 384 1152 l 1,21,-1
 512 1152 l 1,10,-1
EndSplineSet
Validated: 3073
EndChar

StartChar: oacute
Encoding: 243 243 130
Width: 1024
Flags: W
HStem: 0 128<256 512> 640 128<256 512> 896 256<384 512> 896 128<256 384> 1024 256<512 640> 1152 128<640 768>
VStem: 0 256<128 640> 256 256<896 1024> 384 256<1024 1152> 512 256<128 640 1152 1280>
LayerCount: 2
Fore
SplineSet
128 640 m 1,0,-1
 128 768 l 1,1,-1
 640 768 l 1,2,-1
 640 640 l 1,3,-1
 768 640 l 1,4,-1
 768 128 l 1,5,-1
 640 128 l 1,6,-1
 640 0 l 1,7,-1
 128 0 l 1,8,-1
 128 128 l 1,9,-1
 0 128 l 1,10,-1
 0 640 l 1,11,-1
 128 640 l 1,0,-1
512 128 m 1,12,-1
 512 640 l 1,13,-1
 256 640 l 1,14,-1
 256 128 l 1,15,-1
 512 128 l 1,12,-1
512 1152 m 1,16,-1
 512 1280 l 1,17,-1
 768 1280 l 1,18,-1
 768 1152 l 1,19,-1
 640 1152 l 1,20,-1
 640 1024 l 1,21,-1
 512 1024 l 1,22,-1
 512 896 l 1,23,-1
 256 896 l 1,24,-1
 256 1024 l 1,25,-1
 384 1024 l 1,26,-1
 384 1152 l 1,27,-1
 512 1152 l 1,16,-1
EndSplineSet
Validated: 3073
EndChar

StartChar: uacute
Encoding: 250 250 131
Width: 1024
Flags: W
HStem: 0 128<256 512 768 896> 748 20G<0 256 512 768> 896 256<384 512> 896 128<256 384> 1024 256<512 640> 1152 128<640 768>
VStem: 0 256<128 768> 256 256<896 1024> 384 256<1024 1152> 512 256<128 768 1152 1280> 640 256<0 128>
LayerCount: 2
Fore
SplineSet
0 128 m 1,0,-1
 0 768 l 1,1,-1
 256 768 l 1,2,-1
 256 128 l 1,3,-1
 512 128 l 1,4,-1
 512 768 l 1,5,-1
 768 768 l 1,6,-1
 768 128 l 1,7,-1
 896 128 l 1,8,-1
 896 0 l 1,9,-1
 640 0 l 1,10,-1
 640 128 l 1,11,-1
 512 128 l 1,12,-1
 512 0 l 1,13,-1
 128 0 l 1,14,-1
 128 128 l 1,15,-1
 0 128 l 1,0,-1
512 1152 m 1,16,-1
 512 1280 l 1,17,-1
 768 1280 l 1,18,-1
 768 1152 l 1,19,-1
 640 1152 l 1,20,-1
 640 1024 l 1,21,-1
 512 1024 l 1,22,-1
 512 896 l 1,23,-1
 256 896 l 1,24,-1
 256 1024 l 1,25,-1
 384 1024 l 1,26,-1
 384 1152 l 1,27,-1
 512 1152 l 1,16,-1
EndSplineSet
Validated: 3077
EndChar

StartChar: ntilde
Encoding: 241 241 132
Width: 1024
VWidth: 26
Flags: W
HStem: 0 21G<0 256 512 768> 640 128<256 512> 896 128<0 128 512 640> 1024 128<256 384 768 896>
VStem: 0 256<0 640 896 1024> 512 256<0 640> 640 256<1024 1152>
LayerCount: 2
Fore
SplineSet
128 1024 m 1,0,-1
 128 1152 l 1,1,-1
 512 1152 l 1,2,-1
 512 1024 l 1,3,-1
 640 1024 l 1,4,-1
 640 1152 l 1,5,-1
 896 1152 l 1,6,-1
 896 1024 l 1,7,-1
 768 1024 l 1,8,-1
 768 896 l 1,9,-1
 384 896 l 1,10,-1
 384 1024 l 1,11,-1
 256 1024 l 1,12,-1
 256 896 l 1,13,-1
 0 896 l 1,14,-1
 0 1024 l 1,15,-1
 128 1024 l 1,0,-1
0 0 m 1,16,-1
 0 768 l 1,17,-1
 640 768 l 1,18,-1
 640 640 l 1,19,-1
 768 640 l 1,20,-1
 768 0 l 1,21,-1
 512 0 l 1,22,-1
 512 640 l 1,23,-1
 256 640 l 1,24,-1
 256 0 l 1,25,-1
 0 0 l 1,16,-1
EndSplineSet
Validated: 3073
EndChar

StartChar: Ntilde
Encoding: 209 209 133
Width: 1024
VWidth: 26
Flags: W
HStem: 0 21G<0 256 640 896> 256 256<512 640> 384 256<384 512> 512 256<256 384> 1024 128<0 128 512 640> 1152 128<256 384 768 896>
VStem: 0 256<0 512 768 896 1024 1152> 640 256<0 256 512 896 1152 1280>
LayerCount: 2
Fore
SplineSet
128 1152 m 1,0,-1
 128 1280 l 1,1,-1
 512 1280 l 1,2,-1
 512 1152 l 1,3,-1
 640 1152 l 1,4,-1
 640 1280 l 1,5,-1
 896 1280 l 1,6,-1
 896 1152 l 1,7,-1
 768 1152 l 1,8,-1
 768 1024 l 1,9,-1
 384 1024 l 1,10,-1
 384 1152 l 1,11,-1
 256 1152 l 1,12,-1
 256 1024 l 1,13,-1
 0 1024 l 1,14,-1
 0 1152 l 1,15,-1
 128 1152 l 1,0,-1
0 0 m 1,16,-1
 0 896 l 1,17,-1
 256 896 l 1,18,-1
 256 768 l 1,19,-1
 384 768 l 1,20,-1
 384 640 l 1,21,-1
 512 640 l 1,22,-1
 512 512 l 1,23,-1
 640 512 l 1,24,-1
 640 896 l 1,25,-1
 896 896 l 1,26,-1
 896 0 l 1,27,-1
 640 0 l 1,28,-1
 640 256 l 1,29,-1
 512 256 l 1,30,-1
 512 384 l 1,31,-1
 384 384 l 1,32,-1
 384 512 l 1,33,-1
 256 512 l 1,34,-1
 256 0 l 1,35,-1
 0 0 l 1,16,-1
EndSplineSet
Validated: 3073
EndChar

StartChar: ordfeminine
Encoding: 170 170 134
Width: 1024
VWidth: 26
Flags: W
HStem: 384 128<0 896> 640 128<256 512 768 896> 768 256<0 128> 1024 128<256 512>
VStem: 0 256<768 1024> 512 256<768 1024>
LayerCount: 2
Fore
SplineSet
512 768 m 1,0,-1
 512 1024 l 1,1,-1
 256 1024 l 1,2,-1
 256 768 l 1,3,-1
 512 768 l 1,0,-1
128 1024 m 1,4,-1
 128 1152 l 1,5,-1
 640 1152 l 1,6,-1
 640 1024 l 1,7,-1
 768 1024 l 1,8,-1
 768 768 l 1,9,-1
 896 768 l 1,10,-1
 896 640 l 1,11,-1
 128 640 l 1,12,-1
 128 768 l 1,13,-1
 0 768 l 1,14,-1
 0 1024 l 1,15,-1
 128 1024 l 1,4,-1
0 384 m 1,16,-1
 0 512 l 1,17,-1
 896 512 l 1,18,-1
 896 384 l 1,19,-1
 0 384 l 1,16,-1
EndSplineSet
Validated: 3073
EndChar

StartChar: ordmasculine
Encoding: 186 186 135
Width: 1024
VWidth: 26
Flags: W
HStem: 384 128<0 896> 640 128<256 512> 768 256<0 128 640 768> 1024 128<256 512>
VStem: 0 256<768 1024> 512 256<768 1024>
LayerCount: 2
Fore
SplineSet
512 768 m 1,0,-1
 512 1024 l 1,1,-1
 256 1024 l 1,2,-1
 256 768 l 1,3,-1
 512 768 l 1,0,-1
128 1024 m 1,4,-1
 128 1152 l 1,5,-1
 640 1152 l 1,6,-1
 640 1024 l 1,7,-1
 768 1024 l 1,8,-1
 768 768 l 1,9,-1
 640 768 l 1,10,-1
 640 640 l 1,11,-1
 128 640 l 1,12,-1
 128 768 l 1,13,-1
 0 768 l 1,14,-1
 0 1024 l 1,15,-1
 128 1024 l 1,4,-1
0 384 m 1,16,-1
 0 512 l 1,17,-1
 896 512 l 1,18,-1
 896 384 l 1,19,-1
 0 384 l 1,16,-1
EndSplineSet
Validated: 3073
EndChar

StartChar: questiondown
Encoding: 191 191 136
Width: 1024
VWidth: 26
Flags: W
HStem: 0 128<256 512> 128 128<640 768> 512 256<256 384> 640 128<384 512> 896 256<256 512>
VStem: 0 256<128 512> 128 256<512 640> 256 256<640 768 896 1152> 512 256<128 256>
LayerCount: 2
Fore
SplineSet
256 896 m 1,0,-1
 256 1152 l 1,1,-1
 512 1152 l 1,2,-1
 512 896 l 1,3,-1
 256 896 l 1,0,-1
256 640 m 1,4,-1
 256 768 l 1,5,-1
 512 768 l 1,6,-1
 512 640 l 1,7,-1
 384 640 l 1,8,-1
 384 512 l 1,9,-1
 256 512 l 1,10,-1
 256 128 l 1,11,-1
 512 128 l 1,12,-1
 512 256 l 1,13,-1
 768 256 l 1,14,-1
 768 128 l 1,15,-1
 640 128 l 1,16,-1
 640 0 l 1,17,-1
 128 0 l 1,18,-1
 128 128 l 1,19,-1
 0 128 l 1,20,-1
 0 512 l 1,21,-1
 128 512 l 1,22,-1
 128 640 l 1,23,-1
 256 640 l 1,4,-1
EndSplineSet
Validated: 3073
EndChar

StartChar: revlogicalnot
Encoding: 8976 8976 137
Width: 1024
VWidth: 26
Flags: W
HStem: 512 128<256 768>
VStem: 0 256<128 512>
LayerCount: 2
Fore
SplineSet
0 128 m 1,0,-1
 0 640 l 1,1,-1
 768 640 l 1,2,-1
 768 512 l 1,3,-1
 256 512 l 1,4,-1
 256 128 l 1,5,-1
 0 128 l 1,0,-1
EndSplineSet
Validated: 3073
EndChar

StartChar: logicalnot
Encoding: 172 172 138
Width: 1024
VWidth: 26
Flags: W
HStem: 512 128<0 512>
VStem: 512 256<128 512>
LayerCount: 2
Fore
SplineSet
0 512 m 1,0,-1
 0 640 l 1,1,-1
 768 640 l 1,2,-1
 768 128 l 1,3,-1
 512 128 l 1,4,-1
 512 512 l 1,5,-1
 0 512 l 1,0,-1
EndSplineSet
Validated: 3073
EndChar

StartChar: onehalf
Encoding: 189 189 139
Width: 1024
VWidth: 26
Flags: W
HStem: -128 256<512 640> -128 128<384 512 768 1024> 128 256<0 128> 256 128<896 1024> 384 256<256 384> 384 128<512 768> 512 256<384 512> 640 256<512 640> 768 256<640 768> 896 256<768 896>
VStem: 0 128<128 256> 128 256<384 512> 128 128<1024 1152> 256 256<512 640> 384 256<640 768> 512 256<0 128 768 896> 640 256<128 256 896 1024> 768 256<256 384> 768 128<1024 1152>
LayerCount: 2
Fore
SplineSet
128 1024 m 1,0,-1
 128 1152 l 1,1,-1
 256 1152 l 1,2,-1
 256 640 l 1,3,-1
 0 640 l 1,4,-1
 0 1024 l 1,5,-1
 128 1024 l 1,0,-1
512 512 m 1,6,-1
 384 512 l 1,7,-1
 384 384 l 1,8,-1
 256 384 l 1,9,-1
 256 256 l 1,10,-1
 128 256 l 1,11,-1
 128 128 l 1,12,-1
 0 128 l 1,13,-1
 0 384 l 1,14,-1
 128 384 l 1,15,-1
 128 512 l 1,16,-1
 256 512 l 1,17,-1
 256 640 l 1,18,-1
 384 640 l 1,19,-1
 384 768 l 1,20,-1
 512 768 l 1,21,-1
 512 896 l 1,22,-1
 640 896 l 1,23,-1
 640 1024 l 1,24,-1
 768 1024 l 1,25,-1
 768 1152 l 1,26,-1
 896 1152 l 1,27,-1
 896 896 l 1,28,-1
 768 896 l 1,29,-1
 768 768 l 1,30,-1
 640 768 l 1,31,-1
 640 640 l 1,32,-1
 512 640 l 1,33,-1
 512 512 l 1,6,-1
512 512 m 1,34,-1
 896 512 l 1,35,-1
 896 384 l 1,36,-1
 1024 384 l 1,37,-1
 1024 256 l 1,38,-1
 896 256 l 1,39,-1
 896 128 l 1,40,-1
 768 128 l 1,41,-1
 768 0 l 1,42,-1
 1024 0 l 1,43,-1
 1024 -128 l 1,44,-1
 384 -128 l 1,45,-1
 384 0 l 1,46,-1
 512 0 l 1,47,-1
 512 128 l 1,48,-1
 640 128 l 1,49,-1
 640 256 l 1,50,-1
 768 256 l 1,51,-1
 768 384 l 1,52,-1
 512 384 l 1,53,-1
 512 512 l 1,34,-1
EndSplineSet
Validated: 3077
EndChar

StartChar: onequarter
Encoding: 188 188 140
Width: 1024
VWidth: 26
Flags: W
HStem: -128 21G<768 1024> 0 256<256 384> 0 128<512 768> 128 256<0 128> 256 256<128 256 512 640> 384 256<640 768> 640 256<512 640> 768 256<640 768> 896 128<0 128> 1024 128<896 1024>
VStem: 0 256<256 384> 0 128<128 256> 128 256<384 512 768 896 1024 1152> 256 256<128 256 512 640> 384 256<256 384> 512 256<768 896> 640 256<896 1024> 768 256<-128 0 128 384 1024 1152>
LayerCount: 2
Fore
SplineSet
768 128 m 1,0,-1
 768 384 l 1,1,-1
 640 384 l 1,2,-1
 640 256 l 1,3,-1
 512 256 l 1,4,-1
 512 128 l 1,5,-1
 768 128 l 1,0,-1
128 1024 m 1,6,-1
 128 1152 l 1,7,-1
 384 1152 l 1,8,-1
 384 768 l 1,9,-1
 512 768 l 1,10,-1
 512 896 l 1,11,-1
 640 896 l 1,12,-1
 640 1024 l 1,13,-1
 768 1024 l 1,14,-1
 768 1152 l 1,15,-1
 1024 1152 l 1,16,-1
 1024 1024 l 1,17,-1
 896 1024 l 1,18,-1
 896 896 l 1,19,-1
 768 896 l 1,20,-1
 768 768 l 1,21,-1
 640 768 l 1,22,-1
 640 640 l 1,23,-1
 512 640 l 1,24,-1
 512 512 l 1,25,-1
 640 512 l 1,26,-1
 640 640 l 1,27,-1
 1024 640 l 1,28,-1
 1024 -128 l 1,29,-1
 768 -128 l 1,30,-1
 768 0 l 1,31,-1
 256 0 l 1,32,-1
 256 256 l 1,33,-1
 384 256 l 1,34,-1
 384 384 l 1,35,-1
 512 384 l 1,36,-1
 512 512 l 1,37,-1
 384 512 l 1,38,-1
 384 384 l 1,39,-1
 256 384 l 1,40,-1
 256 256 l 1,41,-1
 128 256 l 1,42,-1
 128 128 l 1,43,-1
 0 128 l 1,44,-1
 0 384 l 1,45,-1
 128 384 l 1,46,-1
 128 512 l 1,47,-1
 256 512 l 1,48,-1
 256 640 l 1,49,-1
 128 640 l 1,50,-1
 128 896 l 1,51,-1
 0 896 l 1,52,-1
 0 1024 l 1,53,-1
 128 1024 l 1,6,-1
EndSplineSet
Validated: 3077
EndChar

StartChar: exclamdown
Encoding: 161 161 141
Width: 1024
VWidth: 26
Flags: W
HStem: 0 21G<256 512> 128 384<128 256 512 640> 748 20G<256 512> 896 256<256 512>
VStem: 128 512<128 512> 256 256<0 128 512 768 896 1152>
LayerCount: 2
Fore
SplineSet
256 896 m 1,0,-1
 256 1152 l 1,1,-1
 512 1152 l 1,2,-1
 512 896 l 1,3,-1
 256 896 l 1,0,-1
256 512 m 1,4,-1
 256 768 l 1,5,-1
 512 768 l 1,6,-1
 512 512 l 1,7,-1
 640 512 l 1,8,-1
 640 128 l 1,9,-1
 512 128 l 1,10,-1
 512 0 l 1,11,-1
 256 0 l 1,12,-1
 256 128 l 1,13,-1
 128 128 l 1,14,-1
 128 512 l 1,15,-1
 256 512 l 1,4,-1
EndSplineSet
Validated: 3073
EndChar

StartChar: guillemotleft
Encoding: 171 171 142
Width: 1024
VWidth: 26
Flags: W
HStem: 0 256<256 384 768 896> 0 128<384 512 896 1024> 256 256<0 128 512 640> 512 256<256 384 768 896> 640 128<384 512 896 1024>
VStem: 0 256<256 512> 128 256<128 256 512 640> 256 256<0 128 640 768> 512 256<256 512> 640 256<128 256 512 640> 768 256<0 128 640 768>
LayerCount: 2
Fore
SplineSet
256 640 m 1,0,-1
 256 768 l 1,1,-1
 512 768 l 1,2,-1
 512 640 l 1,3,-1
 384 640 l 1,4,-1
 384 512 l 1,5,-1
 256 512 l 1,6,-1
 256 256 l 1,7,-1
 384 256 l 1,8,-1
 384 128 l 1,9,-1
 512 128 l 1,10,-1
 512 0 l 1,11,-1
 256 0 l 1,12,-1
 256 128 l 1,13,-1
 128 128 l 1,14,-1
 128 256 l 1,15,-1
 0 256 l 1,16,-1
 0 512 l 1,17,-1
 128 512 l 1,18,-1
 128 640 l 1,19,-1
 256 640 l 1,0,-1
768 640 m 1,20,-1
 768 768 l 1,21,-1
 1024 768 l 1,22,-1
 1024 640 l 1,23,-1
 896 640 l 1,24,-1
 896 512 l 1,25,-1
 768 512 l 1,26,-1
 768 256 l 1,27,-1
 896 256 l 1,28,-1
 896 128 l 1,29,-1
 1024 128 l 1,30,-1
 1024 0 l 1,31,-1
 768 0 l 1,32,-1
 768 128 l 1,33,-1
 640 128 l 1,34,-1
 640 256 l 1,35,-1
 512 256 l 1,36,-1
 512 512 l 1,37,-1
 640 512 l 1,38,-1
 640 640 l 1,39,-1
 768 640 l 1,20,-1
EndSplineSet
Validated: 3073
EndChar

StartChar: guillemotright
Encoding: 187 187 143
Width: 1024
Flags: W
HStem: 0 256<128 256 640 768> 0 128<0 128 512 640> 256 256<384 512 896 1024> 512 256<128 256 640 768> 640 128<0 128 512 640>
VStem: 0 256<0 128 640 768> 128 256<128 256 512 640> 256 256<256 512> 512 256<0 128 640 768> 640 256<128 256 512 640> 768 256<256 512>
LayerCount: 2
Fore
SplineSet
512 640 m 1,0,-1
 512 768 l 1,1,-1
 768 768 l 1,2,-1
 768 640 l 1,3,-1
 896 640 l 1,4,-1
 896 512 l 1,5,-1
 1024 512 l 1,6,-1
 1024 256 l 1,7,-1
 896 256 l 1,8,-1
 896 128 l 1,9,-1
 768 128 l 1,10,-1
 768 0 l 1,11,-1
 512 0 l 1,12,-1
 512 128 l 1,13,-1
 640 128 l 1,14,-1
 640 256 l 1,15,-1
 768 256 l 1,16,-1
 768 512 l 1,17,-1
 640 512 l 1,18,-1
 640 640 l 1,19,-1
 512 640 l 1,0,-1
0 640 m 1,20,-1
 0 768 l 1,21,-1
 256 768 l 1,22,-1
 256 640 l 1,23,-1
 384 640 l 1,24,-1
 384 512 l 1,25,-1
 512 512 l 1,26,-1
 512 256 l 1,27,-1
 384 256 l 1,28,-1
 384 128 l 1,29,-1
 256 128 l 1,30,-1
 256 0 l 1,31,-1
 0 0 l 1,32,-1
 0 128 l 1,33,-1
 128 128 l 1,34,-1
 128 256 l 1,35,-1
 256 256 l 1,36,-1
 256 512 l 1,37,-1
 128 512 l 1,38,-1
 128 640 l 1,39,-1
 0 640 l 1,20,-1
EndSplineSet
Validated: 3073
EndChar

StartChar: ltshade
Encoding: 9617 9617 144
Width: 1024
VWidth: 26
Flags: W
HStem: -256 128<128 256 512 640 896 1024> -128 128<0 128 384 512 768 896> 0 128<256 384 640 768> 128 128<128 256 512 640 896 1024> 256 128<0 128 384 512 768 896> 384 128<256 384 640 768> 512 128<128 256 512 640 896 1024> 640 128<0 128 384 512 768 896> 768 128<256 384 640 768> 896 128<128 256 512 640 896 1024> 1024 128<0 128 384 512 768 896> 1152 128<256 384 640 768>
VStem: 0 128<-128 0 256 384 640 768 1024 1152> 128 128<-256 -128 128 256 512 640 896 1024> 256 128<0 128 384 512 768 896 1152 1280> 384 128<-128 0 256 384 640 768 1024 1152> 512 128<-256 -128 128 256 512 640 896 1024> 640 128<0 128 384 512 768 896 1152 1280> 768 128<-128 0 256 384 640 768 1024 1152> 896 128<-256 -128 128 256 512 640 896 1024>
LayerCount: 2
Fore
SplineSet
256 1152 m 1,0,-1
 256 1280 l 1,1,-1
 384 1280 l 1,2,-1
 384 1152 l 1,3,-1
 256 1152 l 1,0,-1
640 1152 m 1,4,-1
 640 1280 l 1,5,-1
 768 1280 l 1,6,-1
 768 1152 l 1,7,-1
 640 1152 l 1,4,-1
0 1024 m 1,8,-1
 0 1152 l 1,9,-1
 128 1152 l 1,10,-1
 128 1024 l 1,11,-1
 0 1024 l 1,8,-1
0 640 m 1,12,-1
 0 768 l 1,13,-1
 128 768 l 1,14,-1
 128 640 l 1,15,-1
 0 640 l 1,12,-1
0 256 m 1,16,-1
 0 384 l 1,17,-1
 128 384 l 1,18,-1
 128 256 l 1,19,-1
 0 256 l 1,16,-1
0 -128 m 1,20,-1
 0 0 l 1,21,-1
 128 0 l 1,22,-1
 128 -128 l 1,23,-1
 0 -128 l 1,20,-1
896 640 m 1,24,-1
 768 640 l 1,25,-1
 768 768 l 1,26,-1
 640 768 l 1,27,-1
 640 896 l 1,28,-1
 512 896 l 1,29,-1
 512 1024 l 1,30,-1
 384 1024 l 1,31,-1
 384 1152 l 1,32,-1
 512 1152 l 1,33,-1
 512 1024 l 1,34,-1
 640 1024 l 1,35,-1
 640 896 l 1,36,-1
 768 896 l 1,37,-1
 768 768 l 1,38,-1
 896 768 l 1,39,-1
 896 640 l 1,24,-1
896 640 m 1,40,-1
 1024 640 l 1,41,-1
 1024 512 l 1,42,-1
 896 512 l 1,43,-1
 896 640 l 1,40,-1
896 1024 m 1,44,-1
 768 1024 l 1,45,-1
 768 1152 l 1,46,-1
 896 1152 l 1,47,-1
 896 1024 l 1,44,-1
896 1024 m 1,48,-1
 1024 1024 l 1,49,-1
 1024 896 l 1,50,-1
 896 896 l 1,51,-1
 896 1024 l 1,48,-1
896 256 m 1,52,-1
 768 256 l 1,53,-1
 768 384 l 1,54,-1
 640 384 l 1,55,-1
 640 512 l 1,56,-1
 512 512 l 1,57,-1
 512 640 l 1,58,-1
 384 640 l 1,59,-1
 384 768 l 1,60,-1
 256 768 l 1,61,-1
 256 896 l 1,62,-1
 128 896 l 1,63,-1
 128 1024 l 1,64,-1
 256 1024 l 1,65,-1
 256 896 l 1,66,-1
 384 896 l 1,67,-1
 384 768 l 1,68,-1
 512 768 l 1,69,-1
 512 640 l 1,70,-1
 640 640 l 1,71,-1
 640 512 l 1,72,-1
 768 512 l 1,73,-1
 768 384 l 1,74,-1
 896 384 l 1,75,-1
 896 256 l 1,52,-1
896 256 m 1,76,-1
 1024 256 l 1,77,-1
 1024 128 l 1,78,-1
 896 128 l 1,79,-1
 896 256 l 1,76,-1
896 -128 m 1,80,-1
 768 -128 l 1,81,-1
 768 0 l 1,82,-1
 640 0 l 1,83,-1
 640 128 l 1,84,-1
 512 128 l 1,85,-1
 512 256 l 1,86,-1
 384 256 l 1,87,-1
 384 384 l 1,88,-1
 256 384 l 1,89,-1
 256 512 l 1,90,-1
 128 512 l 1,91,-1
 128 640 l 1,92,-1
 256 640 l 1,93,-1
 256 512 l 1,94,-1
 384 512 l 1,95,-1
 384 384 l 1,96,-1
 512 384 l 1,97,-1
 512 256 l 1,98,-1
 640 256 l 1,99,-1
 640 128 l 1,100,-1
 768 128 l 1,101,-1
 768 0 l 1,102,-1
 896 0 l 1,103,-1
 896 -128 l 1,80,-1
896 -128 m 1,104,-1
 1024 -128 l 1,105,-1
 1024 -256 l 1,106,-1
 896 -256 l 1,107,-1
 896 -128 l 1,104,-1
512 -128 m 1,108,-1
 384 -128 l 1,109,-1
 384 0 l 1,110,-1
 256 0 l 1,111,-1
 256 128 l 1,112,-1
 128 128 l 1,113,-1
 128 256 l 1,114,-1
 256 256 l 1,115,-1
 256 128 l 1,116,-1
 384 128 l 1,117,-1
 384 0 l 1,118,-1
 512 0 l 1,119,-1
 512 -128 l 1,108,-1
512 -128 m 1,120,-1
 640 -128 l 1,121,-1
 640 -256 l 1,122,-1
 512 -256 l 1,123,-1
 512 -128 l 1,120,-1
128 -128 m 1,124,-1
 256 -128 l 1,125,-1
 256 -256 l 1,126,-1
 128 -256 l 1,127,-1
 128 -128 l 1,124,-1
EndSplineSet
Validated: 3077
EndChar

StartChar: shade
Encoding: 9618 9618 145
Width: 1024
VWidth: 26
Flags: W
HStem: -256 128<0 128 256 384 512 640 768 896> -128 128<128 256 384 512 640 768 896 1024> 0 128<0 128 256 384 512 640 768 896> 128 128<128 256 384 512 640 768 896 1024> 256 128<0 128 256 384 512 640 768 896> 384 128<128 256 384 512 640 768 896 1024> 512 128<0 128 256 384 512 640 768 896> 640 128<128 256 384 512 640 768 896 1024> 768 128<0 128 256 384 512 640 768 896> 896 128<128 256 384 512 640 768 896 1024> 1024 128<0 128 256 384 512 640 768 896> 1152 128<128 256 384 512 640 768 896 1024>
VStem: 0 128<-256 -128 0 128 256 384 512 640 768 896 1024 1152> 128 128<-128 0 128 256 384 512 640 768 896 1024 1152 1280> 256 128<-256 -128 0 128 256 384 512 640 768 896 1024 1152> 384 128<-128 0 128 256 384 512 640 768 896 1024 1152 1280> 512 128<-256 -128 0 128 256 384 512 640 768 896 1024 1152> 640 128<-128 0 128 256 384 512 640 768 896 1024 1152 1280> 768 128<-256 -128 0 128 256 384 512 640 768 896 1024 1152> 896 128<-128 0 128 256 384 512 640 768 896 1024 1152 1280>
LayerCount: 2
Fore
SplineSet
256 1152 m 1,0,-1
 128 1152 l 1,1,-1
 128 1280 l 1,2,-1
 256 1280 l 1,3,-1
 256 1152 l 1,0,-1
256 1152 m 1,4,-1
 384 1152 l 1,5,-1
 384 1024 l 1,6,-1
 256 1024 l 1,7,-1
 256 1152 l 1,4,-1
384 1152 m 1,8,-1
 384 1280 l 1,9,-1
 512 1280 l 1,10,-1
 512 1152 l 1,11,-1
 384 1152 l 1,8,-1
512 1152 m 1,12,-1
 640 1152 l 1,13,-1
 640 1024 l 1,14,-1
 512 1024 l 1,15,-1
 512 1152 l 1,12,-1
640 1152 m 1,16,-1
 640 1280 l 1,17,-1
 768 1280 l 1,18,-1
 768 1152 l 1,19,-1
 640 1152 l 1,16,-1
768 1152 m 1,20,-1
 896 1152 l 1,21,-1
 896 1024 l 1,22,-1
 768 1024 l 1,23,-1
 768 1152 l 1,20,-1
896 256 m 1,24,-1
 768 256 l 1,25,-1
 768 384 l 1,26,-1
 896 384 l 1,27,-1
 896 512 l 1,28,-1
 768 512 l 1,29,-1
 768 640 l 1,30,-1
 896 640 l 1,31,-1
 896 768 l 1,32,-1
 768 768 l 1,33,-1
 768 896 l 1,34,-1
 896 896 l 1,35,-1
 896 1024 l 1,36,-1
 1024 1024 l 1,37,-1
 1024 896 l 1,38,-1
 896 896 l 1,39,-1
 896 768 l 1,40,-1
 1024 768 l 1,41,-1
 1024 640 l 1,42,-1
 896 640 l 1,43,-1
 896 512 l 1,44,-1
 1024 512 l 1,45,-1
 1024 384 l 1,46,-1
 896 384 l 1,47,-1
 896 256 l 1,24,-1
896 256 m 1,48,-1
 1024 256 l 1,49,-1
 1024 128 l 1,50,-1
 896 128 l 1,51,-1
 896 256 l 1,48,-1
896 1152 m 1,52,-1
 896 1280 l 1,53,-1
 1024 1280 l 1,54,-1
 1024 1152 l 1,55,-1
 896 1152 l 1,52,-1
896 128 m 1,56,-1
 896 0 l 1,57,-1
 768 0 l 1,58,-1
 768 128 l 1,59,-1
 896 128 l 1,56,-1
896 0 m 1,60,-1
 1024 0 l 1,61,-1
 1024 -128 l 1,62,-1
 896 -128 l 1,63,-1
 896 0 l 1,60,-1
768 0 m 1,64,-1
 768 -128 l 1,65,-1
 896 -128 l 1,66,-1
 896 -256 l 1,67,-1
 768 -256 l 1,68,-1
 768 -128 l 1,69,-1
 640 -128 l 1,70,-1
 640 0 l 1,71,-1
 768 0 l 1,64,-1
384 -128 m 1,72,-1
 384 0 l 1,73,-1
 512 0 l 1,74,-1
 512 -128 l 1,75,-1
 640 -128 l 1,76,-1
 640 -256 l 1,77,-1
 512 -256 l 1,78,-1
 512 -128 l 1,79,-1
 384 -128 l 1,72,-1
384 -128 m 1,80,-1
 384 -256 l 1,81,-1
 256 -256 l 1,82,-1
 256 -128 l 1,83,-1
 384 -128 l 1,80,-1
256 -128 m 1,84,-1
 128 -128 l 1,85,-1
 128 0 l 1,86,-1
 256 0 l 1,87,-1
 256 -128 l 1,84,-1
256 1024 m 1,88,-1
 256 896 l 1,89,-1
 128 896 l 1,90,-1
 128 768 l 1,91,-1
 256 768 l 1,92,-1
 256 640 l 1,93,-1
 128 640 l 1,94,-1
 128 512 l 1,95,-1
 256 512 l 1,96,-1
 256 384 l 1,97,-1
 128 384 l 1,98,-1
 128 256 l 1,99,-1
 256 256 l 1,100,-1
 256 128 l 1,101,-1
 128 128 l 1,102,-1
 128 0 l 1,103,-1
 0 0 l 1,104,-1
 0 128 l 1,105,-1
 128 128 l 1,106,-1
 128 256 l 1,107,-1
 0 256 l 1,108,-1
 0 384 l 1,109,-1
 128 384 l 1,110,-1
 128 512 l 1,111,-1
 0 512 l 1,112,-1
 0 640 l 1,113,-1
 128 640 l 1,114,-1
 128 768 l 1,115,-1
 0 768 l 1,116,-1
 0 896 l 1,117,-1
 128 896 l 1,118,-1
 128 1024 l 1,119,-1
 256 1024 l 1,88,-1
128 1152 m 1,120,-1
 128 1024 l 1,121,-1
 0 1024 l 1,122,-1
 0 1152 l 1,123,-1
 128 1152 l 1,120,-1
128 -128 m 1,124,-1
 128 -256 l 1,125,-1
 0 -256 l 1,126,-1
 0 -128 l 1,127,-1
 128 -128 l 1,124,-1
512 768 m 1,128,-1
 512 896 l 1,129,-1
 384 896 l 1,130,-1
 384 768 l 1,131,-1
 512 768 l 1,128,-1
512 768 m 1,132,-1
 512 640 l 1,133,-1
 640 640 l 1,134,-1
 640 768 l 1,135,-1
 512 768 l 1,132,-1
512 640 m 1,136,-1
 384 640 l 1,137,-1
 384 512 l 1,138,-1
 512 512 l 1,139,-1
 512 640 l 1,136,-1
512 512 m 1,140,-1
 512 384 l 1,141,-1
 640 384 l 1,142,-1
 640 512 l 1,143,-1
 512 512 l 1,140,-1
512 384 m 1,144,-1
 384 384 l 1,145,-1
 384 256 l 1,146,-1
 512 256 l 1,147,-1
 512 384 l 1,144,-1
512 256 m 1,148,-1
 512 128 l 1,149,-1
 640 128 l 1,150,-1
 640 256 l 1,151,-1
 512 256 l 1,148,-1
512 128 m 1,152,-1
 384 128 l 1,153,-1
 384 256 l 1,154,-1
 256 256 l 1,155,-1
 256 384 l 1,156,-1
 384 384 l 1,157,-1
 384 512 l 1,158,-1
 256 512 l 1,159,-1
 256 640 l 1,160,-1
 384 640 l 1,161,-1
 384 768 l 1,162,-1
 256 768 l 1,163,-1
 256 896 l 1,164,-1
 384 896 l 1,165,-1
 384 1024 l 1,166,-1
 512 1024 l 1,167,-1
 512 896 l 1,168,-1
 640 896 l 1,169,-1
 640 768 l 1,170,-1
 768 768 l 1,171,-1
 768 640 l 1,172,-1
 640 640 l 1,173,-1
 640 512 l 1,174,-1
 768 512 l 1,175,-1
 768 384 l 1,176,-1
 640 384 l 1,177,-1
 640 256 l 1,178,-1
 768 256 l 1,179,-1
 768 128 l 1,180,-1
 640 128 l 1,181,-1
 640 0 l 1,182,-1
 512 0 l 1,183,-1
 512 128 l 1,152,-1
768 896 m 1,184,-1
 640 896 l 1,185,-1
 640 1024 l 1,186,-1
 768 1024 l 1,187,-1
 768 896 l 1,184,-1
256 128 m 1,188,-1
 384 128 l 1,189,-1
 384 0 l 1,190,-1
 256 0 l 1,191,-1
 256 128 l 1,188,-1
EndSplineSet
Validated: 3077
EndChar

StartChar: dkshade
Encoding: 9619 9619 146
Width: 1024
VWidth: 26
Flags: W
HStem: -256 256<0 128 384 512 768 896> -256 128<256 384 640 768> -128 256<128 256 512 640 896 1024> 0 256<256 384 640 768> 128 256<0 128 384 512 768 896> 256 256<128 256 512 640 896 1024> 384 256<256 384 640 768> 512 256<0 128 384 512 768 896> 640 256<128 256 512 640 896 1024> 768 256<256 384 640 768> 896 256<0 128 384 512 768 896> 1024 256<128 256 512 640 896 1024> 1152 128<256 384 640 768>
VStem: 0 256<-128 0 256 384 640 768 1024 1152> 0 128<-256 -128 128 256 512 640 896 1024> 128 256<0 128 384 512 768 896 1152 1280> 256 256<-256 -128 128 256 512 640 896 1024> 384 256<-128 0 256 384 640 768 1024 1152> 512 256<0 128 384 512 768 896 1152 1280> 640 256<-256 -128 128 256 512 640 896 1024> 768 256<-128 0 256 384 640 768 1024 1152> 896 128<0 128 384 512 768 896 1152 1280>
LayerCount: 2
Fore
SplineSet
128 1152 m 1,0,-1
 128 1280 l 1,1,-1
 384 1280 l 1,2,-1
 384 1152 l 1,3,-1
 256 1152 l 1,4,-1
 256 1024 l 1,5,-1
 384 1024 l 1,6,-1
 384 1152 l 1,7,-1
 512 1152 l 1,8,-1
 512 1280 l 1,9,-1
 768 1280 l 1,10,-1
 768 1152 l 1,11,-1
 640 1152 l 1,12,-1
 640 1024 l 1,13,-1
 768 1024 l 1,14,-1
 768 1152 l 1,15,-1
 896 1152 l 1,16,-1
 896 1280 l 1,17,-1
 1024 1280 l 1,18,-1
 1024 1024 l 1,19,-1
 896 1024 l 1,20,-1
 896 896 l 1,21,-1
 768 896 l 1,22,-1
 768 768 l 1,23,-1
 896 768 l 1,24,-1
 896 896 l 1,25,-1
 1024 896 l 1,26,-1
 1024 640 l 1,27,-1
 896 640 l 1,28,-1
 896 512 l 1,29,-1
 768 512 l 1,30,-1
 768 384 l 1,31,-1
 896 384 l 1,32,-1
 896 512 l 1,33,-1
 1024 512 l 1,34,-1
 1024 256 l 1,35,-1
 896 256 l 1,36,-1
 896 128 l 1,37,-1
 768 128 l 1,38,-1
 768 0 l 1,39,-1
 896 0 l 1,40,-1
 896 128 l 1,41,-1
 1024 128 l 1,42,-1
 1024 -128 l 1,43,-1
 896 -128 l 1,44,-1
 896 -256 l 1,45,-1
 640 -256 l 1,46,-1
 640 -128 l 1,47,-1
 768 -128 l 1,48,-1
 768 0 l 1,49,-1
 640 0 l 1,50,-1
 640 -128 l 1,51,-1
 512 -128 l 1,52,-1
 512 -256 l 1,53,-1
 256 -256 l 1,54,-1
 256 -128 l 1,55,-1
 384 -128 l 1,56,-1
 384 0 l 1,57,-1
 512 0 l 1,58,-1
 512 128 l 1,59,-1
 640 128 l 1,60,-1
 640 256 l 1,61,-1
 768 256 l 1,62,-1
 768 384 l 1,63,-1
 640 384 l 1,64,-1
 640 256 l 1,65,-1
 512 256 l 1,66,-1
 512 128 l 1,67,-1
 384 128 l 1,68,-1
 384 0 l 1,69,-1
 256 0 l 1,70,-1
 256 -128 l 1,71,-1
 128 -128 l 1,72,-1
 128 -256 l 1,73,-1
 0 -256 l 1,74,-1
 0 0 l 1,75,-1
 128 0 l 1,76,-1
 128 128 l 1,77,-1
 256 128 l 1,78,-1
 256 256 l 1,79,-1
 384 256 l 1,80,-1
 384 384 l 1,81,-1
 512 384 l 1,82,-1
 512 512 l 1,83,-1
 640 512 l 1,84,-1
 640 640 l 1,85,-1
 768 640 l 1,86,-1
 768 768 l 1,87,-1
 640 768 l 1,88,-1
 640 640 l 1,89,-1
 512 640 l 1,90,-1
 512 512 l 1,91,-1
 384 512 l 1,92,-1
 384 384 l 1,93,-1
 256 384 l 1,94,-1
 256 256 l 1,95,-1
 128 256 l 1,96,-1
 128 128 l 1,97,-1
 0 128 l 1,98,-1
 0 384 l 1,99,-1
 128 384 l 1,100,-1
 128 512 l 1,101,-1
 256 512 l 1,102,-1
 256 640 l 1,103,-1
 384 640 l 1,104,-1
 384 768 l 1,105,-1
 512 768 l 1,106,-1
 512 896 l 1,107,-1
 640 896 l 1,108,-1
 640 1024 l 1,109,-1
 512 1024 l 1,110,-1
 512 896 l 1,111,-1
 384 896 l 1,112,-1
 384 768 l 1,113,-1
 256 768 l 1,114,-1
 256 640 l 1,115,-1
 128 640 l 1,116,-1
 128 512 l 1,117,-1
 0 512 l 1,118,-1
 0 768 l 1,119,-1
 128 768 l 1,120,-1
 128 896 l 1,121,-1
 256 896 l 1,122,-1
 256 1024 l 1,123,-1
 128 1024 l 1,124,-1
 128 896 l 1,125,-1
 0 896 l 1,126,-1
 0 1152 l 1,127,-1
 128 1152 l 1,0,-1
EndSplineSet
Validated: 3077
EndChar

StartChar: SF110000
Encoding: 9474 9474 147
Width: 1024
VWidth: 26
Flags: W
HStem: -256 21G<384 640>
VStem: 384 256<-256 1280>
LayerCount: 2
Fore
SplineSet
384 -256 m 1,0,-1
 384 1280 l 1,1,-1
 640 1280 l 1,2,-1
 640 -256 l 1,3,-1
 384 -256 l 1,0,-1
EndSplineSet
Validated: 3073
EndChar

StartChar: SF090000
Encoding: 9508 9508 148
Width: 1024
VWidth: 26
Flags: W
HStem: -256 21G<384 640> 512 128<0 384>
VStem: 384 256<-256 512 640 1280>
LayerCount: 2
Fore
SplineSet
384 640 m 1,0,-1
 384 1280 l 1,1,-1
 640 1280 l 1,2,-1
 640 -256 l 1,3,-1
 384 -256 l 1,4,-1
 384 512 l 1,5,-1
 0 512 l 1,6,-1
 0 640 l 1,7,-1
 384 640 l 1,0,-1
EndSplineSet
Validated: 3073
EndChar

StartChar: SF190000
Encoding: 9569 9569 149
Width: 1024
VWidth: 26
Flags: W
HStem: -256 21G<384 640> 256 128<0 384> 640 128<0 384>
VStem: 384 256<-256 256 384 640 768 1280>
LayerCount: 2
Fore
SplineSet
384 768 m 1,0,-1
 384 1280 l 1,1,-1
 640 1280 l 1,2,-1
 640 -256 l 1,3,-1
 384 -256 l 1,4,-1
 384 256 l 1,5,-1
 0 256 l 1,6,-1
 0 384 l 1,7,-1
 384 384 l 1,8,-1
 384 640 l 1,9,-1
 0 640 l 1,10,-1
 0 768 l 1,11,-1
 384 768 l 1,0,-1
EndSplineSet
Validated: 3073
EndChar

StartChar: SF200000
Encoding: 9570 9570 150
Width: 1024
VWidth: 26
Flags: W
HStem: -256 21G<128 384 640 896> 512 128<0 128>
VStem: 128 256<-256 512 640 1280> 640 256<-256 1280>
LayerCount: 2
Fore
SplineSet
128 640 m 1,0,-1
 128 1280 l 1,1,-1
 384 1280 l 1,2,-1
 384 -256 l 1,3,-1
 128 -256 l 1,4,-1
 128 512 l 1,5,-1
 0 512 l 1,6,-1
 0 640 l 1,7,-1
 128 640 l 1,0,-1
640 -256 m 1,8,-1
 640 1280 l 1,9,-1
 896 1280 l 1,10,-1
 896 -256 l 1,11,-1
 640 -256 l 1,8,-1
EndSplineSet
Validated: 3073
EndChar

StartChar: SF210000
Encoding: 9558 9558 151
Width: 1024
VWidth: 26
Flags: W
HStem: -256 21G<128 384 640 896> 512 128<0 128 384 640>
VStem: 128 256<-256 512> 640 256<-256 512>
LayerCount: 2
Fore
SplineSet
0 512 m 1,0,-1
 0 640 l 1,1,-1
 896 640 l 1,2,-1
 896 -256 l 1,3,-1
 640 -256 l 1,4,-1
 640 512 l 1,5,-1
 384 512 l 1,6,-1
 384 -256 l 1,7,-1
 128 -256 l 1,8,-1
 128 512 l 1,9,-1
 0 512 l 1,0,-1
EndSplineSet
Validated: 3073
EndChar

StartChar: SF220000
Encoding: 9557 9557 152
Width: 1024
VWidth: 26
Flags: W
HStem: -256 21G<384 640> 256 128<0 384> 640 128<0 384>
VStem: 384 256<-256 256 384 640>
LayerCount: 2
Fore
SplineSet
0 640 m 1,0,-1
 0 768 l 1,1,-1
 640 768 l 1,2,-1
 640 -256 l 1,3,-1
 384 -256 l 1,4,-1
 384 256 l 1,5,-1
 0 256 l 1,6,-1
 0 384 l 1,7,-1
 384 384 l 1,8,-1
 384 640 l 1,9,-1
 0 640 l 1,0,-1
EndSplineSet
Validated: 3073
EndChar

StartChar: SF230000
Encoding: 9571 9571 153
Width: 1024
VWidth: 26
Flags: W
HStem: -256 21G<128 384 640 896> 256 128<0 128> 640 128<0 128>
VStem: 0 384<256 384 640 768> 128 256<-256 256 768 1280> 640 256<-256 1280>
LayerCount: 2
Fore
SplineSet
128 768 m 1,0,-1
 128 1280 l 1,1,-1
 384 1280 l 1,2,-1
 384 640 l 1,3,-1
 0 640 l 1,4,-1
 0 768 l 1,5,-1
 128 768 l 1,0,-1
640 -256 m 1,6,-1
 640 1280 l 1,7,-1
 896 1280 l 1,8,-1
 896 -256 l 1,9,-1
 640 -256 l 1,6,-1
0 256 m 1,10,-1
 0 384 l 1,11,-1
 384 384 l 1,12,-1
 384 -256 l 1,13,-1
 128 -256 l 1,14,-1
 128 256 l 1,15,-1
 0 256 l 1,10,-1
EndSplineSet
Validated: 3073
EndChar

StartChar: SF240000
Encoding: 9553 9553 154
Width: 1024
VWidth: 26
Flags: W
HStem: -256 21G<128 384 640 896>
VStem: 128 256<-256 1280> 640 256<-256 1280>
LayerCount: 2
Fore
SplineSet
128 -256 m 1,0,-1
 128 1280 l 1,1,-1
 384 1280 l 1,2,-1
 384 -256 l 1,3,-1
 128 -256 l 1,0,-1
640 -256 m 1,4,-1
 640 1280 l 1,5,-1
 896 1280 l 1,6,-1
 896 -256 l 1,7,-1
 640 -256 l 1,4,-1
EndSplineSet
Validated: 3073
EndChar

StartChar: SF250000
Encoding: 9559 9559 155
Width: 1024
VWidth: 26
Flags: W
HStem: -256 21G<128 384 640 896> 256 128<0 128> 640 128<0 640>
VStem: 128 256<-256 256> 640 256<-256 640>
LayerCount: 2
Fore
SplineSet
0 640 m 1,0,-1
 0 768 l 1,1,-1
 896 768 l 1,2,-1
 896 -256 l 1,3,-1
 640 -256 l 1,4,-1
 640 640 l 1,5,-1
 0 640 l 1,0,-1
0 256 m 1,6,-1
 0 384 l 1,7,-1
 384 384 l 1,8,-1
 384 -256 l 1,9,-1
 128 -256 l 1,10,-1
 128 256 l 1,11,-1
 0 256 l 1,6,-1
EndSplineSet
Validated: 3073
EndChar

StartChar: SF260000
Encoding: 9565 9565 156
Width: 1024
VWidth: 26
Flags: W
HStem: 256 128<0 640> 640 128<0 128>
VStem: 128 256<768 1280> 640 256<384 1280>
LayerCount: 2
Fore
SplineSet
128 768 m 1,0,-1
 128 1280 l 1,1,-1
 384 1280 l 1,2,-1
 384 640 l 1,3,-1
 0 640 l 1,4,-1
 0 768 l 1,5,-1
 128 768 l 1,0,-1
640 384 m 1,6,-1
 640 1280 l 1,7,-1
 896 1280 l 1,8,-1
 896 256 l 1,9,-1
 0 256 l 1,10,-1
 0 384 l 1,11,-1
 640 384 l 1,6,-1
EndSplineSet
Validated: 3073
EndChar

StartChar: SF270000
Encoding: 9564 9564 157
Width: 1024
VWidth: 26
Flags: W
HStem: 512 128<0 128 384 640>
VStem: 128 256<640 1280> 640 256<640 1280>
LayerCount: 2
Fore
SplineSet
128 640 m 1,0,-1
 128 1280 l 1,1,-1
 384 1280 l 1,2,-1
 384 640 l 1,3,-1
 640 640 l 1,4,-1
 640 1280 l 1,5,-1
 896 1280 l 1,6,-1
 896 512 l 1,7,-1
 0 512 l 1,8,-1
 0 640 l 1,9,-1
 128 640 l 1,0,-1
EndSplineSet
Validated: 3073
EndChar

StartChar: SF280000
Encoding: 9563 9563 158
Width: 1024
VWidth: 26
Flags: W
HStem: 256 128<0 384> 640 128<0 384>
VStem: 384 256<384 640 768 1280>
LayerCount: 2
Fore
SplineSet
384 768 m 1,0,-1
 384 1280 l 1,1,-1
 640 1280 l 1,2,-1
 640 256 l 1,3,-1
 0 256 l 1,4,-1
 0 384 l 1,5,-1
 384 384 l 1,6,-1
 384 640 l 1,7,-1
 0 640 l 1,8,-1
 0 768 l 1,9,-1
 384 768 l 1,0,-1
EndSplineSet
Validated: 3073
EndChar

StartChar: SF030000
Encoding: 9488 9488 159
Width: 1024
VWidth: 26
Flags: W
HStem: -256 21G<384 640> 512 128<0 384>
VStem: 384 256<-256 512>
LayerCount: 2
Fore
SplineSet
0 512 m 1,0,-1
 0 640 l 1,1,-1
 640 640 l 1,2,-1
 640 -256 l 1,3,-1
 384 -256 l 1,4,-1
 384 512 l 1,5,-1
 0 512 l 1,0,-1
EndSplineSet
Validated: 3073
EndChar

StartChar: SF020000
Encoding: 9492 9492 160
Width: 1024
VWidth: 26
Flags: W
HStem: 512 128<640 1024>
VStem: 384 256<640 1280>
LayerCount: 2
Fore
SplineSet
384 512 m 1,0,-1
 384 1280 l 1,1,-1
 640 1280 l 1,2,-1
 640 640 l 1,3,-1
 1024 640 l 1,4,-1
 1024 512 l 1,5,-1
 384 512 l 1,0,-1
EndSplineSet
Validated: 3073
EndChar

StartChar: SF070000
Encoding: 9524 9524 161
Width: 1024
VWidth: 26
Flags: W
HStem: 512 128<0 384 640 1024>
VStem: 384 256<640 1280>
LayerCount: 2
Fore
SplineSet
384 640 m 1,0,-1
 384 1280 l 1,1,-1
 640 1280 l 1,2,-1
 640 640 l 1,3,-1
 1024 640 l 1,4,-1
 1024 512 l 1,5,-1
 0 512 l 1,6,-1
 0 640 l 1,7,-1
 384 640 l 1,0,-1
EndSplineSet
Validated: 3073
EndChar

StartChar: SF060000
Encoding: 9516 9516 162
Width: 1024
VWidth: 26
Flags: W
HStem: -256 21G<384 640> 512 128<0 384 640 1024>
VStem: 384 256<-256 512>
LayerCount: 2
Fore
SplineSet
0 512 m 1,0,-1
 0 640 l 1,1,-1
 1024 640 l 1,2,-1
 1024 512 l 1,3,-1
 640 512 l 1,4,-1
 640 -256 l 1,5,-1
 384 -256 l 1,6,-1
 384 512 l 1,7,-1
 0 512 l 1,0,-1
EndSplineSet
Validated: 3073
EndChar

StartChar: SF080000
Encoding: 9500 9500 163
Width: 1024
VWidth: 26
Flags: W
HStem: -256 21G<384 640> 512 128<640 1024>
VStem: 384 256<-256 512 640 1280>
LayerCount: 2
Fore
SplineSet
384 -256 m 1,0,-1
 384 1280 l 1,1,-1
 640 1280 l 1,2,-1
 640 640 l 1,3,-1
 1024 640 l 1,4,-1
 1024 512 l 1,5,-1
 640 512 l 1,6,-1
 640 -256 l 1,7,-1
 384 -256 l 1,0,-1
EndSplineSet
Validated: 3073
EndChar

StartChar: SF100000
Encoding: 9472 9472 164
Width: 1024
VWidth: 26
Flags: W
HStem: 512 128<0 1024>
LayerCount: 2
Fore
SplineSet
0 512 m 1,0,-1
 0 640 l 1,1,-1
 1024 640 l 1,2,-1
 1024 512 l 1,3,-1
 0 512 l 1,0,-1
EndSplineSet
Validated: 3073
EndChar

StartChar: SF050000
Encoding: 9532 9532 165
Width: 1024
VWidth: 26
Flags: W
HStem: -256 21G<384 640> 512 128<0 384 640 1024>
VStem: 384 256<-256 512 640 1280>
LayerCount: 2
Fore
SplineSet
384 640 m 1,0,-1
 384 1280 l 1,1,-1
 640 1280 l 1,2,-1
 640 640 l 1,3,-1
 1024 640 l 1,4,-1
 1024 512 l 1,5,-1
 640 512 l 1,6,-1
 640 -256 l 1,7,-1
 384 -256 l 1,8,-1
 384 512 l 1,9,-1
 0 512 l 1,10,-1
 0 640 l 1,11,-1
 384 640 l 1,0,-1
EndSplineSet
Validated: 3073
EndChar

StartChar: SF360000
Encoding: 9566 9566 166
Width: 1024
VWidth: 26
Flags: W
HStem: -256 21G<384 640> 256 128<640 1024> 640 128<640 1024>
VStem: 384 256<-256 256 384 640 768 1280>
LayerCount: 2
Fore
SplineSet
384 -256 m 1,0,-1
 384 1280 l 1,1,-1
 640 1280 l 1,2,-1
 640 768 l 1,3,-1
 1024 768 l 1,4,-1
 1024 640 l 1,5,-1
 640 640 l 1,6,-1
 640 384 l 1,7,-1
 1024 384 l 1,8,-1
 1024 256 l 1,9,-1
 640 256 l 1,10,-1
 640 -256 l 1,11,-1
 384 -256 l 1,0,-1
EndSplineSet
Validated: 3073
EndChar

StartChar: SF370000
Encoding: 9567 9567 167
Width: 1024
VWidth: 26
Flags: W
HStem: -256 21G<128 384 640 896> 512 128<896 1024>
VStem: 128 256<-256 1280> 640 256<-256 512 640 1280>
LayerCount: 2
Fore
SplineSet
128 -256 m 1,0,-1
 128 1280 l 1,1,-1
 384 1280 l 1,2,-1
 384 -256 l 1,3,-1
 128 -256 l 1,0,-1
640 -256 m 1,4,-1
 640 1280 l 1,5,-1
 896 1280 l 1,6,-1
 896 640 l 1,7,-1
 1024 640 l 1,8,-1
 1024 512 l 1,9,-1
 896 512 l 1,10,-1
 896 -256 l 1,11,-1
 640 -256 l 1,4,-1
EndSplineSet
Validated: 3073
EndChar

StartChar: SF380000
Encoding: 9562 9562 168
Width: 1024
VWidth: 26
Flags: W
HStem: 256 128<384 1024> 640 128<896 1024>
VStem: 128 256<384 1280> 640 256<768 1280>
LayerCount: 2
Fore
SplineSet
128 256 m 1,0,-1
 128 1280 l 1,1,-1
 384 1280 l 1,2,-1
 384 384 l 1,3,-1
 1024 384 l 1,4,-1
 1024 256 l 1,5,-1
 128 256 l 1,0,-1
640 640 m 1,6,-1
 640 1280 l 1,7,-1
 896 1280 l 1,8,-1
 896 768 l 1,9,-1
 1024 768 l 1,10,-1
 1024 640 l 1,11,-1
 640 640 l 1,6,-1
EndSplineSet
Validated: 3073
EndChar

StartChar: SF390000
Encoding: 9556 9556 169
Width: 1024
VWidth: 26
Flags: W
HStem: -256 21G<128 384 640 896> 256 128<896 1024> 640 128<384 1024>
VStem: 128 256<-256 640> 640 256<-256 256>
LayerCount: 2
Fore
SplineSet
128 -256 m 1,0,-1
 128 768 l 1,1,-1
 1024 768 l 1,2,-1
 1024 640 l 1,3,-1
 384 640 l 1,4,-1
 384 -256 l 1,5,-1
 128 -256 l 1,0,-1
640 -256 m 1,6,-1
 640 384 l 1,7,-1
 1024 384 l 1,8,-1
 1024 256 l 1,9,-1
 896 256 l 1,10,-1
 896 -256 l 1,11,-1
 640 -256 l 1,6,-1
EndSplineSet
Validated: 3073
EndChar

StartChar: SF400000
Encoding: 9577 9577 170
Width: 1024
VWidth: 26
Flags: W
HStem: 256 128<0 1024> 640 640<128 384 640 896> 640 128<0 128 896 1024>
VStem: 128 256<768 1280> 640 256<768 1280>
LayerCount: 2
Fore
SplineSet
128 768 m 1,0,-1
 128 1280 l 1,1,-1
 384 1280 l 1,2,-1
 384 640 l 1,3,-1
 0 640 l 1,4,-1
 0 768 l 1,5,-1
 128 768 l 1,0,-1
640 640 m 1,6,-1
 640 1280 l 1,7,-1
 896 1280 l 1,8,-1
 896 768 l 1,9,-1
 1024 768 l 1,10,-1
 1024 640 l 1,11,-1
 640 640 l 1,6,-1
0 256 m 1,12,-1
 0 384 l 1,13,-1
 1024 384 l 1,14,-1
 1024 256 l 1,15,-1
 0 256 l 1,12,-1
EndSplineSet
Validated: 3073
EndChar

StartChar: SF410000
Encoding: 9574 9574 171
Width: 1024
VWidth: 26
Flags: W
HStem: -256 640<128 384 640 896> 256 128<0 128 896 1024> 640 128<0 1024>
VStem: 128 256<-256 256> 640 256<-256 256>
LayerCount: 2
Fore
SplineSet
0 640 m 1,0,-1
 0 768 l 1,1,-1
 1024 768 l 1,2,-1
 1024 640 l 1,3,-1
 0 640 l 1,0,-1
0 256 m 1,4,-1
 0 384 l 1,5,-1
 384 384 l 1,6,-1
 384 -256 l 1,7,-1
 128 -256 l 1,8,-1
 128 256 l 1,9,-1
 0 256 l 1,4,-1
640 -256 m 1,10,-1
 640 384 l 1,11,-1
 1024 384 l 1,12,-1
 1024 256 l 1,13,-1
 896 256 l 1,14,-1
 896 -256 l 1,15,-1
 640 -256 l 1,10,-1
EndSplineSet
Validated: 3073
EndChar

StartChar: SF420000
Encoding: 9568 9568 172
Width: 1024
VWidth: 26
Flags: W
HStem: -256 21G<128 384 640 896> 256 128<896 1024> 640 128<896 1024>
VStem: 128 256<-256 1280> 640 384<256 384 640 768> 640 256<-256 256 768 1280>
LayerCount: 2
Fore
SplineSet
128 -256 m 1,0,-1
 128 1280 l 1,1,-1
 384 1280 l 1,2,-1
 384 -256 l 1,3,-1
 128 -256 l 1,0,-1
640 640 m 1,4,-1
 640 1280 l 1,5,-1
 896 1280 l 1,6,-1
 896 768 l 1,7,-1
 1024 768 l 1,8,-1
 1024 640 l 1,9,-1
 640 640 l 1,4,-1
640 -256 m 1,10,-1
 640 384 l 1,11,-1
 1024 384 l 1,12,-1
 1024 256 l 1,13,-1
 896 256 l 1,14,-1
 896 -256 l 1,15,-1
 640 -256 l 1,10,-1
EndSplineSet
Validated: 3073
EndChar

StartChar: SF430000
Encoding: 9552 9552 173
Width: 1024
VWidth: 26
Flags: W
HStem: 256 128<0 1024> 640 128<0 1024>
LayerCount: 2
Fore
SplineSet
0 640 m 1,0,-1
 0 768 l 1,1,-1
 1024 768 l 1,2,-1
 1024 640 l 1,3,-1
 0 640 l 1,0,-1
0 256 m 1,4,-1
 0 384 l 1,5,-1
 1024 384 l 1,6,-1
 1024 256 l 1,7,-1
 0 256 l 1,4,-1
EndSplineSet
Validated: 3073
EndChar

StartChar: SF440000
Encoding: 9580 9580 174
Width: 1024
VWidth: 26
Flags: W
HStem: -256 640<128 384 640 896> 256 128<0 128 896 1024> 640 640<128 384 640 896> 640 128<0 128 896 1024>
VStem: 0 384<256 384 640 768> 128 256<-256 256 768 1280> 640 384<256 384 640 768> 640 256<-256 256 768 1280>
LayerCount: 2
Fore
SplineSet
128 768 m 1,0,-1
 128 1280 l 1,1,-1
 384 1280 l 1,2,-1
 384 640 l 1,3,-1
 0 640 l 1,4,-1
 0 768 l 1,5,-1
 128 768 l 1,0,-1
640 640 m 1,6,-1
 640 1280 l 1,7,-1
 896 1280 l 1,8,-1
 896 768 l 1,9,-1
 1024 768 l 1,10,-1
 1024 640 l 1,11,-1
 640 640 l 1,6,-1
0 256 m 1,12,-1
 0 384 l 1,13,-1
 384 384 l 1,14,-1
 384 -256 l 1,15,-1
 128 -256 l 1,16,-1
 128 256 l 1,17,-1
 0 256 l 1,12,-1
640 -256 m 1,18,-1
 640 384 l 1,19,-1
 1024 384 l 1,20,-1
 1024 256 l 1,21,-1
 896 256 l 1,22,-1
 896 -256 l 1,23,-1
 640 -256 l 1,18,-1
EndSplineSet
Validated: 3073
EndChar

StartChar: SF450000
Encoding: 9575 9575 175
Width: 1024
VWidth: 26
Flags: W
HStem: 256 128<0 1024> 640 128<0 384 640 1024>
VStem: 384 256<768 1280>
LayerCount: 2
Fore
SplineSet
384 768 m 1,0,-1
 384 1280 l 1,1,-1
 640 1280 l 1,2,-1
 640 768 l 1,3,-1
 1024 768 l 1,4,-1
 1024 640 l 1,5,-1
 0 640 l 1,6,-1
 0 768 l 1,7,-1
 384 768 l 1,0,-1
0 256 m 1,8,-1
 0 384 l 1,9,-1
 1024 384 l 1,10,-1
 1024 256 l 1,11,-1
 0 256 l 1,8,-1
EndSplineSet
Validated: 3073
EndChar

StartChar: SF460000
Encoding: 9576 9576 176
Width: 1024
VWidth: 26
Flags: W
HStem: 512 128<0 128 384 640 896 1024>
VStem: 128 256<640 1280> 640 256<640 1280>
LayerCount: 2
Fore
SplineSet
128 640 m 1,0,-1
 128 1280 l 1,1,-1
 384 1280 l 1,2,-1
 384 640 l 1,3,-1
 640 640 l 1,4,-1
 640 1280 l 1,5,-1
 896 1280 l 1,6,-1
 896 640 l 1,7,-1
 1024 640 l 1,8,-1
 1024 512 l 1,9,-1
 0 512 l 1,10,-1
 0 640 l 1,11,-1
 128 640 l 1,0,-1
EndSplineSet
Validated: 3073
EndChar

StartChar: SF470000
Encoding: 9572 9572 177
Width: 1024
VWidth: 26
Flags: W
HStem: -256 21G<384 640> 256 128<0 384 640 1024> 640 128<0 1024>
VStem: 384 256<-256 256>
LayerCount: 2
Fore
SplineSet
0 640 m 1,0,-1
 0 768 l 1,1,-1
 1024 768 l 1,2,-1
 1024 640 l 1,3,-1
 0 640 l 1,0,-1
0 256 m 1,4,-1
 0 384 l 1,5,-1
 1024 384 l 1,6,-1
 1024 256 l 1,7,-1
 640 256 l 1,8,-1
 640 -256 l 1,9,-1
 384 -256 l 1,10,-1
 384 256 l 1,11,-1
 0 256 l 1,4,-1
EndSplineSet
Validated: 3073
EndChar

StartChar: SF480000
Encoding: 9573 9573 178
Width: 1024
VWidth: 26
Flags: W
HStem: -256 21G<128 384 640 896> 512 128<0 128 384 640 896 1024>
VStem: 128 256<-256 512> 640 256<-256 512>
LayerCount: 2
Fore
SplineSet
0 512 m 1,0,-1
 0 640 l 1,1,-1
 1024 640 l 1,2,-1
 1024 512 l 1,3,-1
 896 512 l 1,4,-1
 896 -256 l 1,5,-1
 640 -256 l 1,6,-1
 640 512 l 1,7,-1
 384 512 l 1,8,-1
 384 -256 l 1,9,-1
 128 -256 l 1,10,-1
 128 512 l 1,11,-1
 0 512 l 1,0,-1
EndSplineSet
Validated: 3073
EndChar

StartChar: SF490000
Encoding: 9561 9561 179
Width: 1024
VWidth: 26
Flags: W
HStem: 512 128<384 640 896 1024>
VStem: 128 256<640 1280> 640 256<640 1280>
LayerCount: 2
Fore
SplineSet
128 512 m 1,0,-1
 128 1280 l 1,1,-1
 384 1280 l 1,2,-1
 384 640 l 1,3,-1
 640 640 l 1,4,-1
 640 1280 l 1,5,-1
 896 1280 l 1,6,-1
 896 640 l 1,7,-1
 1024 640 l 1,8,-1
 1024 512 l 1,9,-1
 128 512 l 1,0,-1
EndSplineSet
Validated: 3073
EndChar

StartChar: SF500000
Encoding: 9560 9560 180
Width: 1024
VWidth: 26
Flags: W
HStem: 256 128<640 1024> 640 128<640 1024>
VStem: 384 256<384 640 768 1280>
LayerCount: 2
Fore
SplineSet
384 256 m 1,0,-1
 384 1280 l 1,1,-1
 640 1280 l 1,2,-1
 640 768 l 1,3,-1
 1024 768 l 1,4,-1
 1024 640 l 1,5,-1
 640 640 l 1,6,-1
 640 384 l 1,7,-1
 1024 384 l 1,8,-1
 1024 256 l 1,9,-1
 384 256 l 1,0,-1
EndSplineSet
Validated: 3073
EndChar

StartChar: SF510000
Encoding: 9554 9554 181
Width: 1024
VWidth: 26
Flags: W
HStem: -256 21G<384 640> 256 128<640 1024> 640 128<640 1024>
VStem: 384 256<-256 256 384 640>
LayerCount: 2
Fore
SplineSet
384 -256 m 1,0,-1
 384 768 l 1,1,-1
 1024 768 l 1,2,-1
 1024 640 l 1,3,-1
 640 640 l 1,4,-1
 640 384 l 1,5,-1
 1024 384 l 1,6,-1
 1024 256 l 1,7,-1
 640 256 l 1,8,-1
 640 -256 l 1,9,-1
 384 -256 l 1,0,-1
EndSplineSet
Validated: 3073
EndChar

StartChar: SF520000
Encoding: 9555 9555 182
Width: 1024
VWidth: 26
Flags: W
HStem: -256 21G<128 384 640 896> 512 128<384 640 896 1024>
VStem: 128 256<-256 512> 640 256<-256 512>
LayerCount: 2
Fore
SplineSet
128 -256 m 1,0,-1
 128 640 l 1,1,-1
 1024 640 l 1,2,-1
 1024 512 l 1,3,-1
 896 512 l 1,4,-1
 896 -256 l 1,5,-1
 640 -256 l 1,6,-1
 640 512 l 1,7,-1
 384 512 l 1,8,-1
 384 -256 l 1,9,-1
 128 -256 l 1,0,-1
EndSplineSet
Validated: 3073
EndChar

StartChar: SF530000
Encoding: 9579 9579 183
Width: 1024
VWidth: 26
Flags: W
HStem: -256 21G<128 384 640 896> 512 128<0 128 896 1024>
VStem: 128 256<-256 512 640 1280> 640 256<-256 512 640 1280>
LayerCount: 2
Fore
SplineSet
128 640 m 1,0,-1
 128 1280 l 1,1,-1
 384 1280 l 1,2,-1
 384 -256 l 1,3,-1
 128 -256 l 1,4,-1
 128 512 l 1,5,-1
 0 512 l 1,6,-1
 0 640 l 1,7,-1
 128 640 l 1,0,-1
640 -256 m 1,8,-1
 640 1280 l 1,9,-1
 896 1280 l 1,10,-1
 896 640 l 1,11,-1
 1024 640 l 1,12,-1
 1024 512 l 1,13,-1
 896 512 l 1,14,-1
 896 -256 l 1,15,-1
 640 -256 l 1,8,-1
EndSplineSet
Validated: 3073
EndChar

StartChar: SF540000
Encoding: 9578 9578 184
Width: 1024
VWidth: 26
Flags: W
HStem: -256 21G<384 640> 256 128<0 384 640 1024> 640 128<0 384 640 1024>
VStem: 384 256<-256 256 768 1280>
LayerCount: 2
Fore
SplineSet
384 768 m 1,0,-1
 384 1280 l 1,1,-1
 640 1280 l 1,2,-1
 640 768 l 1,3,-1
 1024 768 l 1,4,-1
 1024 640 l 1,5,-1
 0 640 l 1,6,-1
 0 768 l 1,7,-1
 384 768 l 1,0,-1
0 256 m 1,8,-1
 0 384 l 1,9,-1
 1024 384 l 1,10,-1
 1024 256 l 1,11,-1
 640 256 l 1,12,-1
 640 -256 l 1,13,-1
 384 -256 l 1,14,-1
 384 256 l 1,15,-1
 0 256 l 1,8,-1
EndSplineSet
Validated: 3073
EndChar

StartChar: SF040000
Encoding: 9496 9496 185
Width: 1024
VWidth: 26
Flags: W
HStem: 512 128<0 384>
VStem: 384 256<640 1280>
LayerCount: 2
Fore
SplineSet
384 640 m 1,0,-1
 384 1280 l 1,1,-1
 640 1280 l 1,2,-1
 640 512 l 1,3,-1
 0 512 l 1,4,-1
 0 640 l 1,5,-1
 384 640 l 1,0,-1
EndSplineSet
Validated: 3073
EndChar

StartChar: SF010000
Encoding: 9484 9484 186
Width: 1024
VWidth: 26
Flags: W
HStem: -256 21G<384 640> 512 128<640 1024>
VStem: 384 256<-256 512>
LayerCount: 2
Fore
SplineSet
384 -256 m 1,0,-1
 384 640 l 1,1,-1
 1024 640 l 1,2,-1
 1024 512 l 1,3,-1
 640 512 l 1,4,-1
 640 -256 l 1,5,-1
 384 -256 l 1,0,-1
EndSplineSet
Validated: 3073
EndChar

StartChar: block
Encoding: 9608 9608 187
Width: 1024
VWidth: 26
Flags: W
HStem: -256 21G<0 1024>
VStem: 0 1024<-256 1280>
LayerCount: 2
Fore
SplineSet
0 -256 m 1,0,-1
 0 1280 l 1,1,-1
 1024 1280 l 1,2,-1
 1024 -256 l 1,3,-1
 0 -256 l 1,0,-1
EndSplineSet
Validated: 3073
EndChar

StartChar: dnblock
Encoding: 9604 9604 188
Width: 1024
VWidth: 26
Flags: W
HStem: -256 768<0 1024>
LayerCount: 2
Fore
SplineSet
0 -256 m 1,0,-1
 0 512 l 1,1,-1
 1024 512 l 1,2,-1
 1024 -256 l 1,3,-1
 0 -256 l 1,0,-1
EndSplineSet
Validated: 3073
EndChar

StartChar: lfblock
Encoding: 9612 9612 189
Width: 1024
VWidth: 26
Flags: W
HStem: -256 21G<0 512>
VStem: 0 512<-256 1280>
LayerCount: 2
Fore
SplineSet
0 -256 m 1,0,-1
 0 1280 l 1,1,-1
 512 1280 l 1,2,-1
 512 -256 l 1,3,-1
 0 -256 l 1,0,-1
EndSplineSet
Validated: 3073
EndChar

StartChar: rtblock
Encoding: 9616 9616 190
Width: 1024
VWidth: 26
Flags: W
HStem: -256 21G<512 1024>
VStem: 512 512<-256 1280>
LayerCount: 2
Fore
SplineSet
512 -256 m 1,0,-1
 512 1280 l 1,1,-1
 1024 1280 l 1,2,-1
 1024 -256 l 1,3,-1
 512 -256 l 1,0,-1
EndSplineSet
Validated: 3073
EndChar

StartChar: upblock
Encoding: 9600 9600 191
Width: 1024
VWidth: 26
Flags: W
HStem: 512 768<0 1024>
LayerCount: 2
Fore
SplineSet
0 512 m 1,0,-1
 0 1280 l 1,1,-1
 1024 1280 l 1,2,-1
 1024 512 l 1,3,-1
 0 512 l 1,0,-1
EndSplineSet
Validated: 3073
EndChar

StartChar: alpha
Encoding: 945 945 192
Width: 1024
VWidth: 26
Flags: W
HStem: 0 256<384 512 768 896> 0 128<256 384> 512 256<384 512 768 896> 640 128<256 384>
VStem: 0 256<128 640> 128 384<0 128 640 768> 640 256<0 128 640 768>
LayerCount: 2
Fore
SplineSet
384 512 m 1,0,-1
 384 640 l 1,1,-1
 256 640 l 1,2,-1
 256 128 l 1,3,-1
 384 128 l 1,4,-1
 384 256 l 1,5,-1
 512 256 l 1,6,-1
 512 512 l 1,7,-1
 384 512 l 1,0,-1
128 640 m 1,8,-1
 128 768 l 1,9,-1
 512 768 l 1,10,-1
 512 640 l 1,11,-1
 640 640 l 1,12,-1
 640 768 l 1,13,-1
 896 768 l 1,14,-1
 896 512 l 1,15,-1
 768 512 l 1,16,-1
 768 256 l 1,17,-1
 896 256 l 1,18,-1
 896 0 l 1,19,-1
 640 0 l 1,20,-1
 640 128 l 1,21,-1
 512 128 l 1,22,-1
 512 0 l 1,23,-1
 128 0 l 1,24,-1
 128 128 l 1,25,-1
 0 128 l 1,26,-1
 0 640 l 1,27,-1
 128 640 l 1,8,-1
EndSplineSet
Validated: 3073
EndChar

StartChar: germandbls
Encoding: 223 223 193
Width: 1024
VWidth: 26
Flags: W
HStem: -128 128<256 384> 128 128<256 512> 640 128<384 512> 768 256<640 768> 1024 128<256 512>
VStem: 0 256<0 128 256 1024> 128 256<-128 0> 384 256<640 768> 512 256<256 640 768 1024>
LayerCount: 2
Fore
SplineSet
512 768 m 1,0,-1
 512 1024 l 1,1,-1
 256 1024 l 1,2,-1
 256 256 l 1,3,-1
 512 256 l 1,4,-1
 512 640 l 1,5,-1
 384 640 l 1,6,-1
 384 768 l 1,7,-1
 512 768 l 1,0,-1
128 1024 m 1,8,-1
 128 1152 l 1,9,-1
 640 1152 l 1,10,-1
 640 1024 l 1,11,-1
 768 1024 l 1,12,-1
 768 768 l 1,13,-1
 640 768 l 1,14,-1
 640 640 l 1,15,-1
 768 640 l 1,16,-1
 768 256 l 1,17,-1
 640 256 l 1,18,-1
 640 128 l 1,19,-1
 256 128 l 1,20,-1
 256 0 l 1,21,-1
 384 0 l 1,22,-1
 384 -128 l 1,23,-1
 128 -128 l 1,24,-1
 128 0 l 1,25,-1
 0 0 l 1,26,-1
 0 1024 l 1,27,-1
 128 1024 l 1,8,-1
EndSplineSet
Validated: 3073
EndChar

StartChar: Gamma
Encoding: 915 915 194
Width: 1024
VWidth: 26
Flags: W
HStem: 0 21G<0 256> 768 384<512 768> 1024 128<256 512>
VStem: 0 256<0 1024> 512 256<768 1024>
LayerCount: 2
Fore
SplineSet
0 0 m 1,0,-1
 0 1152 l 1,1,-1
 768 1152 l 1,2,-1
 768 768 l 1,3,-1
 512 768 l 1,4,-1
 512 1024 l 1,5,-1
 256 1024 l 1,6,-1
 256 0 l 1,7,-1
 0 0 l 1,0,-1
EndSplineSet
Validated: 3073
EndChar

StartChar: pi
Encoding: 960 960 195
Width: 1024
VWidth: 26
Flags: W
HStem: 0 128<768 896> 1024 128<0 128 384 512 768 896>
VStem: 128 256<0 1024> 512 256<128 1024> 640 256<0 128>
LayerCount: 2
Fore
SplineSet
0 1024 m 1,0,-1
 0 1152 l 1,1,-1
 896 1152 l 1,2,-1
 896 1024 l 1,3,-1
 768 1024 l 1,4,-1
 768 128 l 1,5,-1
 896 128 l 1,6,-1
 896 0 l 1,7,-1
 640 0 l 1,8,-1
 640 128 l 1,9,-1
 512 128 l 1,10,-1
 512 1024 l 1,11,-1
 384 1024 l 1,12,-1
 384 0 l 1,13,-1
 128 0 l 1,14,-1
 128 1024 l 1,15,-1
 0 1024 l 1,0,-1
EndSplineSet
Validated: 3073
EndChar

StartChar: Sigma
Encoding: 931 931 196
Width: 1024
VWidth: 26
Flags: W
HStem: 0 256<0 128> 0 128<256 640> 512 128<384 512> 768 21G<640 768> 896 256<0 128> 1024 128<256 640>
VStem: 0 256<128 256 896 1024> 128 256<256 512 640 896> 256 256<512 640> 640 128<128 384 768 1024>
LayerCount: 2
Fore
SplineSet
0 896 m 1,0,-1
 0 1152 l 1,1,-1
 768 1152 l 1,2,-1
 768 768 l 1,3,-1
 640 768 l 1,4,-1
 640 1024 l 1,5,-1
 256 1024 l 1,6,-1
 256 896 l 1,7,-1
 384 896 l 1,8,-1
 384 640 l 1,9,-1
 512 640 l 1,10,-1
 512 512 l 1,11,-1
 384 512 l 1,12,-1
 384 256 l 1,13,-1
 256 256 l 1,14,-1
 256 128 l 1,15,-1
 640 128 l 1,16,-1
 640 384 l 1,17,-1
 768 384 l 1,18,-1
 768 0 l 1,19,-1
 0 0 l 1,20,-1
 0 256 l 1,21,-1
 128 256 l 1,22,-1
 128 512 l 1,23,-1
 256 512 l 1,24,-1
 256 640 l 1,25,-1
 128 640 l 1,26,-1
 128 896 l 1,27,-1
 0 896 l 1,0,-1
EndSplineSet
Validated: 3073
EndChar

StartChar: sigma
Encoding: 963 963 197
Width: 1024
VWidth: 26
Flags: W
HStem: 0 128<256 512> 640 128<256 512 640 896>
VStem: 0 256<128 640> 512 256<128 512> 512 128<512 640>
LayerCount: 2
Fore
SplineSet
512 128 m 1,0,-1
 512 640 l 1,1,-1
 256 640 l 1,2,-1
 256 128 l 1,3,-1
 512 128 l 1,0,-1
128 640 m 1,4,-1
 128 768 l 1,5,-1
 896 768 l 1,6,-1
 896 640 l 1,7,-1
 640 640 l 1,8,-1
 640 512 l 1,9,-1
 768 512 l 1,10,-1
 768 128 l 1,11,-1
 640 128 l 1,12,-1
 640 0 l 1,13,-1
 128 0 l 1,14,-1
 128 128 l 1,15,-1
 0 128 l 1,16,-1
 0 640 l 1,17,-1
 128 640 l 1,4,-1
EndSplineSet
Validated: 3073
EndChar

StartChar: uni00B5
Encoding: 181 181 198
Width: 1024
VWidth: 26
Flags: W
HStem: -256 128<0 128> 0 128<384 640 896 1024> 748 20G<128 384 640 896>
VStem: 0 256<-256 -128> 128 256<-128 0 128 768> 640 256<128 768> 768 256<0 128>
LayerCount: 2
Fore
SplineSet
128 -128 m 1,0,-1
 128 768 l 1,1,-1
 384 768 l 1,2,-1
 384 128 l 1,3,-1
 640 128 l 1,4,-1
 640 0 l 1,5,-1
 384 0 l 1,6,-1
 384 -128 l 1,7,-1
 256 -128 l 1,8,-1
 256 -256 l 1,9,-1
 0 -256 l 1,10,-1
 0 -128 l 1,11,-1
 128 -128 l 1,0,-1
640 128 m 1,12,-1
 640 768 l 1,13,-1
 896 768 l 1,14,-1
 896 128 l 1,15,-1
 1024 128 l 1,16,-1
 1024 0 l 1,17,-1
 768 0 l 1,18,-1
 768 128 l 1,19,-1
 640 128 l 1,12,-1
EndSplineSet
Validated: 3077
EndChar

StartChar: tau
Encoding: 964 964 199
Width: 1024
VWidth: 26
Flags: W
HStem: 0 128<640 896> 640 128<0 128> 768 128<256 384 768 896>
VStem: 0 256<640 768> 384 256<128 640> 640 256<768 896>
LayerCount: 2
Fore
SplineSet
128 768 m 1,0,-1
 128 896 l 1,1,-1
 512 896 l 1,2,-1
 512 768 l 1,3,-1
 640 768 l 1,4,-1
 640 896 l 1,5,-1
 896 896 l 1,6,-1
 896 768 l 1,7,-1
 768 768 l 1,8,-1
 768 640 l 1,9,-1
 640 640 l 1,10,-1
 640 128 l 1,11,-1
 896 128 l 1,12,-1
 896 0 l 1,13,-1
 512 0 l 1,14,-1
 512 128 l 1,15,-1
 384 128 l 1,16,-1
 384 768 l 1,17,-1
 256 768 l 1,18,-1
 256 640 l 1,19,-1
 0 640 l 1,20,-1
 0 768 l 1,21,-1
 128 768 l 1,0,-1
EndSplineSet
Validated: 3073
EndChar

StartChar: Phi
Encoding: 934 934 200
Width: 1024
VWidth: 26
Flags: W
HStem: 0 384<256 512> 0 128<0 256 512 768> 384 384<0 128 640 768> 768 384<256 512> 1024 128<0 256 512 768>
VStem: 0 256<384 768> 256 256<128 256 896 1024> 512 256<384 768>
LayerCount: 2
Fore
SplineSet
512 384 m 1,0,-1
 512 768 l 1,1,-1
 256 768 l 1,2,-1
 256 384 l 1,3,-1
 512 384 l 1,0,-1
0 1024 m 1,4,-1
 0 1152 l 1,5,-1
 768 1152 l 1,6,-1
 768 1024 l 1,7,-1
 512 1024 l 1,8,-1
 512 896 l 1,9,-1
 640 896 l 1,10,-1
 640 768 l 1,11,-1
 768 768 l 1,12,-1
 768 384 l 1,13,-1
 640 384 l 1,14,-1
 640 256 l 1,15,-1
 512 256 l 1,16,-1
 512 128 l 1,17,-1
 768 128 l 1,18,-1
 768 0 l 1,19,-1
 0 0 l 1,20,-1
 0 128 l 1,21,-1
 256 128 l 1,22,-1
 256 256 l 1,23,-1
 128 256 l 1,24,-1
 128 384 l 1,25,-1
 0 384 l 1,26,-1
 0 768 l 1,27,-1
 128 768 l 1,28,-1
 128 896 l 1,29,-1
 256 896 l 1,30,-1
 256 1024 l 1,31,-1
 0 1024 l 1,4,-1
EndSplineSet
Validated: 3073
EndChar

StartChar: Theta
Encoding: 920 920 201
Width: 1024
VWidth: 26
Flags: W
HStem: 0 128<256 512> 512 128<256 512> 1024 128<256 512>
VStem: 0 256<128 512 640 1024> 512 256<128 512 640 1024>
CounterMasks: 1 e0
LayerCount: 2
Fore
SplineSet
512 128 m 1,0,-1
 512 512 l 1,1,-1
 256 512 l 1,2,-1
 256 128 l 1,3,-1
 512 128 l 1,0,-1
512 640 m 1,4,-1
 512 1024 l 1,5,-1
 256 1024 l 1,6,-1
 256 640 l 1,7,-1
 512 640 l 1,4,-1
128 1024 m 1,8,-1
 128 1152 l 1,9,-1
 640 1152 l 1,10,-1
 640 1024 l 1,11,-1
 768 1024 l 1,12,-1
 768 128 l 1,13,-1
 640 128 l 1,14,-1
 640 0 l 1,15,-1
 128 0 l 1,16,-1
 128 128 l 1,17,-1
 0 128 l 1,18,-1
 0 1024 l 1,19,-1
 128 1024 l 1,8,-1
EndSplineSet
Validated: 3073
EndChar

StartChar: Omega
Encoding: 937 937 202
Width: 1024
VWidth: 26
Flags: W
HStem: 0 128<0 128 768 896> 1024 128<256 640>
VStem: 0 256<512 1024> 128 256<128 512> 512 256<128 512> 640 256<512 1024>
LayerCount: 2
Fore
SplineSet
128 1024 m 1,0,-1
 128 1152 l 1,1,-1
 768 1152 l 1,2,-1
 768 1024 l 1,3,-1
 896 1024 l 1,4,-1
 896 512 l 1,5,-1
 768 512 l 1,6,-1
 768 128 l 1,7,-1
 896 128 l 1,8,-1
 896 0 l 1,9,-1
 512 0 l 1,10,-1
 512 512 l 1,11,-1
 640 512 l 1,12,-1
 640 1024 l 1,13,-1
 256 1024 l 1,14,-1
 256 512 l 1,15,-1
 384 512 l 1,16,-1
 384 0 l 1,17,-1
 0 0 l 1,18,-1
 0 128 l 1,19,-1
 128 128 l 1,20,-1
 128 512 l 1,21,-1
 0 512 l 1,22,-1
 0 1024 l 1,23,-1
 128 1024 l 1,0,-1
EndSplineSet
Validated: 3073
EndChar

StartChar: delta
Encoding: 948 948 203
Width: 1024
VWidth: 26
Flags: W
HStem: 0 128<256 512> 640 256<384 512> 896 128<128 256> 1024 128<384 768>
VStem: 0 256<128 640> 128 256<896 1024> 256 256<768 896> 512 256<128 640>
LayerCount: 2
Fore
SplineSet
512 128 m 1,0,-1
 512 640 l 1,1,-1
 256 640 l 1,2,-1
 256 128 l 1,3,-1
 512 128 l 1,0,-1
256 1024 m 1,4,-1
 256 1152 l 1,5,-1
 768 1152 l 1,6,-1
 768 1024 l 1,7,-1
 384 1024 l 1,8,-1
 384 896 l 1,9,-1
 512 896 l 1,10,-1
 512 768 l 1,11,-1
 640 768 l 1,12,-1
 640 640 l 1,13,-1
 768 640 l 1,14,-1
 768 128 l 1,15,-1
 640 128 l 1,16,-1
 640 0 l 1,17,-1
 128 0 l 1,18,-1
 128 128 l 1,19,-1
 0 128 l 1,20,-1
 0 640 l 1,21,-1
 128 640 l 1,22,-1
 128 768 l 1,23,-1
 256 768 l 1,24,-1
 256 896 l 1,25,-1
 128 896 l 1,26,-1
 128 1024 l 1,27,-1
 256 1024 l 1,4,-1
EndSplineSet
Validated: 3073
EndChar

StartChar: infinity
Encoding: 8734 8734 204
Width: 1024
VWidth: 26
Flags: W
HStem: 256 128<256 384 640 768> 384 384<0 128 896 1024> 768 128<256 384 640 768>
VStem: 0 256<384 768> 128 256<256 384> 384 256<384 768> 640 256<768 896> 768 256<384 768>
LayerCount: 2
Fore
SplineSet
768 384 m 1,0,-1
 768 768 l 1,1,-1
 640 768 l 1,2,-1
 640 384 l 1,3,-1
 768 384 l 1,0,-1
128 768 m 1,4,-1
 128 896 l 1,5,-1
 512 896 l 1,6,-1
 512 768 l 1,7,-1
 640 768 l 1,8,-1
 640 896 l 1,9,-1
 896 896 l 1,10,-1
 896 768 l 1,11,-1
 1024 768 l 1,12,-1
 1024 384 l 1,13,-1
 896 384 l 1,14,-1
 896 256 l 1,15,-1
 512 256 l 1,16,-1
 512 384 l 1,17,-1
 384 384 l 1,18,-1
 384 768 l 1,19,-1
 256 768 l 1,20,-1
 256 384 l 1,21,-1
 384 384 l 1,22,-1
 384 256 l 1,23,-1
 128 256 l 1,24,-1
 128 384 l 1,25,-1
 0 384 l 1,26,-1
 0 768 l 1,27,-1
 128 768 l 1,4,-1
EndSplineSet
Validated: 3077
EndChar

StartChar: phi
Encoding: 966 966 205
Width: 1024
VWidth: 26
Flags: W
HStem: 128 128<0 128> 256 256<256 384> 256 128<512 640> 384 384<0 128 768 896> 640 256<512 640> 768 128<256 384> 896 128<768 896>
VStem: 0 256<128 256 512 768> 384 128<512 640> 640 256<384 640 896 1024>
CounterMasks: 1 01c0
LayerCount: 2
Fore
SplineSet
640 384 m 1,0,-1
 640 640 l 1,1,-1
 512 640 l 1,2,-1
 512 384 l 1,3,-1
 640 384 l 1,0,-1
384 512 m 1,4,-1
 384 768 l 1,5,-1
 256 768 l 1,6,-1
 256 512 l 1,7,-1
 384 512 l 1,4,-1
640 896 m 1,8,-1
 640 1024 l 1,9,-1
 896 1024 l 1,10,-1
 896 896 l 1,11,-1
 768 896 l 1,12,-1
 768 768 l 1,13,-1
 896 768 l 1,14,-1
 896 384 l 1,15,-1
 768 384 l 1,16,-1
 768 256 l 1,17,-1
 256 256 l 1,18,-1
 256 128 l 1,19,-1
 0 128 l 1,20,-1
 0 256 l 1,21,-1
 128 256 l 1,22,-1
 128 384 l 1,23,-1
 0 384 l 1,24,-1
 0 768 l 1,25,-1
 128 768 l 1,26,-1
 128 896 l 1,27,-1
 640 896 l 1,8,-1
EndSplineSet
Validated: 3073
EndChar

StartChar: epsilon
Encoding: 949 949 206
Width: 1024
VWidth: 26
Flags: W
HStem: 0 256<256 384> 0 128<384 768> 512 128<256 768> 896 256<256 384> 1024 128<384 768>
VStem: 0 256<256 512 640 896> 128 256<128 256 896 1024>
LayerCount: 2
Fore
SplineSet
256 1024 m 1,0,-1
 256 1152 l 1,1,-1
 768 1152 l 1,2,-1
 768 1024 l 1,3,-1
 384 1024 l 1,4,-1
 384 896 l 1,5,-1
 256 896 l 1,6,-1
 256 640 l 1,7,-1
 768 640 l 1,8,-1
 768 512 l 1,9,-1
 256 512 l 1,10,-1
 256 256 l 1,11,-1
 384 256 l 1,12,-1
 384 128 l 1,13,-1
 768 128 l 1,14,-1
 768 0 l 1,15,-1
 256 0 l 1,16,-1
 256 128 l 1,17,-1
 128 128 l 1,18,-1
 128 256 l 1,19,-1
 0 256 l 1,20,-1
 0 896 l 1,21,-1
 128 896 l 1,22,-1
 128 1024 l 1,23,-1
 256 1024 l 1,0,-1
EndSplineSet
Validated: 3073
EndChar

StartChar: intersection
Encoding: 8745 8745 207
Width: 1024
VWidth: 26
Flags: W
HStem: 0 21G<0 256 512 768> 896 128<256 512>
VStem: 0 256<0 896> 512 256<0 896>
LayerCount: 2
Fore
SplineSet
128 896 m 1,0,-1
 128 1024 l 1,1,-1
 640 1024 l 1,2,-1
 640 896 l 1,3,-1
 768 896 l 1,4,-1
 768 0 l 1,5,-1
 512 0 l 1,6,-1
 512 896 l 1,7,-1
 256 896 l 1,8,-1
 256 0 l 1,9,-1
 0 0 l 1,10,-1
 0 896 l 1,11,-1
 128 896 l 1,0,-1
EndSplineSet
Validated: 3073
EndChar

StartChar: equivalence
Encoding: 8801 8801 208
Width: 1024
VWidth: 26
Flags: W
HStem: 128 128<0 768> 512 128<0 768> 896 128<0 768>
CounterMasks: 1 e0
LayerCount: 2
Fore
SplineSet
0 896 m 1,0,-1
 0 1024 l 1,1,-1
 768 1024 l 1,2,-1
 768 896 l 1,3,-1
 0 896 l 1,0,-1
0 512 m 1,4,-1
 0 640 l 1,5,-1
 768 640 l 1,6,-1
 768 512 l 1,7,-1
 0 512 l 1,4,-1
0 128 m 1,8,-1
 0 256 l 1,9,-1
 768 256 l 1,10,-1
 768 128 l 1,11,-1
 0 128 l 1,8,-1
EndSplineSet
Validated: 3073
EndChar

StartChar: plusminus
Encoding: 177 177 209
Width: 1024
VWidth: 26
Flags: W
HStem: 128 128<0 768> 640 128<0 256 512 768>
VStem: 256 256<384 640 768 1024>
LayerCount: 2
Fore
SplineSet
256 768 m 1,0,-1
 256 1024 l 1,1,-1
 512 1024 l 1,2,-1
 512 768 l 1,3,-1
 768 768 l 1,4,-1
 768 640 l 1,5,-1
 512 640 l 1,6,-1
 512 384 l 1,7,-1
 256 384 l 1,8,-1
 256 640 l 1,9,-1
 0 640 l 1,10,-1
 0 768 l 1,11,-1
 256 768 l 1,0,-1
0 128 m 1,12,-1
 0 256 l 1,13,-1
 768 256 l 1,14,-1
 768 128 l 1,15,-1
 0 128 l 1,12,-1
EndSplineSet
Validated: 3073
EndChar

StartChar: greaterequal
Encoding: 8805 8805 210
Width: 1024
VWidth: 26
Flags: W
HStem: 128 128<0 768> 384 256<256 384> 384 128<128 256> 640 256<512 640> 896 256<256 384> 1024 128<128 256>
VStem: 128 256<384 512 1024 1152> 256 256<512 640 896 1024> 384 256<640 896>
LayerCount: 2
Fore
SplineSet
128 1024 m 1,0,-1
 128 1152 l 1,1,-1
 384 1152 l 1,2,-1
 384 1024 l 1,3,-1
 512 1024 l 1,4,-1
 512 896 l 1,5,-1
 640 896 l 1,6,-1
 640 640 l 1,7,-1
 512 640 l 1,8,-1
 512 512 l 1,9,-1
 384 512 l 1,10,-1
 384 384 l 1,11,-1
 128 384 l 1,12,-1
 128 512 l 1,13,-1
 256 512 l 1,14,-1
 256 640 l 1,15,-1
 384 640 l 1,16,-1
 384 896 l 1,17,-1
 256 896 l 1,18,-1
 256 1024 l 1,19,-1
 128 1024 l 1,0,-1
0 128 m 1,20,-1
 0 256 l 1,21,-1
 768 256 l 1,22,-1
 768 128 l 1,23,-1
 0 128 l 1,20,-1
EndSplineSet
Validated: 3073
EndChar

StartChar: lessequal
Encoding: 8804 8804 211
Width: 1024
VWidth: 26
Flags: W
HStem: 128 128<0 768> 384 256<384 512> 384 128<512 640> 640 256<128 256> 896 256<384 512> 1024 128<512 640>
VStem: 128 256<640 896> 256 256<512 640 896 1024> 384 256<384 512 1024 1152>
LayerCount: 2
Fore
SplineSet
384 1024 m 1,0,-1
 384 1152 l 1,1,-1
 640 1152 l 1,2,-1
 640 1024 l 1,3,-1
 512 1024 l 1,4,-1
 512 896 l 1,5,-1
 384 896 l 1,6,-1
 384 640 l 1,7,-1
 512 640 l 1,8,-1
 512 512 l 1,9,-1
 640 512 l 1,10,-1
 640 384 l 1,11,-1
 384 384 l 1,12,-1
 384 512 l 1,13,-1
 256 512 l 1,14,-1
 256 640 l 1,15,-1
 128 640 l 1,16,-1
 128 896 l 1,17,-1
 256 896 l 1,18,-1
 256 1024 l 1,19,-1
 384 1024 l 1,0,-1
0 128 m 1,20,-1
 0 256 l 1,21,-1
 768 256 l 1,22,-1
 768 128 l 1,23,-1
 0 128 l 1,20,-1
EndSplineSet
Validated: 3073
EndChar

StartChar: integraltp
Encoding: 8992 8992 212
Width: 1024
VWidth: 26
Flags: W
HStem: -256 21G<384 640> 640 256<896 1024> 896 128<640 768>
VStem: 384 256<-256 896> 768 256<640 896>
LayerCount: 2
Fore
SplineSet
512 896 m 1,0,-1
 512 1024 l 1,1,-1
 896 1024 l 1,2,-1
 896 896 l 1,3,-1
 1024 896 l 1,4,-1
 1024 640 l 1,5,-1
 768 640 l 1,6,-1
 768 896 l 1,7,-1
 640 896 l 1,8,-1
 640 -256 l 1,9,-1
 384 -256 l 1,10,-1
 384 896 l 1,11,-1
 512 896 l 1,0,-1
EndSplineSet
Validated: 3073
EndChar

StartChar: integralbt
Encoding: 8993 8993 213
Width: 1024
VWidth: 26
Flags: W
HStem: 0 128<256 384> 128 256<0 128>
VStem: 0 256<128 384> 384 256<128 1280>
LayerCount: 2
Fore
SplineSet
384 128 m 1,0,-1
 384 1280 l 1,1,-1
 640 1280 l 1,2,-1
 640 128 l 1,3,-1
 512 128 l 1,4,-1
 512 0 l 1,5,-1
 128 0 l 1,6,-1
 128 128 l 1,7,-1
 0 128 l 1,8,-1
 0 384 l 1,9,-1
 256 384 l 1,10,-1
 256 128 l 1,11,-1
 384 128 l 1,0,-1
EndSplineSet
Validated: 3073
EndChar

StartChar: divide
Encoding: 247 247 214
Width: 1024
Flags: W
HStem: 128 256<256 512> 512 128<0 768> 768 256<256 512>
VStem: 256 256<128 384 768 1024>
CounterMasks: 1 e0
LayerCount: 2
Fore
SplineSet
256 128 m 1,0,-1
 256 384 l 1,1,-1
 512 384 l 1,2,-1
 512 128 l 1,3,-1
 256 128 l 1,0,-1
0 512 m 1,4,-1
 0 640 l 1,5,-1
 768 640 l 1,6,-1
 768 512 l 1,7,-1
 0 512 l 1,4,-1
256 768 m 1,8,-1
 256 1024 l 1,9,-1
 512 1024 l 1,10,-1
 512 768 l 1,11,-1
 256 768 l 1,8,-1
EndSplineSet
Validated: 3073
EndChar

StartChar: approxequal
Encoding: 8776 8776 215
Width: 1024
VWidth: 26
Flags: W
HStem: 128 256<0 128 512 640> 128 128<640 768> 256 256<384 512 896 1024> 384 128<256 384> 640 256<0 128 512 640> 640 128<640 768> 768 256<384 512 896 1024> 896 128<256 384>
VStem: 0 256<128 384 640 896> 128 384<384 512 896 1024> 384 256<256 384 768 896> 512 384<128 256 640 768> 768 256<256 512 768 1024>
LayerCount: 2
Fore
SplineSet
128 896 m 1,0,-1
 128 1024 l 1,1,-1
 512 1024 l 1,2,-1
 512 896 l 1,3,-1
 640 896 l 1,4,-1
 640 768 l 1,5,-1
 768 768 l 1,6,-1
 768 1024 l 1,7,-1
 1024 1024 l 1,8,-1
 1024 768 l 1,9,-1
 896 768 l 1,10,-1
 896 640 l 1,11,-1
 512 640 l 1,12,-1
 512 768 l 1,13,-1
 384 768 l 1,14,-1
 384 896 l 1,15,-1
 256 896 l 1,16,-1
 256 640 l 1,17,-1
 0 640 l 1,18,-1
 0 896 l 1,19,-1
 128 896 l 1,0,-1
128 384 m 1,20,-1
 128 512 l 1,21,-1
 512 512 l 1,22,-1
 512 384 l 1,23,-1
 640 384 l 1,24,-1
 640 256 l 1,25,-1
 768 256 l 1,26,-1
 768 512 l 1,27,-1
 1024 512 l 1,28,-1
 1024 256 l 1,29,-1
 896 256 l 1,30,-1
 896 128 l 1,31,-1
 512 128 l 1,32,-1
 512 256 l 1,33,-1
 384 256 l 1,34,-1
 384 384 l 1,35,-1
 256 384 l 1,36,-1
 256 128 l 1,37,-1
 0 128 l 1,38,-1
 0 384 l 1,39,-1
 128 384 l 1,20,-1
EndSplineSet
Validated: 3073
EndChar

StartChar: degree
Encoding: 176 176 216
Width: 1024
VWidth: 26
Flags: W
HStem: 512 128<384 640> 640 384<128 256 768 896> 1024 128<384 640>
VStem: 128 256<640 1024> 640 256<640 1024>
LayerCount: 2
Fore
SplineSet
640 640 m 1,0,-1
 640 1024 l 1,1,-1
 384 1024 l 1,2,-1
 384 640 l 1,3,-1
 640 640 l 1,0,-1
256 1024 m 1,4,-1
 256 1152 l 1,5,-1
 768 1152 l 1,6,-1
 768 1024 l 1,7,-1
 896 1024 l 1,8,-1
 896 640 l 1,9,-1
 768 640 l 1,10,-1
 768 512 l 1,11,-1
 256 512 l 1,12,-1
 256 640 l 1,13,-1
 128 640 l 1,14,-1
 128 1024 l 1,15,-1
 256 1024 l 1,4,-1
EndSplineSet
Validated: 3073
EndChar

StartChar: uni2219
Encoding: 8729 8729 217
Width: 1024
VWidth: 26
Flags: W
HStem: 512 256<384 768>
VStem: 384 384<512 768>
LayerCount: 2
Fore
SplineSet
384 512 m 1,0,-1
 384 768 l 1,1,-1
 768 768 l 1,2,-1
 768 512 l 1,3,-1
 384 512 l 1,0,-1
EndSplineSet
Validated: 3073
EndChar

StartChar: periodcentered
Encoding: 183 183 218
Width: 1024
VWidth: 26
Flags: W
HStem: 512 128<384 640>
VStem: 384 256<512 640>
LayerCount: 2
Fore
SplineSet
384 512 m 1,0,-1
 384 640 l 1,1,-1
 640 640 l 1,2,-1
 640 512 l 1,3,-1
 384 512 l 1,0,-1
EndSplineSet
Validated: 3073
EndChar

StartChar: radical
Encoding: 8730 8730 219
Width: 1024
VWidth: 26
Flags: W
HStem: 0 256<512 640> 128 256<384 512> 256 256<256 384> 384 256<128 256> 1024 128<768 1024>
VStem: 128 256<384 512> 128 128<512 640> 256 256<256 384> 512 256<0 128> 640 128<256 1024>
LayerCount: 2
Fore
SplineSet
640 256 m 1,0,-1
 640 1152 l 1,1,-1
 1024 1152 l 1,2,-1
 1024 1024 l 1,3,-1
 768 1024 l 1,4,-1
 768 0 l 1,5,-1
 512 0 l 1,6,-1
 512 128 l 1,7,-1
 384 128 l 1,8,-1
 384 256 l 1,9,-1
 256 256 l 1,10,-1
 256 384 l 1,11,-1
 128 384 l 1,12,-1
 128 640 l 1,13,-1
 256 640 l 1,14,-1
 256 512 l 1,15,-1
 384 512 l 1,16,-1
 384 384 l 1,17,-1
 512 384 l 1,18,-1
 512 256 l 1,19,-1
 640 256 l 1,0,-1
EndSplineSet
Validated: 3073
EndChar

StartChar: uni207F
Encoding: 8319 8319 220
Width: 1024
VWidth: 26
Flags: W
HStem: 1024 128<0 128 384 512>
VStem: 0 256<1024 1152> 128 256<512 1024> 384 256<1024 1152> 512 256<512 1024>
LayerCount: 2
Fore
SplineSet
0 1024 m 1,0,-1
 0 1152 l 1,1,-1
 256 1152 l 1,2,-1
 256 1024 l 1,3,-1
 384 1024 l 1,4,-1
 384 512 l 1,5,-1
 128 512 l 1,6,-1
 128 1024 l 1,7,-1
 0 1024 l 1,0,-1
384 1024 m 1,8,-1
 384 1152 l 1,9,-1
 640 1152 l 1,10,-1
 640 1024 l 1,11,-1
 768 1024 l 1,12,-1
 768 512 l 1,13,-1
 512 512 l 1,14,-1
 512 1024 l 1,15,-1
 384 1024 l 1,8,-1
EndSplineSet
Validated: 3077
EndChar

StartChar: uni00B2
Encoding: 178 178 221
Width: 1024
VWidth: 26
Flags: W
HStem: 512 256<256 384> 512 128<128 256 512 768> 896 128<640 768> 1024 128<128 512>
VStem: 256 256<640 768> 384 256<768 896> 512 256<896 1024>
LayerCount: 2
Fore
SplineSet
128 1024 m 1,0,-1
 128 1152 l 1,1,-1
 640 1152 l 1,2,-1
 640 1024 l 1,3,-1
 768 1024 l 1,4,-1
 768 896 l 1,5,-1
 640 896 l 1,6,-1
 640 768 l 1,7,-1
 512 768 l 1,8,-1
 512 640 l 1,9,-1
 768 640 l 1,10,-1
 768 512 l 1,11,-1
 128 512 l 1,12,-1
 128 640 l 1,13,-1
 256 640 l 1,14,-1
 256 768 l 1,15,-1
 384 768 l 1,16,-1
 384 896 l 1,17,-1
 512 896 l 1,18,-1
 512 1024 l 1,19,-1
 128 1024 l 1,0,-1
EndSplineSet
Validated: 3073
EndChar

StartChar: filledbox
Encoding: 9632 9632 222
Width: 1024
VWidth: 26
Flags: W
HStem: 0 21G<256 768>
VStem: 256 512<0 1024>
LayerCount: 2
Fore
SplineSet
256 0 m 1,0,-1
 256 1024 l 1,1,-1
 768 1024 l 1,2,-1
 768 0 l 1,3,-1
 256 0 l 1,0,-1
EndSplineSet
Validated: 3073
EndChar

StartChar: smileface
Encoding: 9786 9786 223
Width: 1024
VWidth: 26
Flags: W
HStem: 0 256<128 256 768 896> 0 128<256 768> 256 256<384 640> 384 128<256 384 640 768> 640 128<256 384 640 768> 896 256<128 256 768 896> 1024 128<256 768>
VStem: 0 256<128 256 896 1024> 0 128<256 896> 256 128<640 768> 384 256<256 384> 640 128<640 768> 768 256<128 256 896 1024> 896 128<256 896>
LayerCount: 2
Fore
SplineSet
768 896 m 1,0,-1
 768 1024 l 1,1,-1
 256 1024 l 1,2,-1
 256 896 l 1,3,-1
 128 896 l 1,4,-1
 128 256 l 1,5,-1
 256 256 l 1,6,-1
 256 128 l 1,7,-1
 768 128 l 1,8,-1
 768 256 l 1,9,-1
 896 256 l 1,10,-1
 896 896 l 1,11,-1
 768 896 l 1,0,-1
128 1024 m 1,12,-1
 128 1152 l 1,13,-1
 896 1152 l 1,14,-1
 896 1024 l 1,15,-1
 1024 1024 l 1,16,-1
 1024 128 l 1,17,-1
 896 128 l 1,18,-1
 896 0 l 1,19,-1
 128 0 l 1,20,-1
 128 128 l 1,21,-1
 0 128 l 1,22,-1
 0 1024 l 1,23,-1
 128 1024 l 1,12,-1
256 640 m 1,24,-1
 256 768 l 1,25,-1
 384 768 l 1,26,-1
 384 640 l 1,27,-1
 256 640 l 1,24,-1
640 640 m 1,28,-1
 640 768 l 1,29,-1
 768 768 l 1,30,-1
 768 640 l 1,31,-1
 640 640 l 1,28,-1
256 384 m 1,32,-1
 256 512 l 1,33,-1
 768 512 l 1,34,-1
 768 384 l 1,35,-1
 640 384 l 1,36,-1
 640 256 l 1,37,-1
 384 256 l 1,38,-1
 384 384 l 1,39,-1
 256 384 l 1,32,-1
EndSplineSet
Validated: 3073
EndChar

StartChar: invsmileface
Encoding: 9787 9787 224
Width: 1024
VWidth: 26
Flags: W
HStem: 0 384<256 384 640 768> 0 256<384 640> 512 128<256 384 640 768> 768 384<256 384 640 768>
VStem: 0 256<384 512 640 768> 384 256<640 768> 768 256<384 512 640 768>
CounterMasks: 1 0e
LayerCount: 2
Fore
SplineSet
768 384 m 1,0,-1
 768 512 l 1,1,-1
 256 512 l 1,2,-1
 256 384 l 1,3,-1
 384 384 l 1,4,-1
 384 256 l 1,5,-1
 640 256 l 1,6,-1
 640 384 l 1,7,-1
 768 384 l 1,0,-1
768 640 m 1,8,-1
 768 768 l 1,9,-1
 640 768 l 1,10,-1
 640 640 l 1,11,-1
 768 640 l 1,8,-1
384 640 m 1,12,-1
 384 768 l 1,13,-1
 256 768 l 1,14,-1
 256 640 l 1,15,-1
 384 640 l 1,12,-1
128 1024 m 1,16,-1
 128 1152 l 1,17,-1
 896 1152 l 1,18,-1
 896 1024 l 1,19,-1
 1024 1024 l 1,20,-1
 1024 128 l 1,21,-1
 896 128 l 1,22,-1
 896 0 l 1,23,-1
 128 0 l 1,24,-1
 128 128 l 1,25,-1
 0 128 l 1,26,-1
 0 1024 l 1,27,-1
 128 1024 l 1,16,-1
EndSplineSet
Validated: 3073
EndChar

StartChar: heart
Encoding: 9829 9829 225
Width: 1024
VWidth: 26
Flags: W
HStem: 0 21G<384 512>
VStem: 128 128<896 1024> 384 128<0 128> 640 128<896 1024>
CounterMasks: 1 70
LayerCount: 2
Fore
SplineSet
128 896 m 1,0,-1
 128 1024 l 1,1,-1
 256 1024 l 1,2,-1
 256 896 l 1,3,-1
 384 896 l 1,4,-1
 384 768 l 1,5,-1
 512 768 l 1,6,-1
 512 896 l 1,7,-1
 640 896 l 1,8,-1
 640 1024 l 1,9,-1
 768 1024 l 1,10,-1
 768 896 l 1,11,-1
 896 896 l 1,12,-1
 896 384 l 1,13,-1
 768 384 l 1,14,-1
 768 256 l 1,15,-1
 640 256 l 1,16,-1
 640 128 l 1,17,-1
 512 128 l 1,18,-1
 512 0 l 1,19,-1
 384 0 l 1,20,-1
 384 128 l 1,21,-1
 256 128 l 1,22,-1
 256 256 l 1,23,-1
 128 256 l 1,24,-1
 128 384 l 1,25,-1
 0 384 l 1,26,-1
 0 896 l 1,27,-1
 128 896 l 1,0,-1
EndSplineSet
Validated: 3073
EndChar

StartChar: diamond
Encoding: 9830 9830 226
Width: 1024
VWidth: 26
Flags: W
HStem: 512 256<0 128 768 896> 1132 20G<384 512>
VStem: 256 384<256 384 896 1024> 384 128<128 256 1024 1152>
LayerCount: 2
Fore
SplineSet
384 1024 m 1,0,-1
 384 1152 l 1,1,-1
 512 1152 l 1,2,-1
 512 1024 l 1,3,-1
 640 1024 l 1,4,-1
 640 896 l 1,5,-1
 768 896 l 1,6,-1
 768 768 l 1,7,-1
 896 768 l 1,8,-1
 896 512 l 1,9,-1
 768 512 l 1,10,-1
 768 384 l 1,11,-1
 640 384 l 1,12,-1
 640 256 l 1,13,-1
 512 256 l 1,14,-1
 512 128 l 1,15,-1
 384 128 l 1,16,-1
 384 256 l 1,17,-1
 256 256 l 1,18,-1
 256 384 l 1,19,-1
 128 384 l 1,20,-1
 128 512 l 1,21,-1
 0 512 l 1,22,-1
 0 768 l 1,23,-1
 128 768 l 1,24,-1
 128 896 l 1,25,-1
 256 896 l 1,26,-1
 256 1024 l 1,27,-1
 384 1024 l 1,0,-1
EndSplineSet
Validated: 3073
EndChar

StartChar: club
Encoding: 9827 9827 227
Width: 1024
VWidth: 26
Flags: W
HStem: 0 384<384 640> 0 128<128 384 640 896> 384 384<0 256 768 1024> 1132 20G<384 640>
VStem: 0 384<384 640> 384 256<128 384 1024 1152> 640 384<384 640>
LayerCount: 2
Fore
SplineSet
384 1024 m 1,0,-1
 384 1152 l 1,1,-1
 640 1152 l 1,2,-1
 640 1024 l 1,3,-1
 768 1024 l 1,4,-1
 768 768 l 1,5,-1
 1024 768 l 1,6,-1
 1024 384 l 1,7,-1
 640 384 l 1,8,-1
 640 640 l 1,9,-1
 384 640 l 1,10,-1
 384 384 l 1,11,-1
 640 384 l 1,12,-1
 640 128 l 1,13,-1
 896 128 l 1,14,-1
 896 0 l 1,15,-1
 128 0 l 1,16,-1
 128 128 l 1,17,-1
 384 128 l 1,18,-1
 384 384 l 1,19,-1
 0 384 l 1,20,-1
 0 768 l 1,21,-1
 256 768 l 1,22,-1
 256 1024 l 1,23,-1
 384 1024 l 1,0,-1
EndSplineSet
Validated: 3077
EndChar

StartChar: spade
Encoding: 9824 9824 228
Width: 1024
VWidth: 26
Flags: W
HStem: 0 128<128 384 640 896> 512 256<0 128 896 1024> 1132 20G<384 640>
VStem: 384 256<128 384 1024 1152>
LayerCount: 2
Fore
SplineSet
384 1024 m 1,0,-1
 384 1152 l 1,1,-1
 640 1152 l 1,2,-1
 640 1024 l 1,3,-1
 768 1024 l 1,4,-1
 768 896 l 1,5,-1
 896 896 l 1,6,-1
 896 768 l 1,7,-1
 1024 768 l 1,8,-1
 1024 512 l 1,9,-1
 896 512 l 1,10,-1
 896 384 l 1,11,-1
 640 384 l 1,12,-1
 640 128 l 1,13,-1
 896 128 l 1,14,-1
 896 0 l 1,15,-1
 128 0 l 1,16,-1
 128 128 l 1,17,-1
 384 128 l 1,18,-1
 384 384 l 1,19,-1
 128 384 l 1,20,-1
 128 512 l 1,21,-1
 0 512 l 1,22,-1
 0 768 l 1,23,-1
 128 768 l 1,24,-1
 128 896 l 1,25,-1
 256 896 l 1,26,-1
 256 1024 l 1,27,-1
 384 1024 l 1,0,-1
EndSplineSet
Validated: 3073
EndChar

StartChar: bullet
Encoding: 8226 8226 229
Width: 1024
VWidth: 26
Flags: W
HStem: 256 512<256 768> 384 256<128 256 768 896>
LayerCount: 2
Fore
SplineSet
256 640 m 1,0,-1
 256 768 l 1,1,-1
 768 768 l 1,2,-1
 768 640 l 1,3,-1
 896 640 l 1,4,-1
 896 384 l 1,5,-1
 768 384 l 1,6,-1
 768 256 l 1,7,-1
 256 256 l 1,8,-1
 256 384 l 1,9,-1
 128 384 l 1,10,-1
 128 640 l 1,11,-1
 256 640 l 1,0,-1
EndSplineSet
Validated: 3073
EndChar

StartChar: invbullet
Encoding: 9688 9688 230
Width: 1024
VWidth: 26
Flags: W
HStem: -256 512<256 768> 768 512<256 768>
VStem: 0 256<256 384 640 768> 0 128<384 640> 768 256<256 384 640 768> 896 128<384 640>
LayerCount: 2
Fore
SplineSet
768 640 m 1,0,-1
 768 768 l 1,1,-1
 256 768 l 1,2,-1
 256 640 l 1,3,-1
 128 640 l 1,4,-1
 128 384 l 1,5,-1
 256 384 l 1,6,-1
 256 256 l 1,7,-1
 768 256 l 1,8,-1
 768 384 l 1,9,-1
 896 384 l 1,10,-1
 896 640 l 1,11,-1
 768 640 l 1,0,-1
0 -256 m 1,12,-1
 0 1280 l 1,13,-1
 1024 1280 l 1,14,-1
 1024 -256 l 1,15,-1
 0 -256 l 1,12,-1
EndSplineSet
Validated: 3073
EndChar

StartChar: circle
Encoding: 9675 9675 231
Width: 1024
VWidth: 26
Flags: W
HStem: 0 384<256 384 640 768> 0 256<384 640> 640 384<256 384 640 768> 768 256<384 640>
VStem: 128 256<256 384 640 768> 128 128<384 640> 640 256<256 384 640 768> 768 128<384 640>
LayerCount: 2
Fore
SplineSet
640 640 m 1,0,-1
 640 768 l 1,1,-1
 384 768 l 1,2,-1
 384 640 l 1,3,-1
 256 640 l 1,4,-1
 256 384 l 1,5,-1
 384 384 l 1,6,-1
 384 256 l 1,7,-1
 640 256 l 1,8,-1
 640 384 l 1,9,-1
 768 384 l 1,10,-1
 768 640 l 1,11,-1
 640 640 l 1,0,-1
256 896 m 1,12,-1
 256 1024 l 1,13,-1
 768 1024 l 1,14,-1
 768 896 l 1,15,-1
 896 896 l 1,16,-1
 896 128 l 1,17,-1
 768 128 l 1,18,-1
 768 0 l 1,19,-1
 256 0 l 1,20,-1
 256 128 l 1,21,-1
 128 128 l 1,22,-1
 128 896 l 1,23,-1
 256 896 l 1,12,-1
EndSplineSet
Validated: 3073
EndChar

StartChar: invcircle
Encoding: 9689 9689 232
Width: 1024
VWidth: 26
Flags: W
HStem: -256 384<128 256 768 896> -256 256<256 768> 384 256<256 384 640 768> 748 20G<384 640> 896 384<128 256 768 896> 1024 256<256 768>
VStem: 0 256<0 128 896 1024> 0 128<128 896> 384 256<256 384 640 768> 768 256<0 128 896 1024> 896 128<128 896>
LayerCount: 2
Fore
SplineSet
768 896 m 1,0,-1
 768 1024 l 1,1,-1
 256 1024 l 1,2,-1
 256 896 l 1,3,-1
 128 896 l 1,4,-1
 128 128 l 1,5,-1
 256 128 l 1,6,-1
 256 0 l 1,7,-1
 768 0 l 1,8,-1
 768 128 l 1,9,-1
 896 128 l 1,10,-1
 896 896 l 1,11,-1
 768 896 l 1,0,-1
0 -256 m 1,12,-1
 0 1280 l 1,13,-1
 1024 1280 l 1,14,-1
 1024 -256 l 1,15,-1
 0 -256 l 1,12,-1
384 640 m 1,16,-1
 384 768 l 1,17,-1
 640 768 l 1,18,-1
 640 640 l 1,19,-1
 768 640 l 1,20,-1
 768 384 l 1,21,-1
 640 384 l 1,22,-1
 640 256 l 1,23,-1
 384 256 l 1,24,-1
 384 384 l 1,25,-1
 256 384 l 1,26,-1
 256 640 l 1,27,-1
 384 640 l 1,16,-1
EndSplineSet
Validated: 3073
EndChar

StartChar: male
Encoding: 9794 9794 233
Width: 1024
VWidth: 26
Flags: W
HStem: 0 128<256 512> 512 384<256 512> 896 256<640 768> 1024 128<256 512>
VStem: 0 256<128 512> 512 256<128 512> 768 128<640 896>
LayerCount: 2
Fore
SplineSet
512 128 m 1,0,-1
 512 512 l 1,1,-1
 256 512 l 1,2,-1
 256 128 l 1,3,-1
 512 128 l 1,0,-1
256 1024 m 1,4,-1
 256 1152 l 1,5,-1
 896 1152 l 1,6,-1
 896 640 l 1,7,-1
 768 640 l 1,8,-1
 768 896 l 1,9,-1
 640 896 l 1,10,-1
 640 768 l 1,11,-1
 512 768 l 1,12,-1
 512 640 l 1,13,-1
 640 640 l 1,14,-1
 640 512 l 1,15,-1
 768 512 l 1,16,-1
 768 128 l 1,17,-1
 640 128 l 1,18,-1
 640 0 l 1,19,-1
 128 0 l 1,20,-1
 128 128 l 1,21,-1
 0 128 l 1,22,-1
 0 640 l 1,23,-1
 128 640 l 1,24,-1
 128 768 l 1,25,-1
 256 768 l 1,26,-1
 256 896 l 1,27,-1
 512 896 l 1,28,-1
 512 1024 l 1,29,-1
 256 1024 l 1,4,-1
EndSplineSet
Validated: 3073
EndChar

StartChar: female
Encoding: 9792 9792 234
Width: 1024
VWidth: 26
Flags: W
HStem: 0 21G<384 640> 256 128<128 384 640 896> 640 384<128 256 768 896> 1024 128<384 640>
VStem: 128 256<640 1024> 384 256<0 256 384 512> 640 256<640 1024>
LayerCount: 2
Fore
SplineSet
640 640 m 1,0,-1
 640 1024 l 1,1,-1
 384 1024 l 1,2,-1
 384 640 l 1,3,-1
 640 640 l 1,0,-1
256 1024 m 1,4,-1
 256 1152 l 1,5,-1
 768 1152 l 1,6,-1
 768 1024 l 1,7,-1
 896 1024 l 1,8,-1
 896 640 l 1,9,-1
 768 640 l 1,10,-1
 768 512 l 1,11,-1
 640 512 l 1,12,-1
 640 384 l 1,13,-1
 896 384 l 1,14,-1
 896 256 l 1,15,-1
 640 256 l 1,16,-1
 640 0 l 1,17,-1
 384 0 l 1,18,-1
 384 256 l 1,19,-1
 128 256 l 1,20,-1
 128 384 l 1,21,-1
 384 384 l 1,22,-1
 384 512 l 1,23,-1
 256 512 l 1,24,-1
 256 640 l 1,25,-1
 128 640 l 1,26,-1
 128 1024 l 1,27,-1
 256 1024 l 1,4,-1
EndSplineSet
Validated: 3073
EndChar

StartChar: musicalnote
Encoding: 9834 9834 235
Width: 1024
VWidth: 26
Flags: W
HStem: 0 384<128 384> 128 128<0 128> 640 128<640 896> 1024 128<640 896>
VStem: 384 256<384 640 768 1024> 896 128<768 1024>
LayerCount: 2
Fore
SplineSet
896 768 m 1,0,-1
 896 1024 l 1,1,-1
 640 1024 l 1,2,-1
 640 768 l 1,3,-1
 896 768 l 1,0,-1
384 384 m 1,4,-1
 384 1152 l 1,5,-1
 1024 1152 l 1,6,-1
 1024 640 l 1,7,-1
 640 640 l 1,8,-1
 640 128 l 1,9,-1
 512 128 l 1,10,-1
 512 0 l 1,11,-1
 128 0 l 1,12,-1
 128 128 l 1,13,-1
 0 128 l 1,14,-1
 0 256 l 1,15,-1
 128 256 l 1,16,-1
 128 384 l 1,17,-1
 384 384 l 1,4,-1
EndSplineSet
Validated: 3073
EndChar

StartChar: musicalnotedbl
Encoding: 9835 9835 236
Width: 1024
VWidth: 26
Flags: W
HStem: -128 21G<0 256> 0 21G<640 896> 768 128<384 768> 1024 128<384 768>
VStem: 0 256<-128 0> 128 256<256 768 896 1024> 640 256<0 128> 768 256<384 768 896 1024>
LayerCount: 2
Fore
SplineSet
768 896 m 1,0,-1
 768 1024 l 1,1,-1
 384 1024 l 1,2,-1
 384 896 l 1,3,-1
 768 896 l 1,0,-1
128 256 m 1,4,-1
 128 1152 l 1,5,-1
 1024 1152 l 1,6,-1
 1024 128 l 1,7,-1
 896 128 l 1,8,-1
 896 0 l 1,9,-1
 640 0 l 1,10,-1
 640 384 l 1,11,-1
 768 384 l 1,12,-1
 768 768 l 1,13,-1
 384 768 l 1,14,-1
 384 0 l 1,15,-1
 256 0 l 1,16,-1
 256 -128 l 1,17,-1
 0 -128 l 1,18,-1
 0 256 l 1,19,-1
 128 256 l 1,4,-1
EndSplineSet
Validated: 3073
EndChar

StartChar: sun
Encoding: 9788 9788 237
Width: 1024
VWidth: 26
Flags: W
HStem: 0 384<384 640> 128 128<0 128 896 1024> 384 256<0 128 896 1024> 640 384<384 640> 768 128<0 128 896 1024>
VStem: 0 384<384 640> 0 256<128 256 768 896> 384 256<0 256 768 1024> 640 384<384 640> 768 256<128 256 768 896>
LayerCount: 2
Fore
SplineSet
640 384 m 1,0,-1
 640 640 l 1,1,-1
 384 640 l 1,2,-1
 384 384 l 1,3,-1
 640 384 l 1,0,-1
384 768 m 1,4,-1
 384 1024 l 1,5,-1
 640 1024 l 1,6,-1
 640 768 l 1,7,-1
 768 768 l 1,8,-1
 768 896 l 1,9,-1
 1024 896 l 1,10,-1
 1024 768 l 1,11,-1
 896 768 l 1,12,-1
 896 640 l 1,13,-1
 1024 640 l 1,14,-1
 1024 384 l 1,15,-1
 896 384 l 1,16,-1
 896 256 l 1,17,-1
 1024 256 l 1,18,-1
 1024 128 l 1,19,-1
 768 128 l 1,20,-1
 768 256 l 1,21,-1
 640 256 l 1,22,-1
 640 0 l 1,23,-1
 384 0 l 1,24,-1
 384 256 l 1,25,-1
 256 256 l 1,26,-1
 256 128 l 1,27,-1
 0 128 l 1,28,-1
 0 256 l 1,29,-1
 128 256 l 1,30,-1
 128 384 l 1,31,-1
 0 384 l 1,32,-1
 0 640 l 1,33,-1
 128 640 l 1,34,-1
 128 768 l 1,35,-1
 0 768 l 1,36,-1
 0 896 l 1,37,-1
 256 896 l 1,38,-1
 256 768 l 1,39,-1
 384 768 l 1,4,-1
EndSplineSet
Validated: 3073
EndChar

StartChar: triagrt
Encoding: 9658 9658 238
Width: 1024
VWidth: 26
Flags: W
HStem: 0 21G<0 128> 384 384<384 640> 1132 20G<0 128>
VStem: 0 384<256 384 768 896> 0 256<128 256 896 1024> 0 128<0 128 1024 1152>
LayerCount: 2
Fore
SplineSet
0 0 m 1,0,-1
 0 1152 l 1,1,-1
 128 1152 l 1,2,-1
 128 1024 l 1,3,-1
 256 1024 l 1,4,-1
 256 896 l 1,5,-1
 384 896 l 1,6,-1
 384 768 l 1,7,-1
 640 768 l 1,8,-1
 640 640 l 1,9,-1
 896 640 l 1,10,-1
 896 512 l 1,11,-1
 640 512 l 1,12,-1
 640 384 l 1,13,-1
 384 384 l 1,14,-1
 384 256 l 1,15,-1
 256 256 l 1,16,-1
 256 128 l 1,17,-1
 128 128 l 1,18,-1
 128 0 l 1,19,-1
 0 0 l 1,0,-1
EndSplineSet
Validated: 3073
EndChar

StartChar: triaglf
Encoding: 9668 9668 239
Width: 1024
VWidth: 26
Flags: W
HStem: 0 21G<768 896> 384 384<256 512> 1132 20G<768 896>
VStem: 512 384<256 384 768 896> 640 256<128 256 896 1024> 768 128<0 128 1024 1152>
LayerCount: 2
Fore
SplineSet
768 1024 m 1,0,-1
 768 1152 l 1,1,-1
 896 1152 l 1,2,-1
 896 0 l 1,3,-1
 768 0 l 1,4,-1
 768 128 l 1,5,-1
 640 128 l 1,6,-1
 640 256 l 1,7,-1
 512 256 l 1,8,-1
 512 384 l 1,9,-1
 256 384 l 1,10,-1
 256 512 l 1,11,-1
 0 512 l 1,12,-1
 0 640 l 1,13,-1
 256 640 l 1,14,-1
 256 768 l 1,15,-1
 512 768 l 1,16,-1
 512 896 l 1,17,-1
 640 896 l 1,18,-1
 640 1024 l 1,19,-1
 768 1024 l 1,0,-1
EndSplineSet
Validated: 3073
EndChar

StartChar: arrowupdn
Encoding: 8597 8597 240
Width: 1024
VWidth: 26
Flags: W
HStem: 0 21G<384 640> 128 256<256 384 640 768> 256 128<128 256 768 896> 768 256<256 384 640 768> 768 128<128 256 768 896> 1132 20G<384 640>
VStem: 384 256<0 128 384 768 1024 1152>
LayerCount: 2
Fore
SplineSet
384 1024 m 1,0,-1
 384 1152 l 1,1,-1
 640 1152 l 1,2,-1
 640 1024 l 1,3,-1
 768 1024 l 1,4,-1
 768 896 l 1,5,-1
 896 896 l 1,6,-1
 896 768 l 1,7,-1
 640 768 l 1,8,-1
 640 384 l 1,9,-1
 896 384 l 1,10,-1
 896 256 l 1,11,-1
 768 256 l 1,12,-1
 768 128 l 1,13,-1
 640 128 l 1,14,-1
 640 0 l 1,15,-1
 384 0 l 1,16,-1
 384 128 l 1,17,-1
 256 128 l 1,18,-1
 256 256 l 1,19,-1
 128 256 l 1,20,-1
 128 384 l 1,21,-1
 384 384 l 1,22,-1
 384 768 l 1,23,-1
 128 768 l 1,24,-1
 128 896 l 1,25,-1
 256 896 l 1,26,-1
 256 1024 l 1,27,-1
 384 1024 l 1,0,-1
EndSplineSet
Validated: 3073
EndChar

StartChar: exclamdbl
Encoding: 8252 8252 241
Width: 1024
VWidth: 26
Flags: W
HStem: 0 256<128 384 640 896> 512 640<128 384 640 896>
VStem: 128 256<0 256 512 1152> 640 256<0 256 512 1152>
LayerCount: 2
Fore
SplineSet
128 512 m 1,0,-1
 128 1152 l 1,1,-1
 384 1152 l 1,2,-1
 384 512 l 1,3,-1
 128 512 l 1,0,-1
640 512 m 1,4,-1
 640 1152 l 1,5,-1
 896 1152 l 1,6,-1
 896 512 l 1,7,-1
 640 512 l 1,4,-1
128 0 m 1,8,-1
 128 256 l 1,9,-1
 384 256 l 1,10,-1
 384 0 l 1,11,-1
 128 0 l 1,8,-1
640 0 m 1,12,-1
 640 256 l 1,13,-1
 896 256 l 1,14,-1
 896 0 l 1,15,-1
 640 0 l 1,12,-1
EndSplineSet
Validated: 3073
EndChar

StartChar: paragraph
Encoding: 182 182 242
Width: 1024
VWidth: 26
Flags: W
HStem: 0 21G<384 640 768 1024> 512 128<256 384> 1024 128<256 384 640 768>
VStem: 0 256<640 1024> 384 256<0 512 640 1024> 768 256<0 1024>
CounterMasks: 1 1c
LayerCount: 2
Fore
SplineSet
384 640 m 1,0,-1
 384 1024 l 1,1,-1
 256 1024 l 1,2,-1
 256 640 l 1,3,-1
 384 640 l 1,0,-1
128 1024 m 1,4,-1
 128 1152 l 1,5,-1
 1024 1152 l 1,6,-1
 1024 0 l 1,7,-1
 768 0 l 1,8,-1
 768 1024 l 1,9,-1
 640 1024 l 1,10,-1
 640 0 l 1,11,-1
 384 0 l 1,12,-1
 384 512 l 1,13,-1
 128 512 l 1,14,-1
 128 640 l 1,15,-1
 0 640 l 1,16,-1
 0 1024 l 1,17,-1
 128 1024 l 1,4,-1
EndSplineSet
Validated: 3073
EndChar

StartChar: section
Encoding: 167 167 243
Width: 1024
VWidth: 26
Flags: W
HStem: -128 128<256 640> 0 128<0 128> 128 256<512 640> 256 128<384 512> 384 256<128 256 768 896> 640 256<384 512> 640 128<512 640> 896 128<896 1024> 1024 128<384 768>
VStem: 0 256<0 128> 128 256<384 640 896 1024> 256 256<768 896> 512 256<128 256> 640 256<0 128 384 640> 768 256<896 1024>
LayerCount: 2
Fore
SplineSet
640 384 m 1,0,-1
 640 640 l 1,1,-1
 384 640 l 1,2,-1
 384 384 l 1,3,-1
 640 384 l 1,0,-1
128 896 m 1,4,-1
 128 1152 l 1,5,-1
 896 1152 l 1,6,-1
 896 1024 l 1,7,-1
 1024 1024 l 1,8,-1
 1024 896 l 1,9,-1
 768 896 l 1,10,-1
 768 1024 l 1,11,-1
 384 1024 l 1,12,-1
 384 896 l 1,13,-1
 512 896 l 1,14,-1
 512 768 l 1,15,-1
 768 768 l 1,16,-1
 768 640 l 1,17,-1
 896 640 l 1,18,-1
 896 384 l 1,19,-1
 768 384 l 1,20,-1
 768 128 l 1,21,-1
 896 128 l 1,22,-1
 896 -128 l 1,23,-1
 128 -128 l 1,24,-1
 128 0 l 1,25,-1
 0 0 l 1,26,-1
 0 128 l 1,27,-1
 256 128 l 1,28,-1
 256 0 l 1,29,-1
 640 0 l 1,30,-1
 640 128 l 1,31,-1
 512 128 l 1,32,-1
 512 256 l 1,33,-1
 256 256 l 1,34,-1
 256 384 l 1,35,-1
 128 384 l 1,36,-1
 128 640 l 1,37,-1
 256 640 l 1,38,-1
 256 896 l 1,39,-1
 128 896 l 1,4,-1
EndSplineSet
Validated: 3073
EndChar

StartChar: brokenbar
Encoding: 166 166 244
Width: 1024
VWidth: 0
Flags: W
HStem: 0 21G<384 640> 1132 20G<384 640>
VStem: 384 256<0 512 640 1152>
LayerCount: 2
Fore
SplineSet
384 640 m 1,0,-1
 384 1152 l 1,1,-1
 640 1152 l 1,2,-1
 640 640 l 1,3,-1
 384 640 l 1,0,-1
384 0 m 1,4,-1
 384 512 l 1,5,-1
 640 512 l 1,6,-1
 640 0 l 1,7,-1
 384 0 l 1,4,-1
EndSplineSet
Validated: 3073
EndChar

StartChar: filledrect
Encoding: 9644 9644 245
Width: 1024
VWidth: 26
Flags: W
HStem: 0 384<0 896>
LayerCount: 2
Fore
SplineSet
0 0 m 1,0,-1
 0 384 l 1,1,-1
 896 384 l 1,2,-1
 896 0 l 1,3,-1
 0 0 l 1,0,-1
EndSplineSet
Validated: 3073
EndChar

StartChar: arrowupdnbse
Encoding: 8616 8616 246
Width: 1024
VWidth: 26
Flags: W
HStem: -128 128<128 384 640 896> 128 256<256 384 640 768> 256 128<128 256 768 896> 768 256<256 384 640 768> 768 128<128 256 768 896> 1132 20G<384 640>
VStem: 384 256<0 128 384 768 1024 1152>
LayerCount: 2
Fore
SplineSet
384 1024 m 1,0,-1
 384 1152 l 1,1,-1
 640 1152 l 1,2,-1
 640 1024 l 1,3,-1
 768 1024 l 1,4,-1
 768 896 l 1,5,-1
 896 896 l 1,6,-1
 896 768 l 1,7,-1
 640 768 l 1,8,-1
 640 384 l 1,9,-1
 896 384 l 1,10,-1
 896 256 l 1,11,-1
 768 256 l 1,12,-1
 768 128 l 1,13,-1
 640 128 l 1,14,-1
 640 0 l 1,15,-1
 896 0 l 1,16,-1
 896 -128 l 1,17,-1
 128 -128 l 1,18,-1
 128 0 l 1,19,-1
 384 0 l 1,20,-1
 384 128 l 1,21,-1
 256 128 l 1,22,-1
 256 256 l 1,23,-1
 128 256 l 1,24,-1
 128 384 l 1,25,-1
 384 384 l 1,26,-1
 384 768 l 1,27,-1
 128 768 l 1,28,-1
 128 896 l 1,29,-1
 256 896 l 1,30,-1
 256 1024 l 1,31,-1
 384 1024 l 1,0,-1
EndSplineSet
Validated: 3073
EndChar

StartChar: arrowup
Encoding: 8593 8593 247
Width: 1024
VWidth: 26
Flags: W
HStem: 0 21G<384 640> 768 256<256 384 640 768> 768 128<128 256 768 896> 1132 20G<384 640>
VStem: 384 256<0 768 1024 1152>
LayerCount: 2
Fore
SplineSet
384 1024 m 1,0,-1
 384 1152 l 1,1,-1
 640 1152 l 1,2,-1
 640 1024 l 1,3,-1
 768 1024 l 1,4,-1
 768 896 l 1,5,-1
 896 896 l 1,6,-1
 896 768 l 1,7,-1
 640 768 l 1,8,-1
 640 0 l 1,9,-1
 384 0 l 1,10,-1
 384 768 l 1,11,-1
 128 768 l 1,12,-1
 128 896 l 1,13,-1
 256 896 l 1,14,-1
 256 1024 l 1,15,-1
 384 1024 l 1,0,-1
EndSplineSet
Validated: 3073
EndChar

StartChar: arrowdown
Encoding: 8595 8595 248
Width: 1024
VWidth: 26
Flags: W
HStem: 0 21G<384 640> 128 256<256 384 640 768> 256 128<128 256 768 896> 1132 20G<384 640>
VStem: 384 256<0 128 384 1152>
LayerCount: 2
Fore
SplineSet
384 384 m 1,0,-1
 384 1152 l 1,1,-1
 640 1152 l 1,2,-1
 640 384 l 1,3,-1
 896 384 l 1,4,-1
 896 256 l 1,5,-1
 768 256 l 1,6,-1
 768 128 l 1,7,-1
 640 128 l 1,8,-1
 640 0 l 1,9,-1
 384 0 l 1,10,-1
 384 128 l 1,11,-1
 256 128 l 1,12,-1
 256 256 l 1,13,-1
 128 256 l 1,14,-1
 128 384 l 1,15,-1
 384 384 l 1,0,-1
EndSplineSet
Validated: 3073
EndChar

StartChar: arrowright
Encoding: 8594 8594 249
Width: 1024
VWidth: 26
Flags: W
HStem: 256 128<384 512> 512 128<0 512 768 896> 768 128<384 512>
VStem: 384 256<256 384 768 896> 512 256<384 512 640 768>
CounterMasks: 1 e0
LayerCount: 2
Fore
SplineSet
384 768 m 1,0,-1
 384 896 l 1,1,-1
 640 896 l 1,2,-1
 640 768 l 1,3,-1
 768 768 l 1,4,-1
 768 640 l 1,5,-1
 896 640 l 1,6,-1
 896 512 l 1,7,-1
 768 512 l 1,8,-1
 768 384 l 1,9,-1
 640 384 l 1,10,-1
 640 256 l 1,11,-1
 384 256 l 1,12,-1
 384 384 l 1,13,-1
 512 384 l 1,14,-1
 512 512 l 1,15,-1
 0 512 l 1,16,-1
 0 640 l 1,17,-1
 512 640 l 1,18,-1
 512 768 l 1,19,-1
 384 768 l 1,0,-1
EndSplineSet
Validated: 3073
EndChar

StartChar: arrowleft
Encoding: 8592 8592 250
Width: 1024
VWidth: 26
Flags: W
HStem: 256 128<384 512> 512 128<0 128 384 896> 768 128<384 512>
VStem: 128 256<384 512 640 768> 256 256<256 384 768 896>
CounterMasks: 1 e0
LayerCount: 2
Fore
SplineSet
256 768 m 1,0,-1
 256 896 l 1,1,-1
 512 896 l 1,2,-1
 512 768 l 1,3,-1
 384 768 l 1,4,-1
 384 640 l 1,5,-1
 896 640 l 1,6,-1
 896 512 l 1,7,-1
 384 512 l 1,8,-1
 384 384 l 1,9,-1
 512 384 l 1,10,-1
 512 256 l 1,11,-1
 256 256 l 1,12,-1
 256 384 l 1,13,-1
 128 384 l 1,14,-1
 128 512 l 1,15,-1
 0 512 l 1,16,-1
 0 640 l 1,17,-1
 128 640 l 1,18,-1
 128 768 l 1,19,-1
 256 768 l 1,0,-1
EndSplineSet
Validated: 3073
EndChar

StartChar: arrowboth
Encoding: 8596 8596 251
Width: 1024
VWidth: 26
Flags: W
HStem: 384 384<128 256 768 896> 512 128<0 128 384 640 896 1024>
VStem: 128 256<384 512 640 768> 256 128<256 384 768 896> 640 256<384 512 640 768> 640 128<256 384 768 896>
LayerCount: 2
Fore
SplineSet
256 768 m 1,0,-1
 256 896 l 1,1,-1
 384 896 l 1,2,-1
 384 640 l 1,3,-1
 640 640 l 1,4,-1
 640 896 l 1,5,-1
 768 896 l 1,6,-1
 768 768 l 1,7,-1
 896 768 l 1,8,-1
 896 640 l 1,9,-1
 1024 640 l 1,10,-1
 1024 512 l 1,11,-1
 896 512 l 1,12,-1
 896 384 l 1,13,-1
 768 384 l 1,14,-1
 768 256 l 1,15,-1
 640 256 l 1,16,-1
 640 512 l 1,17,-1
 384 512 l 1,18,-1
 384 256 l 1,19,-1
 256 256 l 1,20,-1
 256 384 l 1,21,-1
 128 384 l 1,22,-1
 128 512 l 1,23,-1
 0 512 l 1,24,-1
 0 640 l 1,25,-1
 128 640 l 1,26,-1
 128 768 l 1,27,-1
 256 768 l 1,0,-1
EndSplineSet
Validated: 3073
EndChar

StartChar: orthogonal
Encoding: 8735 8735 252
Width: 1024
VWidth: 26
Flags: W
HStem: 256 128<256 896> 748 20G<0 256>
VStem: 0 256<384 768>
LayerCount: 2
Fore
SplineSet
0 256 m 1,0,-1
 0 768 l 1,1,-1
 256 768 l 1,2,-1
 256 384 l 1,3,-1
 896 384 l 1,4,-1
 896 256 l 1,5,-1
 0 256 l 1,0,-1
EndSplineSet
Validated: 3073
EndChar

StartChar: triagup
Encoding: 9650 9650 253
Width: 1024
VWidth: 26
Flags: W
HStem: 0 256<0 128 768 896>
VStem: 256 384<512 768>
LayerCount: 2
Fore
SplineSet
384 768 m 1,0,-1
 384 1024 l 1,1,-1
 512 1024 l 1,2,-1
 512 768 l 1,3,-1
 640 768 l 1,4,-1
 640 512 l 1,5,-1
 768 512 l 1,6,-1
 768 256 l 1,7,-1
 896 256 l 1,8,-1
 896 0 l 1,9,-1
 0 0 l 1,10,-1
 0 256 l 1,11,-1
 128 256 l 1,12,-1
 128 512 l 1,13,-1
 256 512 l 1,14,-1
 256 768 l 1,15,-1
 384 768 l 1,0,-1
EndSplineSet
Validated: 3073
EndChar

StartChar: triagdn
Encoding: 9660 9660 254
Width: 1024
VWidth: 26
Flags: W
HStem: 0 21G<384 512> 768 256<0 128 768 896>
VStem: 256 384<256 512>
LayerCount: 2
Fore
SplineSet
0 768 m 1,0,-1
 0 1024 l 1,1,-1
 896 1024 l 1,2,-1
 896 768 l 1,3,-1
 768 768 l 1,4,-1
 768 512 l 1,5,-1
 640 512 l 1,6,-1
 640 256 l 1,7,-1
 512 256 l 1,8,-1
 512 0 l 1,9,-1
 384 0 l 1,10,-1
 384 256 l 1,11,-1
 256 256 l 1,12,-1
 256 512 l 1,13,-1
 128 512 l 1,14,-1
 128 768 l 1,15,-1
 0 768 l 1,0,-1
EndSplineSet
Validated: 3073
EndChar

StartChar: uni0000
Encoding: 0 0 256
Width: 1024
VWidth: 26
Flags: W
HStem: 0 128<256 512> 128 256<640 768> 128 128<0 128> 512 256<256 384> 896 256<256 512>
VStem: 0 256<128 256> 256 256<512 768 896 1152> 384 256<384 512> 512 256<128 384>
LayerCount: 2
Fore
SplineSet
128 0 m 1,0,-1
 128 128 l 1,1,-1
 0 128 l 1,2,-1
 0 256 l 1,3,-1
 256 256 l 1,4,-1
 256 128 l 1,5,-1
 512 128 l 1,6,-1
 512 384 l 1,7,-1
 384 384 l 1,8,-1
 384 512 l 1,9,-1
 256 512 l 1,10,-1
 256 768 l 1,11,-1
 512 768 l 1,12,-1
 512 512 l 1,13,-1
 640 512 l 1,14,-1
 640 384 l 1,15,-1
 768 384 l 1,16,-1
 768 128 l 1,17,-1
 640 128 l 1,18,-1
 640 0 l 1,19,-1
 128 0 l 1,0,-1
256 896 m 1,20,-1
 256 1152 l 1,21,-1
 512 1152 l 1,22,-1
 512 896 l 1,23,-1
 256 896 l 1,20,-1
EndSplineSet
Validated: 3073
EndChar

StartChar: afii10017
Encoding: 1040 1040 257
Width: 1024
VWidth: 51
Flags: W
HStem: -0 21G<0 256 512 768> 384 128<256 512> 896 256<256 512>
VStem: 0 256<0 384 512 896> 256 256<1024 1152> 512 256<0 384 512 896>
LayerCount: 2
Fore
SplineSet
512 512 m 1,0,-1
 512 896 l 1,1,-1
 256 896 l 1,2,-1
 256 512 l 1,3,-1
 512 512 l 1,0,-1
256 1024 m 1,4,-1
 256 1152 l 1,5,-1
 512 1152 l 1,6,-1
 512 1024 l 1,7,-1
 640 1024 l 1,8,-1
 640 896 l 1,9,-1
 768 896 l 1,10,-1
 768 -0 l 1,11,-1
 512 -0 l 1,12,-1
 512 384 l 1,13,-1
 256 384 l 1,14,-1
 256 -0 l 1,15,-1
 0 -0 l 1,16,-1
 0 896 l 1,17,-1
 128 896 l 1,18,-1
 128 1024 l 1,19,-1
 256 1024 l 1,4,-1
EndSplineSet
Validated: 3073
EndChar

StartChar: afii10018
Encoding: 1041 1041 258
Width: 1024
VWidth: 51
Flags: W
HStem: -0 128<0 128 384 640> 640 128<384 640> 896 256<768 896> 1024 128<0 128 384 768>
VStem: 128 256<128 640 768 1024> 640 256<128 640> 768 128<896 1024>
LayerCount: 2
Fore
SplineSet
640 128 m 1,0,-1
 640 640 l 1,1,-1
 384 640 l 1,2,-1
 384 128 l 1,3,-1
 640 128 l 1,0,-1
0 1024 m 1,4,-1
 0 1152 l 1,5,-1
 896 1152 l 1,6,-1
 896 896 l 1,7,-1
 768 896 l 1,8,-1
 768 1024 l 1,9,-1
 384 1024 l 1,10,-1
 384 768 l 1,11,-1
 768 768 l 1,12,-1
 768 640 l 1,13,-1
 896 640 l 1,14,-1
 896 128 l 1,15,-1
 768 128 l 1,16,-1
 768 -0 l 1,17,-1
 0 -0 l 1,18,-1
 0 128 l 1,19,-1
 128 128 l 1,20,-1
 128 1024 l 1,21,-1
 0 1024 l 1,4,-1
EndSplineSet
Validated: 3073
EndChar

StartChar: afii10019
Encoding: 1042 1042 259
Width: 1024
VWidth: 51
Flags: W
HStem: -0 128<0 128 384 640> 512 128<384 640> 1024 128<0 128 384 640>
VStem: 128 256<128 512 640 1024> 640 256<128 512 640 1024>
CounterMasks: 1 e0
LayerCount: 2
Fore
SplineSet
640 128 m 1,0,-1
 640 512 l 1,1,-1
 384 512 l 1,2,-1
 384 128 l 1,3,-1
 640 128 l 1,0,-1
640 640 m 1,4,-1
 640 1024 l 1,5,-1
 384 1024 l 1,6,-1
 384 640 l 1,7,-1
 640 640 l 1,4,-1
0 1024 m 1,8,-1
 0 1152 l 1,9,-1
 768 1152 l 1,10,-1
 768 1024 l 1,11,-1
 896 1024 l 1,12,-1
 896 640 l 1,13,-1
 768 640 l 1,14,-1
 768 512 l 1,15,-1
 896 512 l 1,16,-1
 896 128 l 1,17,-1
 768 128 l 1,18,-1
 768 -0 l 1,19,-1
 0 -0 l 1,20,-1
 0 128 l 1,21,-1
 128 128 l 1,22,-1
 128 1024 l 1,23,-1
 0 1024 l 1,8,-1
EndSplineSet
Validated: 3073
EndChar

StartChar: afii10020
Encoding: 1043 1043 260
Width: 1024
VWidth: 51
Flags: W
HStem: -0 128<0 128 384 512> 768 21G<768 896> 1024 128<0 128 384 768>
VStem: 128 256<128 1024> 768 128<768 1024>
LayerCount: 2
Fore
SplineSet
0 1024 m 1,0,-1
 0 1152 l 1,1,-1
 896 1152 l 1,2,-1
 896 768 l 1,3,-1
 768 768 l 1,4,-1
 768 1024 l 1,5,-1
 384 1024 l 1,6,-1
 384 128 l 1,7,-1
 512 128 l 1,8,-1
 512 -0 l 1,9,-1
 0 -0 l 1,10,-1
 0 128 l 1,11,-1
 128 128 l 1,12,-1
 128 1024 l 1,13,-1
 0 1024 l 1,0,-1
EndSplineSet
Validated: 3073
EndChar

StartChar: afii10021
Encoding: 1044 1044 261
Width: 1024
VWidth: 51
Flags: W
HStem: -128 256<0 128 896 1024> -0 128<384 640> 1024 128<384 640>
VStem: 0 256<-128 0> 128 256<128 1024> 640 256<128 1024> 768 256<-128 0>
LayerCount: 2
Fore
SplineSet
640 128 m 1,0,-1
 640 1024 l 1,1,-1
 384 1024 l 1,2,-1
 384 128 l 1,3,-1
 640 128 l 1,0,-1
256 1024 m 1,4,-1
 256 1152 l 1,5,-1
 896 1152 l 1,6,-1
 896 128 l 1,7,-1
 1024 128 l 1,8,-1
 1024 -128 l 1,9,-1
 768 -128 l 1,10,-1
 768 -0 l 1,11,-1
 256 -0 l 1,12,-1
 256 -128 l 1,13,-1
 0 -128 l 1,14,-1
 0 128 l 1,15,-1
 128 128 l 1,16,-1
 128 1024 l 1,17,-1
 256 1024 l 1,4,-1
EndSplineSet
Validated: 3073
EndChar

StartChar: afii10022
Encoding: 1045 1045 262
Width: 1024
VWidth: 51
Flags: W
HStem: -0 256<768 896> -0 128<0 128 384 768> 512 128<384 640> 748 20G<640 768> 896 256<768 896> 1024 128<0 128 384 768>
VStem: 128 256<128 512 640 1024> 640 128<384 512 640 768> 768 128<128 256 896 1024>
LayerCount: 2
Fore
SplineSet
0 1024 m 1,0,-1
 0 1152 l 1,1,-1
 896 1152 l 1,2,-1
 896 896 l 1,3,-1
 768 896 l 1,4,-1
 768 1024 l 1,5,-1
 384 1024 l 1,6,-1
 384 640 l 1,7,-1
 640 640 l 1,8,-1
 640 768 l 1,9,-1
 768 768 l 1,10,-1
 768 384 l 1,11,-1
 640 384 l 1,12,-1
 640 512 l 1,13,-1
 384 512 l 1,14,-1
 384 128 l 1,15,-1
 768 128 l 1,16,-1
 768 256 l 1,17,-1
 896 256 l 1,18,-1
 896 -0 l 1,19,-1
 0 -0 l 1,20,-1
 0 128 l 1,21,-1
 128 128 l 1,22,-1
 128 1024 l 1,23,-1
 0 1024 l 1,0,-1
EndSplineSet
Validated: 3073
EndChar

StartChar: afii10024
Encoding: 1046 1046 263
Width: 1024
VWidth: 51
Flags: W
HStem: -0 256<0 128 896 1024> 128 384<128 256 768 896> 384 384<256 384 640 768> 640 384<128 256 768 896> 896 256<0 128 896 1024>
VStem: 0 128<0 128 1024 1152> 128 128<256 384 768 896> 384 256<0 384 768 1152> 768 128<256 384 768 896> 896 128<0 128 1024 1152>
LayerCount: 2
Fore
SplineSet
0 896 m 1,0,-1
 0 1152 l 1,1,-1
 128 1152 l 1,2,-1
 128 1024 l 1,3,-1
 256 1024 l 1,4,-1
 256 768 l 1,5,-1
 384 768 l 1,6,-1
 384 1152 l 1,7,-1
 640 1152 l 1,8,-1
 640 768 l 1,9,-1
 768 768 l 1,10,-1
 768 1024 l 1,11,-1
 896 1024 l 1,12,-1
 896 1152 l 1,13,-1
 1024 1152 l 1,14,-1
 1024 896 l 1,15,-1
 896 896 l 1,16,-1
 896 640 l 1,17,-1
 768 640 l 1,18,-1
 768 512 l 1,19,-1
 896 512 l 1,20,-1
 896 256 l 1,21,-1
 1024 256 l 1,22,-1
 1024 -0 l 1,23,-1
 896 -0 l 1,24,-1
 896 128 l 1,25,-1
 768 128 l 1,26,-1
 768 384 l 1,27,-1
 640 384 l 1,28,-1
 640 -0 l 1,29,-1
 384 -0 l 1,30,-1
 384 384 l 1,31,-1
 256 384 l 1,32,-1
 256 128 l 1,33,-1
 128 128 l 1,34,-1
 128 -0 l 1,35,-1
 0 -0 l 1,36,-1
 0 256 l 1,37,-1
 128 256 l 1,38,-1
 128 512 l 1,39,-1
 256 512 l 1,40,-1
 256 640 l 1,41,-1
 128 640 l 1,42,-1
 128 896 l 1,43,-1
 0 896 l 1,0,-1
EndSplineSet
Validated: 3073
EndChar

StartChar: afii10025
Encoding: 1047 1047 264
Width: 1024
VWidth: 51
Flags: W
HStem: -0 256<256 384> -0 128<384 640> 128 256<128 256> 512 128<384 640> 768 256<128 256> 896 256<256 384> 1024 128<384 640>
VStem: 128 256<128 256 896 1024> 128 128<256 384 768 896> 640 256<128 512 640 1024>
LayerCount: 2
Fore
SplineSet
256 1024 m 1,0,-1
 256 1152 l 1,1,-1
 768 1152 l 1,2,-1
 768 1024 l 1,3,-1
 896 1024 l 1,4,-1
 896 640 l 1,5,-1
 768 640 l 1,6,-1
 768 512 l 1,7,-1
 896 512 l 1,8,-1
 896 128 l 1,9,-1
 768 128 l 1,10,-1
 768 -0 l 1,11,-1
 256 -0 l 1,12,-1
 256 128 l 1,13,-1
 128 128 l 1,14,-1
 128 384 l 1,15,-1
 256 384 l 1,16,-1
 256 256 l 1,17,-1
 384 256 l 1,18,-1
 384 128 l 1,19,-1
 640 128 l 1,20,-1
 640 512 l 1,21,-1
 384 512 l 1,22,-1
 384 640 l 1,23,-1
 640 640 l 1,24,-1
 640 1024 l 1,25,-1
 384 1024 l 1,26,-1
 384 896 l 1,27,-1
 256 896 l 1,28,-1
 256 768 l 1,29,-1
 128 768 l 1,30,-1
 128 1024 l 1,31,-1
 256 1024 l 1,0,-1
EndSplineSet
Validated: 3073
EndChar

StartChar: afii10026
Encoding: 1048 1048 265
Width: 1024
VWidth: 51
Flags: W
HStem: -0 21G<0 256 640 896> 1132 20G<0 256 640 896>
VStem: 0 256<0 256 640 1152> 640 256<0 512 896 1152>
LayerCount: 2
Fore
SplineSet
0 -0 m 1,0,-1
 0 1152 l 1,1,-1
 256 1152 l 1,2,-1
 256 640 l 1,3,-1
 384 640 l 1,4,-1
 384 768 l 1,5,-1
 512 768 l 1,6,-1
 512 896 l 1,7,-1
 640 896 l 1,8,-1
 640 1152 l 1,9,-1
 896 1152 l 1,10,-1
 896 -0 l 1,11,-1
 640 -0 l 1,12,-1
 640 512 l 1,13,-1
 512 512 l 1,14,-1
 512 384 l 1,15,-1
 384 384 l 1,16,-1
 384 256 l 1,17,-1
 256 256 l 1,18,-1
 256 -0 l 1,19,-1
 0 -0 l 1,0,-1
EndSplineSet
Validated: 3073
EndChar

StartChar: afii10027
Encoding: 1049 1049 266
Width: 1024
VWidth: 51
Flags: W
HStem: -0 21G<0 256 640 896> 896 128<256 384> 1132 20G<0 256 640 896> 1152 128<512 640>
VStem: 0 256<0 256 640 896 1024 1152> 384 256<1152 1280> 384 128<1024 1152> 640 256<0 512 896 1152>
LayerCount: 2
Fore
SplineSet
384 1024 m 1,0,-1
 384 1280 l 1,1,-1
 640 1280 l 1,2,-1
 640 1152 l 1,3,-1
 512 1152 l 1,4,-1
 512 896 l 1,5,-1
 640 896 l 1,6,-1
 640 1152 l 1,7,-1
 896 1152 l 1,8,-1
 896 -0 l 1,9,-1
 640 -0 l 1,10,-1
 640 512 l 1,11,-1
 512 512 l 1,12,-1
 512 384 l 1,13,-1
 384 384 l 1,14,-1
 384 256 l 1,15,-1
 256 256 l 1,16,-1
 256 -0 l 1,17,-1
 0 -0 l 1,18,-1
 0 1152 l 1,19,-1
 256 1152 l 1,20,-1
 256 1024 l 1,21,-1
 384 1024 l 1,0,-1
512 896 m 1,22,-1
 256 896 l 1,23,-1
 256 640 l 1,24,-1
 384 640 l 1,25,-1
 384 768 l 1,26,-1
 512 768 l 1,27,-1
 512 896 l 1,22,-1
EndSplineSet
Validated: 3077
EndChar

StartChar: afii10028
Encoding: 1050 1050 267
Width: 1024
VWidth: 51
Flags: W
HStem: -0 256<768 896> -0 128<0 128> 512 128<384 512> 896 256<768 896> 1024 128<0 128>
VStem: 0 384<0 128 1024 1152> 128 256<128 512 640 1024> 512 256<256 512 640 896> 640 256<0 256 896 1152>
LayerCount: 2
Fore
SplineSet
0 1024 m 1,0,-1
 0 1152 l 1,1,-1
 384 1152 l 1,2,-1
 384 640 l 1,3,-1
 512 640 l 1,4,-1
 512 896 l 1,5,-1
 640 896 l 1,6,-1
 640 1152 l 1,7,-1
 896 1152 l 1,8,-1
 896 896 l 1,9,-1
 768 896 l 1,10,-1
 768 640 l 1,11,-1
 640 640 l 1,12,-1
 640 512 l 1,13,-1
 768 512 l 1,14,-1
 768 256 l 1,15,-1
 896 256 l 1,16,-1
 896 -0 l 1,17,-1
 640 -0 l 1,18,-1
 640 256 l 1,19,-1
 512 256 l 1,20,-1
 512 512 l 1,21,-1
 384 512 l 1,22,-1
 384 -0 l 1,23,-1
 0 -0 l 1,24,-1
 0 128 l 1,25,-1
 128 128 l 1,26,-1
 128 1024 l 1,27,-1
 0 1024 l 1,0,-1
EndSplineSet
Validated: 3073
EndChar

StartChar: afii10029
Encoding: 1051 1051 268
Width: 1024
VWidth: 51
Flags: W
HStem: -0 128<0 128> 896 256<384 640>
VStem: 0 256<0 128> 128 256<128 896> 640 256<0 896>
LayerCount: 2
Fore
SplineSet
384 1024 m 1,0,-1
 384 1152 l 1,1,-1
 896 1152 l 1,2,-1
 896 -0 l 1,3,-1
 640 -0 l 1,4,-1
 640 896 l 1,5,-1
 384 896 l 1,6,-1
 384 128 l 1,7,-1
 256 128 l 1,8,-1
 256 -0 l 1,9,-1
 0 -0 l 1,10,-1
 0 128 l 1,11,-1
 128 128 l 1,12,-1
 128 896 l 1,13,-1
 256 896 l 1,14,-1
 256 1024 l 1,15,-1
 384 1024 l 1,0,-1
EndSplineSet
Validated: 3073
EndChar

StartChar: afii10030
Encoding: 1052 1052 269
Width: 1024
VWidth: 51
Flags: W
HStem: -0 21G<0 256 640 896> 640 384<256 384 512 640> 1132 20G<0 256 640 896>
VStem: 0 256<0 640 1024 1152> 384 128<512 640> 640 256<0 640 1024 1152>
CounterMasks: 1 1c
LayerCount: 2
Fore
SplineSet
0 -0 m 1,0,-1
 0 1152 l 1,1,-1
 256 1152 l 1,2,-1
 256 1024 l 1,3,-1
 384 1024 l 1,4,-1
 384 896 l 1,5,-1
 512 896 l 1,6,-1
 512 1024 l 1,7,-1
 640 1024 l 1,8,-1
 640 1152 l 1,9,-1
 896 1152 l 1,10,-1
 896 -0 l 1,11,-1
 640 -0 l 1,12,-1
 640 640 l 1,13,-1
 512 640 l 1,14,-1
 512 512 l 1,15,-1
 384 512 l 1,16,-1
 384 640 l 1,17,-1
 256 640 l 1,18,-1
 256 -0 l 1,19,-1
 0 -0 l 1,0,-1
EndSplineSet
Validated: 3073
EndChar

StartChar: afii10031
Encoding: 1053 1053 270
Width: 1024
VWidth: 51
Flags: W
HStem: -0 21G<0 256 640 896> 512 128<256 640> 1132 20G<0 256 640 896>
VStem: 0 256<0 512 640 1152> 640 256<0 512 640 1152>
LayerCount: 2
Fore
SplineSet
0 -0 m 1,0,-1
 0 1152 l 1,1,-1
 256 1152 l 1,2,-1
 256 640 l 1,3,-1
 640 640 l 1,4,-1
 640 1152 l 1,5,-1
 896 1152 l 1,6,-1
 896 -0 l 1,7,-1
 640 -0 l 1,8,-1
 640 512 l 1,9,-1
 256 512 l 1,10,-1
 256 -0 l 1,11,-1
 0 -0 l 1,0,-1
EndSplineSet
Validated: 3073
EndChar

StartChar: afii10032
Encoding: 1054 1054 271
Width: 1024
VWidth: 51
Flags: W
HStem: -0 256<256 384 512 640> -0 128<384 512> 896 256<256 384 512 640> 1024 128<384 512>
VStem: 0 256<256 896> 128 256<128 256 896 1024> 256 384<0 128 1024 1152> 512 256<128 256 896 1024> 640 256<256 896>
LayerCount: 2
Fore
SplineSet
512 896 m 1,0,-1
 512 1024 l 1,1,-1
 384 1024 l 1,2,-1
 384 896 l 1,3,-1
 256 896 l 1,4,-1
 256 256 l 1,5,-1
 384 256 l 1,6,-1
 384 128 l 1,7,-1
 512 128 l 1,8,-1
 512 256 l 1,9,-1
 640 256 l 1,10,-1
 640 896 l 1,11,-1
 512 896 l 1,0,-1
256 1024 m 1,12,-1
 256 1152 l 1,13,-1
 640 1152 l 1,14,-1
 640 1024 l 1,15,-1
 768 1024 l 1,16,-1
 768 896 l 1,17,-1
 896 896 l 1,18,-1
 896 256 l 1,19,-1
 768 256 l 1,20,-1
 768 128 l 1,21,-1
 640 128 l 1,22,-1
 640 -0 l 1,23,-1
 256 -0 l 1,24,-1
 256 128 l 1,25,-1
 128 128 l 1,26,-1
 128 256 l 1,27,-1
 0 256 l 1,28,-1
 0 896 l 1,29,-1
 128 896 l 1,30,-1
 128 1024 l 1,31,-1
 256 1024 l 1,12,-1
EndSplineSet
Validated: 3073
EndChar

StartChar: afii10033
Encoding: 1055 1055 272
Width: 1024
VWidth: 51
Flags: W
HStem: -0 21G<0 256 640 896> 1024 128<256 640>
VStem: 0 256<0 1024> 640 256<0 1024>
LayerCount: 2
Fore
SplineSet
0 -0 m 1,0,-1
 0 1152 l 1,1,-1
 896 1152 l 1,2,-1
 896 -0 l 1,3,-1
 640 -0 l 1,4,-1
 640 1024 l 1,5,-1
 256 1024 l 1,6,-1
 256 -0 l 1,7,-1
 0 -0 l 1,0,-1
EndSplineSet
Validated: 3073
EndChar

StartChar: afii10034
Encoding: 1056 1056 273
Width: 1024
VWidth: 51
Flags: W
HStem: -0 128<0 128 384 512> 512 128<384 640> 1024 128<0 128 384 640>
VStem: 128 256<128 512 640 1024> 640 256<640 1024>
CounterMasks: 1 e0
LayerCount: 2
Fore
SplineSet
640 640 m 1,0,-1
 640 1024 l 1,1,-1
 384 1024 l 1,2,-1
 384 640 l 1,3,-1
 640 640 l 1,0,-1
0 1024 m 1,4,-1
 0 1152 l 1,5,-1
 768 1152 l 1,6,-1
 768 1024 l 1,7,-1
 896 1024 l 1,8,-1
 896 640 l 1,9,-1
 768 640 l 1,10,-1
 768 512 l 1,11,-1
 384 512 l 1,12,-1
 384 128 l 1,13,-1
 512 128 l 1,14,-1
 512 -0 l 1,15,-1
 0 -0 l 1,16,-1
 0 128 l 1,17,-1
 128 128 l 1,18,-1
 128 1024 l 1,19,-1
 0 1024 l 1,4,-1
EndSplineSet
Validated: 3073
EndChar

